<svg version="1.1" viewBox="0.0 0.0 398.2309711286089 296.4435695538058" fill="none" stroke="none" stroke-linecap="square" stroke-miterlimit="10" xmlns:xlink="http://www.w3.org/1999/xlink" xmlns="http://www.w3.org/2000/svg"><clipPath id="p.0"><path d="m0 0l398.23096 0l0 296.44357l-398.23096 0l0 -296.44357z" clip-rule="nonzero"/></clipPath><g clip-path="url(#p.0)"><path fill="#000000" fill-opacity="0.0" d="m0 0l398.23096 0l0 296.44357l-398.23096 0z" fill-rule="evenodd"/><path fill="#000000" fill-opacity="0.0" d="m128.82677 79.72966l264.7874 0l0 125.5748l-264.7874 0z" fill-rule="evenodd"/><path fill="#000000" d="m151.82677 129.15341l0.84375 0q1.3125 0 2.25 0.9375q0.9375 0.921875 0.9375 2.234375q0 1.359375 -0.953125 2.28125q-0.953125 0.90625 -2.234375 0.90625l-0.84375 0q-1.3125 0 -2.25 -0.921875q-0.9375 -0.9375 -0.9375 -2.25q0 -1.359375 0.9375 -2.265625q0.953125 -0.921875 2.25 -0.921875zm17.101562 -8.015633l21.28125 -11.859375q0.515625 -0.28125 0.78125 -0.28125q0.390625 0 0.6875 0.296875q0.296875 0.296875 0.296875 0.6875q0 0.59375 -0.796875 1.03125l-18.234375 10.125l18.203125 10.125008q0.796875 0.453125 0.796875 1.03125q0 0.40625 -0.296875 0.703125q-0.28125 0.28125 -0.6875 0.28125q-0.25 0 -0.765625 -0.28125l-21.265625 -11.859383zm41.882812 -11.78125l0 23.484383l5.109375 0q0.703125 0 1.0 0.265625q0.3125 0.265625 0.3125 0.71875q0 0.421875 -0.3125 0.703125q-0.296875 0.28125 -1.0 0.28125l-12.203125 0q-0.703125 0 -1.015625 -0.28125q-0.296875 -0.28125 -0.296875 -0.703125q0 -0.453125 0.296875 -0.71875q0.3125 -0.265625 1.015625 -0.265625l5.109375 0l0 -23.484383l-8.0625 0l0 6.8125q0 0.734375 -0.28125 1.046875q-0.265625 0.296875 -0.703125 0.296875q-0.421875 0 -0.703125 -0.296875q-0.28125 -0.3125 -0.28125 -1.046875l0 -8.78125l22.046875 0l0 8.78125q0 0.734375 -0.265625 1.046875q-0.265625 0.296875 -0.71875 0.296875q-0.4375 0 -0.71875 -0.296875q-0.265625 -0.3125 -0.265625 -1.046875l0 -6.8125l-8.0625 0zm34.320312 16.28125l-12.9375 0l-2.65625 7.2031326l3.78125 0q0.703125 0 1.0 0.265625q0.3125 0.265625 0.3125 0.71875q0 0.421875 -0.3125 0.703125q-0.296875 0.28125 -1.0 0.28125l-7.359375 0q-0.703125 0 -1.015625 -0.28125q-0.296875 -0.28125 -0.296875 -0.703125q0 -0.453125 0.296875 -0.71875q0.3125 -0.265625 1.015625 -0.265625l1.515625 0l8.703125 -23.484383l-5.8125 0q-0.703125 0 -1.015625 -0.265625q-0.296875 -0.28125 -0.296875 -0.71875q0 -0.453125 0.296875 -0.71875q0.3125 -0.265625 1.015625 -0.265625l9.90625 0l9.609375 25.453133l1.53125 0q0.703125 0 1.0 0.265625q0.3125 0.265625 0.3125 0.71875q0 0.421875 -0.3125 0.703125q-0.296875 0.28125 -1.0 0.28125l-7.34375 0q-0.71875 0 -1.03125 -0.28125q-0.296875 -0.28125 -0.296875 -0.703125q0 -0.453125 0.296875 -0.71875q0.3125 -0.265625 1.03125 -0.265625l3.75 0l-2.6875 -7.2031326zm-0.75 -1.96875l-5.4375 -14.3125l-0.734375 0l-5.265625 14.3125l11.4375 0zm14.664078 9.171883l0 -23.484383l-2.640625 0q-0.70314026 0 -1.0156403 -0.265625q-0.296875 -0.28125 -0.296875 -0.71875q0 -0.453125 0.296875 -0.71875q0.3125 -0.265625 1.0156403 -0.265625l12.375 0q3.671875 0 5.984375 2.125q2.3125 2.109375 2.3125 4.96875q0 3.609375 -3.875 5.84375q3.078125 1.09375 4.5 2.921875q1.4375 1.828125 1.4375 4.03125q0 1.9687576 -0.9375 3.6093826q-0.9375 1.625 -2.875 2.78125q-1.9375 1.140625 -4.203125 1.140625l-14.71875 0q-0.70314026 0 -1.0156403 -0.28125q-0.296875 -0.28125 -0.296875 -0.703125q0 -0.453125 0.296875 -0.71875q0.3125 -0.265625 1.0156403 -0.265625l2.640625 0zm1.96875 -13.265633l6.96875 0q2.21875 0 4.078125 -0.828125q1.421875 -0.65625 2.21875 -1.890625q0.796875 -1.25 0.796875 -2.53125q0 -1.859375 -1.734375 -3.40625q-1.734375 -1.5625 -4.515625 -1.5625l-7.8125 0l0 10.21875zm0 13.265633l9.96875 0q1.890625 0 3.296875 -0.84375q1.40625 -0.84375 2.125 -2.078125q0.734375 -1.25 0.734375 -2.5937576q0 -1.5 -1.046875 -2.90625q-1.03125 -1.40625 -2.890625 -2.125q-1.84375 -0.734375 -5.109375 -0.734375l-7.078125 0l0 11.281258zm47.351562 -11.703133l-21.28125 11.859383q-0.515625 0.28125 -0.78125 0.28125q-0.390625 0 -0.6875 -0.28125q-0.296875 -0.296875 -0.296875 -0.703125q0 -0.578125 0.796875 -1.03125l18.234375 -10.125008l-18.203125 -10.125q-0.796875 -0.4375 -0.796875 -1.03125q0 -0.390625 0.28125 -0.6875q0.296875 -0.296875 0.703125 -0.296875q0.25 0 0.765625 0.28125l21.265625 11.859375z" fill-rule="nonzero"/><path fill="#000000" fill-opacity="0.0" d="m78.220474 66.178474l264.7874 0l0 125.57481l-264.7874 0z" fill-rule="evenodd"/><path fill="#000000" d="m111.26735 91.8366l0 27.453125l2.625 0q0.734375 0 1.03125 0.265625q0.3125 0.265625 0.3125 0.71875q0 0.421875 -0.3125 0.703125q-0.296875 0.28125 -1.03125 0.28125l-4.609375 0l0 -3.921875q-3.421875 4.703125 -8.703125 4.703125q-2.671875 0 -5.125 -1.421875q-2.4375 -1.421875 -3.859375 -4.046875q-1.421875 -2.625 -1.421875 -5.421875q0 -2.8125 1.421875 -5.421875q1.421875 -2.609375 3.859375 -4.03125q2.453125 -1.4375 5.15625 -1.4375q5.15625 0 8.671875 4.6875l0 -11.109375l-2.625 0q-0.734375 0 -1.046875 -0.28125q-0.296875 -0.28125 -0.296875 -0.734375q0 -0.421875 0.296875 -0.703125q0.3125 -0.28125 1.046875 -0.28125l4.609375 0zm-1.984375 19.3125q0 -3.75 -2.53125 -6.328125q-2.53125 -2.578125 -6.03125 -2.578125q-3.515625 0 -6.046875 2.578125q-2.53125 2.578125 -2.53125 6.328125q0 3.734375 2.53125 6.328125q2.53125 2.578125 6.046875 2.578125q3.5 0 6.03125 -2.578125q2.53125 -2.59375 2.53125 -6.328125zm19.851562 -8.203125l0 16.34375l8.640625 0q0.703125 0 1.0 0.265625q0.3125 0.265625 0.3125 0.71875q0 0.421875 -0.3125 0.703125q-0.296875 0.28125 -1.0 0.28125l-15.390625 0q-0.703125 0 -1.015625 -0.28125q-0.296875 -0.28125 -0.296875 -0.703125q0 -0.453125 0.296875 -0.71875q0.3125 -0.265625 1.015625 -0.265625l4.75 0l0 -16.34375l-4.265625 0q-0.703125 0 -1.015625 -0.28125q-0.296875 -0.28125 -0.296875 -0.71875q0 -0.421875 0.296875 -0.703125q0.3125 -0.28125 1.015625 -0.28125l4.265625 0l0 -2.984375q0 -2.484375 2.015625 -4.3125q2.015625 -1.828125 5.34375 -1.828125q2.796875 0 5.953125 0.515625q1.203125 0.1875 1.4375 0.453125q0.25 0.25 0.25 0.671875q0 0.421875 -0.28125 0.703125q-0.28125 0.265625 -0.75 0.265625q-0.1875 0 -0.625 -0.078125q-3.546875 -0.53125 -5.984375 -0.53125q-2.578125 0 -3.96875 1.265625q-1.390625 1.265625 -1.390625 2.875l0 2.984375l9.203125 0q0.703125 0 1.0 0.28125q0.3125 0.28125 0.3125 0.71875q0 0.421875 -0.3125 0.703125q-0.296875 0.28125 -1.0 0.28125l-9.203125 0z" fill-rule="nonzero"/><path fill="#000000" fill-opacity="0.0" d="m91.40945 104.69029l264.78738 0l0 125.5748l-264.78738 0z" fill-rule="evenodd"/><path fill="#000000" d="m127.90945 172.92654l-26.1875 0q-0.703125 0 -1.015625 -0.28125q-0.296875 -0.265625 -0.296875 -0.703125q0 -0.453125 0.296875 -0.71875q0.3125 -0.265625 1.015625 -0.265625l26.1875 0q0.7187576 0 1.0156326 0.265625q0.296875 0.265625 0.296875 0.71875q0 0.4375 -0.296875 0.703125q-0.296875 0.28125 -1.0156326 0.28125z" fill-rule="nonzero"/></g></svg>