<svg version="1.1" viewBox="0.0 0.0 816.4173228346457 641.5826771653543" fill="none" stroke="none" stroke-linecap="square" stroke-miterlimit="10" xmlns:xlink="http://www.w3.org/1999/xlink" xmlns="http://www.w3.org/2000/svg"><clipPath id="p.0"><path d="m0 0l816.4173 0l0 641.5827l-816.4173 0l0 -641.5827z" clip-rule="nonzero"/></clipPath><g clip-path="url(#p.0)"><path fill="#000000" fill-opacity="0.0" d="m0 0l816.4173 0l0 641.5827l-816.4173 0z" fill-rule="evenodd"/><path fill="#ff4088" d="m194.3412 212.4252l110.26247 64.15222c13.107605 7.556427 21.128601 21.51181 21.128601 36.624664l0 131.5433c0 16.656189 -9.023621 32.07614 -23.595795 40.24936l-109.41469 61.68506c-14.572174 8.173218 -32.307083 8.097107 -46.72441 -0.23101807l-100.779526 -58.060333c-15.884512 -9.099731 -25.598423 -25.984253 -25.598423 -44.259857l0 -124.758514c0 -18.427826 9.482939 -35.467194 25.136482 -45.107605l99.08136 -61.14438c15.419952 -9.561676 34.853027 -9.792648 50.503937 -0.6929016z" fill-rule="evenodd"/><path stroke="#c9177e" stroke-width="25.984251968503937" stroke-miterlimit="29.3775" stroke-linecap="butt" d="m194.3412 212.4252l110.26247 64.15222c13.107605 7.556427 21.128601 21.51181 21.128601 36.624664l0 131.5433c0 16.656189 -9.023621 32.07614 -23.595795 40.24936l-109.41469 61.68506c-14.572174 8.173218 -32.307083 8.097107 -46.72441 -0.23101807l-100.779526 -58.060333c-15.884512 -9.099731 -25.598423 -25.984253 -25.598423 -44.259857l0 -124.758514c0 -18.427826 9.482939 -35.467194 25.136482 -45.107605l99.08136 -61.14438c15.419952 -9.561676 34.853027 -9.792648 50.503937 -0.6929016z" fill-rule="evenodd"/><path fill="#ffffff" d="m96.10761 278.50394l0 199.70602l41.792656 0l0 -87.28345l69.31758 0l0 87.28345l41.94751 0l0 -199.70602l-41.94751 0l0 72.79004l-69.31758 0l0 -72.79004zm816.55646 -3.3910828c-26.910767 0 -53.049866 11.102356 -70.629944 28.065613c-20.047241 19.506561 -31.304443 45.64569 -31.304443 75.8714c0 30.766418 14.650879 58.293976 34.774292 76.10498c18.196838 16.039368 39.170593 25.291351 65.15485 25.291351c28.45404 0 51.275574 -7.632538 68.54852 -26.601044c17.194214 -18.968506 25.829407 -32.230988 25.829407 -77.648315l0 -0.07611084l0 -6.7086487l-89.20996 0l0 36.16272l46.955383 0c0 13.624664 -25.05774 37.93701 -48.811035 37.93701c-1.5223389 0 -3.0393677 -0.099731445 -4.5459595 -0.3070984c-47.574768 -6.7086487 -57.443542 -43.026245 -58.753235 -64.15485c-2.4331055 -37.304474 29.351685 -65.32547 58.682373 -65.32547c0.43572998 0 0.8713989 0.0052490234 1.3045044 0.018371582c26.834595 0.76904297 45.648254 8.86615 58.601013 33.0l30.611572 -25.829376c-20.818909 -30.456696 -54.66931 -45.800537 -87.20734 -45.800537zm365.86877 0c-56.595825 0 -102.62732 45.955383 -102.62732 102.62729c0 56.67456 46.031494 102.706055 102.62732 102.706055c56.67456 0 102.706055 -46.031494 102.706055 -102.706055c0 -56.671906 -46.031494 -102.62729 -102.706055 -102.62729zm-815.7848 9.868774l0 106.40683c0 22.359558 1.2336121 39.246704 3.779541 50.658783c1.6955261 7.7113037 5.24411 15.112854 10.640411 22.128601c5.396332 7.094513 12.800537 12.800537 22.05249 17.194244c9.330719 4.396332 22.97638 6.556427 41.020996 6.556427c14.881897 0 26.986877 -2.005249 36.23883 -6.015747c9.3307495 -4.010498 16.7323 -9.482941 22.207397 -16.270355c5.5511475 -6.7847595 9.330688 -15.188965 11.412048 -25.05774c2.0813599 -9.871399 3.0839844 -26.834656 3.0839844 -50.81363l0 -104.787415l-40.711304 0l0 110.4147c0 15.732269 -1.8529663 27.065613 -3.0078735 33.850372c-1.0787354 6.8635254 -4.3963013 11.257233 -9.868713 15.960632c-5.4750977 4.70343 -9.0997925 6.3228455 -19.89502 6.3228455c-10.640442 0 -17.811035 -1.3858337 -23.979004 -6.3228455c-6.0918884 -4.9343567 -9.099762 -10.640411 -10.795288 -18.81363c-0.9265137 -5.0892334 -1.3884583 -16.19162 -1.3884583 -33.309723l0 -108.102356z" fill-rule="evenodd"/><path fill="#ffffff" d="m128.28084 129.30183c-0.03149414 0 -0.06298828 0 -0.09710693 0.0026245117c-1.3858337 0.0761261 -2.4671936 1.7716522 -2.4671936 3.8530273c-0.07611847 0 -0.15222931 0.07873535 -0.46194458 0.15484619c-0.1496048 0.041992188 -0.31233215 0.06036377 -0.4855652 0.06036377c-1.4409409 0 -3.5905533 -1.3307037 -4.1417313 -2.296585c0 0 0 0 0 -0.07611084c-0.5091858 -0.94750977 -1.291336 -1.5485535 -2.1574783 -1.5485535c-0.049873352 0 -0.10236359 0.0026245117 -0.15485382 0.0052490234c-0.15486145 0 -0.30709076 0.07873535 -0.46194458 0.07873535c-1.0026245 0 -2.005249 0.92388916 -2.6220474 2.698166c-0.69291687 1.7742767 -0.8477707 4.2414703 -0.9265137 6.708664c-0.3858261 26.1391 3.3937073 45.338577 -0.15222931 83.813644c0.15222931 2.3910828 0.46194458 5.0892334 1.0026245 7.3254547c0.6167984 2.1601105 1.4645691 3.8556519 2.4671936 4.5485687c0.35170746 0.24407959 0.71128845 0.3648224 1.0656204 0.3648224c0.6561661 0 1.286087 -0.41207886 1.7873993 -1.2126007c0.8477707 -1.2335968 1.3858261 -3.3910675 1.6194229 -5.7821503c1.0787354 -15.653549 1.4645615 -28.451447 1.4645615 -39.47769c-0.30970764 -0.30970764 -0.6167908 -0.7716522 -0.84776306 -1.388443c-0.6167984 -1.3884583 -1.0026245 -3.162735 -1.157486 -5.013138c-0.23096466 -2.236206 -0.30970764 -4.4724274 -0.15485382 -6.6299133c-0.07611084 -0.4645691 -0.15485382 -0.9265137 -0.15485382 -1.3884583c-0.30709076 -2.6981506 -0.30709076 -5.475052 -0.07611847 -7.9422455c0 0 0 0 0 -0.0761261c0 -0.15484619 0 -0.30970764 0 -0.4645691c-0.07611084 -0.38319397 0 -0.46192932 0 -0.6167908c-0.07611084 -0.15223694 -0.07611084 -0.38320923 -0.30970764 -0.84776306c-1.8503952 -4.934387 -2.1574783 -11.181107 -2.0026245 -16.346466c0.07611084 -3.0839844 0.30708313 -5.9370117 0.5380554 -8.40419c1.4881897 1.1443481 3.1863556 1.7795258 4.9081345 1.7795258c0.60105133 0 1.2021027 -0.07875061 1.8005295 -0.23622131c1.3123322 -0.30970764 2.467186 -1.0026245 3.3936996 -2.3910828c1.0026245 -1.3123322 1.5406799 -3.393692 1.3884583 -5.398941c0 -2.1863556 -1.1811066 -3.8556519 -2.6036835 -3.8556519z" fill-rule="evenodd"/><path fill="#ffffff" d="m226.3412 108.561676l-137.86613 2.1601105c11.874016 9.020996 36.624672 16.346458 65.23097 18.272964c4.958008 0.3438263 9.803146 0.5091858 14.485565 0.5091858c33.178467 0 58.225723 -8.296585 58.225723 -20.325462c0 -0.15485382 -0.0761261 -0.3858261 -0.0761261 -0.6167984z" fill-rule="evenodd"/><path fill="#000000" fill-opacity="0.0" d="m226.3412 108.561676c0 0.23097229 0.0761261 0.46194458 0.0761261 0.6167984c0 13.724411 -32.61418 22.593178 -72.71129 19.816277c-28.6063 -1.926506 -53.356956 -9.251968 -65.23097 -18.272964" fill-rule="evenodd"/><path stroke="#aaaaaa" stroke-width="7.711286089238845" stroke-linejoin="round" stroke-linecap="round" d="m226.3412 108.561676c0 0.23097229 0.0761261 0.46194458 0.0761261 0.6167984c0 13.724411 -32.61418 22.593178 -72.71129 19.816277c-28.6063 -1.926506 -53.356956 -9.251968 -65.23097 -18.272964" fill-rule="evenodd"/><path fill="#ffffff" d="m117.85302 129.07086l0 0c9.666664 2.9291382 16.112862 5.913391 30.013115 5.913391c9.157486 0 21.548569 -1.2939606 40.230972 -4.755905l-70.24409 -1.157486z" fill-rule="evenodd"/><path fill="#000000" fill-opacity="0.0" d="m117.85302 129.07086c16.03675 4.8582764 23.207344 9.871399 70.24409 1.157486" fill-rule="evenodd"/><path stroke="#aaaaaa" stroke-width="7.711286089238845" stroke-linejoin="round" stroke-linecap="round" d="m117.85302 129.07086c16.03675 4.8582764 23.207344 9.871399 70.24409 1.157486" fill-rule="evenodd"/><path fill="#ffffff" d="m241.83989 114.65354c1.2073517 0.93963623 3.7559052 1.5853043 6.0236206 1.5853043c0.33859253 0 0.6719208 -0.013122559 0.99212646 -0.0446167c1.774292 -0.23097229 2.7769165 -0.76903534 2.622055 -1.5406876z" fill-rule="evenodd"/><path fill="#000000" fill-opacity="0.0" d="m241.76115 114.65354c0 0 0 0 0.07873535 0c1.3884583 1.078743 4.5485687 1.7742767 7.015747 1.5406876c1.774292 -0.23097229 2.7769165 -0.76903534 2.622055 -1.5406876" fill-rule="evenodd"/><path stroke="#aaaaaa" stroke-width="7.711286089238845" stroke-linejoin="round" stroke-linecap="round" d="m241.76115 114.65354c0 0 0 0 0.07873535 0c1.3884583 1.078743 4.5485687 1.7742767 7.015747 1.5406876c1.774292 -0.23097229 2.7769165 -0.76903534 2.622055 -1.5406876" fill-rule="evenodd"/><path fill="#ffffff" d="m86.54593 110.33596c7.4042053 45.955376 3.548561 91.91076 -4.4698105 137.86615c26.501312 -3.6246796 53.00524 -5.020996 79.50655 -5.020996c33.254593 0 66.509186 2.1968536 99.763794 4.9422455c-13.724426 -45.876633 -14.110245 -91.832016 -5.010498 -137.78738z" fill-rule="evenodd"/><path fill="#000000" fill-opacity="0.0" d="m256.33597 110.33596c-9.099747 45.955376 -8.713928 91.91076 5.010498 137.78738c-59.75592 -4.934372 -119.51445 -8.094482 -179.27036 0.07875061c8.018372 -45.955383 11.874016 -91.91077 4.4698105 -137.86615" fill-rule="evenodd"/><path stroke="#000000" stroke-width="2.9291338582677167" stroke-linejoin="round" stroke-linecap="round" d="m256.33597 110.33596c-9.099747 45.955376 -8.713928 91.91076 5.010498 137.78738c-59.75592 -4.934372 -119.51445 -8.094482 -179.27036 0.07875061c8.018372 -45.955383 11.874016 -91.91077 4.4698105 -137.86615" fill-rule="evenodd"/><path fill="#ffffff" d="m48.070866 75.637794l0 0c7.572178 9.984253 11.475067 24.160103 27.65092 24.160103c2.4383163 0 5.154854 -0.3228302 8.20472 -1.0288696l-35.85564 -23.131233z" fill-rule="evenodd"/><path fill="#000000" fill-opacity="0.0" d="m48.070866 75.637794c8.713913 11.48819 12.569553 28.530182 35.85564 23.131233" fill-rule="evenodd"/><path stroke="#dfdfdf" stroke-width="7.711286089238845" stroke-linejoin="round" stroke-linecap="round" d="m48.070866 75.637794c8.713913 11.48819 12.569553 28.530182 35.85564 23.131233" fill-rule="evenodd"/><path fill="#ffffff" d="m289.4908 71.0105l-47.496063 34.31234c38.089233 -3.083992 43.485565 -19.585304 47.496063 -34.31234z" fill-rule="evenodd"/><path fill="#000000" fill-opacity="0.0" d="m289.4908 71.0105c-4.010498 14.7270355 -9.40683 31.228348 -47.496063 34.31234" fill-rule="evenodd"/><path stroke="#dfdfdf" stroke-width="7.711286089238845" stroke-linejoin="round" stroke-linecap="round" d="m289.4908 71.0105c-4.010498 14.7270355 -9.40683 31.228348 -47.496063 34.31234" fill-rule="evenodd"/><path fill="#ffffff" d="m171.20998 18.115486c-28.228348 0 -52.53544 9.640419 -63.67717 23.569553l0 0c-6.2099686 -2.9160118 -13.433067 -4.6010513 -21.062988 -4.6010513c-23.671917 0 -42.94751 15.960632 -42.94751 35.62205c0 19.740158 19.275593 35.700783 42.94751 35.700783l1.1574783 0l0.32283783 -0.92913055l0 0c13.477684 7.805771 36.08136 14.225723 61.74803 16.582672c7.020996 0.6561737 13.818893 0.96588135 20.262466 0.96588135c31.472443 0 54.53018 -7.4488144 54.53018 -18.776901c0 -0.23097229 0 -0.3858261 -0.07873535 -0.6167984l-135.2861 -1.545929l0 0l15.543304 -44.77428l0 0l114.39895 -16.372704l24.312347 69.32283c28.144348 -0.46194458 50.73752 -16.732285 50.73752 -36.624672c0 -20.202099 -23.286072 -36.627296 -52.04724 -36.627296c-3.0787354 0 -6.091858 0.19422531 -9.026245 0.56167984l0 0c-11.86351 -12.75853 -35.146973 -21.456692 -61.83464 -21.456692z" fill-rule="evenodd"/><path fill="#000000" fill-opacity="0.0" d="m224.41208 105.632545c0.07873535 0.23097229 0.07873535 0.3858261 0.07873535 0.6167984c0 13.648293 -33.46457 21.666664 -74.79265 17.81102c-29.377953 -2.6981583 -54.745407 -10.719154 -67.00525 -20.047241m4.9343796 4.3936996c-0.3858261 0 -0.7716522 0 -1.1574783 0c-23.671917 0 -42.94751 -15.960625 -42.94751 -35.700783c0 -19.661419 19.275593 -35.62205 42.94751 -35.62205c8.790024 0 17.041992 2.2362213 23.826767 6.0131264m-9.254593 16.73228c0 -0.30708694 0 -0.6167984 0 -1.0c0 -22.51706 31.38321 -40.71391 70.167984 -40.71391c27.527557 0 51.43045 9.251968 62.91864 22.669292m-15.112869 2.005249c7.015747 -2.391079 14.805771 -3.7795296 23.055115 -3.7795296c28.76117 0 52.04724 16.425198 52.04724 36.627296c0 19.892387 -22.59317 36.162727 -50.73752 36.624672" fill-rule="evenodd"/><path stroke="#000000" stroke-width="2.9291338582677167" stroke-linejoin="round" stroke-linecap="round" d="m224.41208 105.632545c0.07873535 0.23097229 0.07873535 0.3858261 0.07873535 0.6167984c0 13.648293 -33.46457 21.666664 -74.79265 17.81102c-29.377953 -2.6981583 -54.745407 -10.719154 -67.00525 -20.047241m4.9343796 4.3936996c-0.3858261 0 -0.7716522 0 -1.1574783 0c-23.671917 0 -42.94751 -15.960625 -42.94751 -35.700783c0 -19.661419 19.275593 -35.62205 42.94751 -35.62205c8.790024 0 17.041992 2.2362213 23.826767 6.0131264m-9.254593 16.73228c0 -0.30708694 0 -0.6167984 0 -1.0c0 -22.51706 31.38321 -40.71391 70.167984 -40.71391c27.527557 0 51.43045 9.251968 62.91864 22.669292m-15.112869 2.005249c7.015747 -2.391079 14.805771 -3.7795296 23.055115 -3.7795296c28.76117 0 52.04724 16.425198 52.04724 36.627296c0 19.892387 -22.59317 36.162727 -50.73752 36.624672" fill-rule="evenodd"/><path fill="#ffffff" d="m96.49344 125.98688c-2.005249 0.07874298 -3.8556442 1.9291306 -3.8556442 3.9343872c3.469818 23.748032 4.0866165 46.879257 1.0026245 70.62729c0.15485382 4.703415 -2.005249 9.561676 -1.926506 14.419952c0.07611084 4.858261 -0.23097229 9.716537 -1.157486 11.566925c-1.3884506 2.622055 -1.2335892 4.703415 -1.4645615 6.5538025c-0.23097229 1.7716522 -0.7716522 2.9291382 -0.8477707 3.005249c-1.5433044 1.3884583 -1.6194229 4.086624 -0.23097229 5.475067c0.73228455 0.73228455 1.7532806 1.0997467 2.7742767 1.0997467c1.0209961 0 2.0446243 -0.36746216 2.7769089 -1.0997467c0.30708313 -0.30708313 0.5380554 -0.6167908 0.7716522 -0.9238739c0.645668 0.44618225 1.4225693 0.70339966 2.202095 0.70339966c0.42782593 0 0.8556442 -0.07873535 1.2677155 -0.24147034c1.1548615 -0.38581848 2.0813675 -1.388443 2.4671936 -2.5433044c0.07611847 -0.15484619 0.07611847 -0.2335968 0.15222931 -0.38581848c3.162735 -9.561691 4.9370117 -28.068253 4.5511856 -43.257217c-0.07874298 -5.3989563 -0.54068756 -9.561691 -1.2335968 -12.645676c-0.30971527 -1.5433044 -0.6955414 -2.7769012 -1.5433044 -4.086609c-0.3858261 -0.61680603 -0.92388916 -1.3884583 -2.005249 -1.9265137c-0.15223694 -0.07873535 -0.38583374 -0.15486145 -0.53806305 -0.2335968l0.23097229 -16.653534c-3.1627274 -6.0157623 -2.4671936 -14.650925 -1.5433044 -23.05513c0.3858261 -3.393692 -0.7716522 -6.5538025 0.6167984 -8.944878c0.07873535 -0.15485382 0.15485382 -0.23097229 0.23097229 -0.30708313c-0.69291687 -0.6955414 -1.6955414 -1.0813675 -2.698166 -1.0813675z" fill-rule="evenodd"/><path fill="#ffffff" d="m246.74803 123.902885c-0.041992188 0 -0.083984375 0.0026245117 -0.12861633 0.0026245117c-0.84776306 0.07874298 -1.6955261 0.3858261 -2.3123322 0.9265137c0.15486145 0.69290924 0.15486145 1.3858261 -0.07873535 2.0813599c-3.7769012 11.71917 -2.4671936 24.519691 -2.157486 36.086617c-0.54067993 0.15223694 -1.0787354 0.6167908 -1.388443 1.4645691c-0.0761261 0 -0.0761261 0.07611084 -0.0761261 0.07611084c-0.7716522 1.8504028 -1.1574707 3.7795258 -1.3123322 5.7060394c-0.07611084 0.07611084 -0.15222168 0.07611084 -0.30708313 0.07611084c-0.23097229 21.59056 2.0813599 43.257217 7.401581 64.84778c0.4803009 2.0761108 2.0551147 2.9868774 3.6509094 2.9868774c2.2572174 0 4.551178 -1.8241577 3.8293915 -4.761154c-8.482925 -35.00525 -9.254593 -69.93439 -3.3175812 -104.94226c0.45669556 -2.422577 -1.3963165 -4.5511856 -3.8031464 -4.5511856z" fill-rule="evenodd"/><path fill="#ffffff" d="m170.90027 23.128609c-25.905518 0 -29.068253 0.46194267 -42.33072 7.015749c-7.86351 3.8556423 -14.803146 9.020998 -15.419945 11.412073c-0.6167984 2.3910751 -2.6220474 4.9343834 -4.317581 5.551182c-1.7742844 0.69553757 -3.9343872 4.6272964 -4.8582687 8.713909c-0.8110275 3.645668 -2.3307114 6.1706047 -3.5774307 6.1706047c-0.17584991 0 -0.34645844 -0.05249405 -0.5091858 -0.15748215c-2.2362213 -1.3884506 -1.6194229 -7.556431 1.7716522 -16.267715c1.3175888 -3.4750671 -5.3438263 -5.7270355 -13.679787 -5.7270355c-3.8740158 0 -8.110237 0.4855652 -12.073494 1.5616798c-10.71653 2.8530197 -25.674538 14.650921 -27.989498 21.89764c-0.92388535 2.776905 0.30971146 6.477688 2.9317589 9.254589c2.3884506 2.6220474 7.401573 8.711288 11.178474 13.569557c5.784775 7.480316 8.251968 8.868767 16.27034 8.868767c7.9422607 0 9.561684 0.8477707 10.254593 5.4724426c0.6167984 4.472435 4.4724426 6.7873993 21.4357 12.645668c19.123352 6.5538025 23.51706 7.170601 56.05774 7.3254547c0.8083954 0.002632141 1.6089325 0.005256653 2.3989563 0.005256653c36.59842 0 50.396317 -3.5301895 52.963257 -13.267723c0.8556366 -3.380577 1.1548462 -4.6430435 2.4934387 -4.6430435c0.82676697 0 2.0551147 0.48294067 4.060364 1.2519684c11.333328 4.317589 -1.4645691 20.509186 -19.89502 25.2126c-6.32283 1.6194153 -14.262466 4.010498 -17.580048 5.3989563c-3.3149567 1.3097076 -20.047241 3.2362213 -37.24147 4.317581c-17.118103 1.0026245 -31.769028 2.4671936 -32.538055 3.2388458c-0.77165985 0.7690277 -0.07874298 15.265091 1.6194229 32.15222c3.451439 35.553818 1.8346405 61.220474 -3.522316 61.220474c-0.62729645 0 -1.3044586 -0.35169983 -2.0314941 -1.0787354c-1.4645691 -1.3858337 -2.619423 -23.51706 -2.9291306 -53.973755c-0.3858261 -41.637787 -1.157486 -51.968506 -4.010498 -53.742783c-2.2782211 -1.4514389 -4.104988 -2.196846 -5.5406876 -2.196846c-2.8398895 0 -4.149605 2.916008 -4.4041977 9.060371c-0.8477707 17.501312 0.92388153 40.7874 3.3910751 43.795273c3.3175888 4.086609 1.4671936 57.367447 -2.1574783 61.761154c-1.8346481 2.178482 1.8241501 2.9501343 22.745407 2.9501343c7.233589 0 16.53019 -0.09187317 28.375328 -0.24934387c5.561676 -0.07350159 11.301834 -0.10762024 17.041992 -0.10762024c24.900269 0 49.803146 0.64567566 60.14174 1.6483002c12.7217865 1.1574707 24.364822 2.3149567 25.908127 2.545929c0.06562805 0.0052490234 0.12861633 0.007873535 0.19160461 0.007873535c1.4803162 0 2.097107 -1.7322845 1.5039368 -4.173233c-0.67715454 -2.5643005 -3.2021027 -4.2414703 -6.1968536 -4.2414703c-0.068237305 0 -0.1338501 0 -0.2020874 0.0026245117c-0.15223694 0.0026245117 -0.29922485 0.007873535 -0.443573 0.007873535c-4.178482 0 -5.27034 -2.3175812 -7.72966 -15.661407c-3.6246796 -19.740158 -4.086624 -45.414703 -1.3884583 -75.564316c1.6194305 -17.349075 1.3884583 -23.748024 -0.84776306 -25.59842c-1.6194305 -1.3884506 -2.7769012 -6.2467194 -2.545929 -10.795273c0.38581848 -8.020996 0.8503876 -8.404198 13.7270355 -11.026245c18.582672 -3.7795334 24.055115 -7.8661423 30.763763 -22.900269c5.7060547 -12.645668 5.78479 -13.262466 1.5433044 -17.889763c-8.677155 -9.653542 -25.871368 -15.451443 -42.816254 -15.451443c-5.7926636 0 -11.556442 0.677166 -16.94226 2.1128616c-1.8451538 0.47506714 -3.2335968 0.7270355 -4.254593 0.7270355c-1.7952728 0 -2.454071 -0.7821541 -2.454071 -2.5013123c0 -1.9265099 2.4671936 -3.9317589 5.475067 -4.4724426c4.3963165 -0.7716522 2.6220398 -2.312336 -9.175858 -8.097113c-13.56955 -6.629921 -16.577423 -7.0918636 -42.64041 -7.0918636z" fill-rule="evenodd"/><path fill="#ffffff" d="m170.90027 23.128609c-25.905518 0 -29.068253 0.46194267 -42.33072 7.015749c-7.86351 3.8556423 -14.803146 9.020998 -15.419945 11.412073c-0.6167984 2.3910751 -2.6220474 4.9343834 -4.317581 5.551182c-1.7742844 0.69553757 -3.9343872 4.6272964 -4.8582687 8.713909c-0.8110275 3.645668 -2.3307114 6.1706047 -3.5774307 6.1706047c-0.17584991 0 -0.34645844 -0.05249405 -0.5091858 -0.15748215c-2.2362213 -1.3884506 -1.6194229 -7.556431 1.7716522 -16.267715c1.3175888 -3.4750671 -5.3438263 -5.7270355 -13.679787 -5.7270355c-3.8740158 0 -8.110237 0.4855652 -12.073494 1.5616798c-10.71653 2.8530197 -25.674538 14.650921 -27.989498 21.89764c-0.92388535 2.776905 0.30971146 6.477688 2.9317589 9.254589c2.3884506 2.6220474 7.401573 8.711288 11.178474 13.569557c5.784775 7.480316 8.251968 8.868767 16.27034 8.868767c7.9422607 0 9.561684 0.8477707 10.254593 5.4724426c0.6167984 4.472435 4.4724426 6.7873993 21.4357 12.645668c19.123352 6.5538025 23.51706 7.170601 56.05774 7.3254547c0.8083954 0.002632141 1.6089325 0.005256653 2.3989563 0.005256653c36.59842 0 50.396317 -3.5301895 52.963257 -13.267723c0.8556366 -3.380577 1.1548462 -4.6430435 2.4934387 -4.6430435c0.82676697 0 2.0551147 0.48294067 4.060364 1.2519684c11.333328 4.317589 -1.4645691 20.509186 -19.89502 25.2126c-6.32283 1.6194153 -14.262466 4.010498 -17.580048 5.3989563c-3.3149567 1.3097076 -20.047241 3.2362213 -37.24147 4.317581c-17.118103 1.0026245 -31.769028 2.4671936 -32.538055 3.2388458c-0.77165985 0.7690277 -0.07874298 15.265091 1.6194229 32.15222c3.451439 35.553818 1.8346405 61.220474 -3.522316 61.220474c-0.62729645 0 -1.3044586 -0.35169983 -2.0314941 -1.0787354c-1.4645691 -1.3858337 -2.619423 -23.51706 -2.9291306 -53.973755c-0.3858261 -41.637787 -1.157486 -51.968506 -4.010498 -53.742783c-2.2782211 -1.4514389 -4.104988 -2.196846 -5.5406876 -2.196846c-2.8398895 0 -4.149605 2.916008 -4.4041977 9.060371c-0.8477707 17.501312 0.92388153 40.7874 3.3910751 43.795273c3.3175888 4.086609 1.4671936 57.367447 -2.1574783 61.761154c-1.8346481 2.178482 1.8241501 2.9501343 22.745407 2.9501343c7.233589 0 16.53019 -0.09187317 28.375328 -0.24934387c5.561676 -0.07350159 11.301834 -0.10762024 17.041992 -0.10762024c24.900269 0 49.803146 0.64567566 60.14174 1.6483002c12.7217865 1.1574707 24.364822 2.3149567 25.908127 2.545929c0.06562805 0.0052490234 0.12861633 0.007873535 0.19160461 0.007873535c1.4803162 0 2.097107 -1.7322845 1.5039368 -4.173233c-0.67715454 -2.5643005 -3.2021027 -4.2414703 -6.1968536 -4.2414703c-0.068237305 0 -0.1338501 0 -0.2020874 0.0026245117c-0.15223694 0.0026245117 -0.29922485 0.007873535 -0.443573 0.007873535c-4.178482 0 -5.27034 -2.3175812 -7.72966 -15.661407c-3.6246796 -19.740158 -4.086624 -45.414703 -1.3884583 -75.564316c1.6194305 -17.349075 1.3884583 -23.748024 -0.84776306 -25.59842c-1.6194305 -1.3884506 -2.7769012 -6.2467194 -2.545929 -10.795273c0.38581848 -8.020996 0.8503876 -8.404198 13.7270355 -11.026245c18.582672 -3.7795334 24.055115 -7.8661423 30.763763 -22.900269c5.7060547 -12.645668 5.78479 -13.262466 1.5433044 -17.889763c-8.677155 -9.653542 -25.871368 -15.451443 -42.816254 -15.451443c-5.7926636 0 -11.556442 0.677166 -16.94226 2.1128616c-1.8451538 0.47506714 -3.2335968 0.7270355 -4.254593 0.7270355c-1.7952728 0 -2.454071 -0.7821541 -2.454071 -2.5013123c0 -1.9265099 2.4671936 -3.9317589 5.475067 -4.4724426c4.3963165 -0.7716522 2.6220398 -2.312336 -9.175858 -8.097113c-13.56955 -6.629921 -16.577423 -7.0918636 -42.64041 -7.0918636z" fill-rule="evenodd"/><path fill="#ffffff" d="m170.90027 23.128609c-25.905518 0 -29.068253 0.46194267 -42.33072 7.015749c-7.86351 3.8556423 -14.803146 9.020998 -15.419945 11.412073c-0.6167984 2.3910751 -2.6220474 4.9343834 -4.317581 5.551182c-1.7742844 0.69553757 -3.9343872 4.6272964 -4.8582687 8.713909c-0.8110275 3.645668 -2.3307114 6.1706047 -3.5774307 6.1706047c-0.17584991 0 -0.34645844 -0.05249405 -0.5091858 -0.15748215c-2.2362213 -1.3884506 -1.6194229 -7.556431 1.7716522 -16.267715c1.3175888 -3.4750671 -5.3438263 -5.7270355 -13.679787 -5.7270355c-3.8740158 0 -8.110237 0.4855652 -12.073494 1.5616798c-10.71653 2.8530197 -25.674538 14.650921 -27.989498 21.89764c-0.92388535 2.776905 0.30971146 6.477688 2.9317589 9.254589c2.3884506 2.6220474 7.401573 8.711288 11.178474 13.569557c5.784775 7.480316 8.251968 8.868767 16.27034 8.868767c7.9422607 0 9.561684 0.8477707 10.254593 5.4724426c0.6167984 4.472435 4.4724426 6.7873993 21.4357 12.645668c19.123352 6.5538025 23.51706 7.170601 56.05774 7.3254547c0.8083954 0.002632141 1.6089325 0.005256653 2.3989563 0.005256653c36.59842 0 50.396317 -3.5301895 52.963257 -13.267723c0.8556366 -3.380577 1.1548462 -4.6430435 2.4934387 -4.6430435c0.82676697 0 2.0551147 0.48294067 4.060364 1.2519684c11.333328 4.317589 -1.4645691 20.509186 -19.89502 25.2126c-6.32283 1.6194153 -14.262466 4.010498 -17.580048 5.3989563c-3.3149567 1.3097076 -20.047241 3.2362213 -37.24147 4.317581c-17.118103 1.0026245 -31.769028 2.4671936 -32.538055 3.2388458c-0.77165985 0.7690277 -0.07874298 15.265091 1.6194229 32.15222c3.451439 35.553818 1.8346405 61.220474 -3.522316 61.220474c-0.62729645 0 -1.3044586 -0.35169983 -2.0314941 -1.0787354c-1.4645691 -1.3858337 -2.619423 -23.51706 -2.9291306 -53.973755c-0.3858261 -41.637787 -1.157486 -51.968506 -4.010498 -53.742783c-2.2782211 -1.4514389 -4.104988 -2.196846 -5.5406876 -2.196846c-2.8398895 0 -4.149605 2.916008 -4.4041977 9.060371c-0.8477707 17.501312 0.92388153 40.7874 3.3910751 43.795273c3.3175888 4.086609 1.4671936 57.367447 -2.1574783 61.761154c-1.8346481 2.178482 1.8241501 2.9501343 22.745407 2.9501343c7.233589 0 16.53019 -0.09187317 28.375328 -0.24934387c5.561676 -0.07350159 11.301834 -0.10762024 17.041992 -0.10762024c24.900269 0 49.803146 0.64567566 60.14174 1.6483002c12.7217865 1.1574707 24.364822 2.3149567 25.908127 2.545929c0.06562805 0.0052490234 0.12861633 0.007873535 0.19160461 0.007873535c1.4803162 0 2.097107 -1.7322845 1.5039368 -4.173233c-0.67715454 -2.5643005 -3.2021027 -4.2414703 -6.1968536 -4.2414703c-0.068237305 0 -0.1338501 0 -0.2020874 0.0026245117c-0.15223694 0.0026245117 -0.29922485 0.007873535 -0.443573 0.007873535c-4.178482 0 -5.27034 -2.3175812 -7.72966 -15.661407c-3.6246796 -19.740158 -4.086624 -45.414703 -1.3884583 -75.564316c1.6194305 -17.349075 1.3884583 -23.748024 -0.84776306 -25.59842c-1.6194305 -1.3884506 -2.7769012 -6.2467194 -2.545929 -10.795273c0.38581848 -8.020996 0.8503876 -8.404198 13.7270355 -11.026245c18.582672 -3.7795334 24.055115 -7.8661423 30.763763 -22.900269c5.7060547 -12.645668 5.78479 -13.262466 1.5433044 -17.889763c-8.677155 -9.653542 -25.871368 -15.451443 -42.816254 -15.451443c-5.7926636 0 -11.556442 0.677166 -16.94226 2.1128616c-1.8451538 0.47506714 -3.2335968 0.7270355 -4.254593 0.7270355c-1.7952728 0 -2.454071 -0.7821541 -2.454071 -2.5013123c0 -1.9265099 2.4671936 -3.9317589 5.475067 -4.4724426c4.3963165 -0.7716522 2.6220398 -2.312336 -9.175858 -8.097113c-13.56955 -6.629921 -16.577423 -7.0918636 -42.64041 -7.0918636z" fill-rule="evenodd"/><path fill="#ffffff" d="m170.90027 23.128609c-25.905518 0 -29.068253 0.46194267 -42.33072 7.015749c-7.86351 3.8556423 -14.803146 9.020998 -15.419945 11.412073c-0.6167984 2.3910751 -2.6220474 4.9343834 -4.317581 5.551182c-1.7742844 0.69553757 -3.9343872 4.6272964 -4.8582687 8.713909c-0.8110275 3.645668 -2.3307114 6.1706047 -3.5774307 6.1706047c-0.17584991 0 -0.34645844 -0.05249405 -0.5091858 -0.15748215c-2.2362213 -1.3884506 -1.6194229 -7.556431 1.7716522 -16.267715c1.3175888 -3.4750671 -5.3438263 -5.7270355 -13.679787 -5.7270355c-3.8740158 0 -8.110237 0.4855652 -12.073494 1.5616798c-10.71653 2.8530197 -25.674538 14.650921 -27.989498 21.89764c-0.92388535 2.776905 0.30971146 6.477688 2.9317589 9.254589c2.3884506 2.6220474 7.401573 8.711288 11.178474 13.569557c5.784775 7.480316 8.251968 8.868767 16.27034 8.868767c7.9422607 0 9.561684 0.8477707 10.254593 5.4724426c0.6167984 4.472435 4.4724426 6.7873993 21.4357 12.645668c19.123352 6.5538025 23.51706 7.170601 56.05774 7.3254547c0.8083954 0.002632141 1.6089325 0.005256653 2.3989563 0.005256653c36.59842 0 50.396317 -3.5301895 52.963257 -13.267723c0.8556366 -3.380577 1.1548462 -4.6430435 2.4934387 -4.6430435c0.82676697 0 2.0551147 0.48294067 4.060364 1.2519684c11.333328 4.317589 -1.4645691 20.509186 -19.89502 25.2126c-6.32283 1.6194153 -14.262466 4.010498 -17.580048 5.3989563c-3.3149567 1.3097076 -20.047241 3.2362213 -37.24147 4.317581c-17.118103 1.0026245 -31.769028 2.4671936 -32.538055 3.2388458c-0.77165985 0.7690277 -0.07874298 15.265091 1.6194229 32.15222c3.451439 35.553818 1.8346405 61.220474 -3.522316 61.220474c-0.62729645 0 -1.3044586 -0.35169983 -2.0314941 -1.0787354c-1.4645691 -1.3858337 -2.619423 -23.51706 -2.9291306 -53.973755c-0.3858261 -41.637787 -1.157486 -51.968506 -4.010498 -53.742783c-2.2782211 -1.4514389 -4.104988 -2.196846 -5.5406876 -2.196846c-2.8398895 0 -4.149605 2.916008 -4.4041977 9.060371c-0.8477707 17.501312 0.92388153 40.7874 3.3910751 43.795273c3.3175888 4.086609 1.4671936 57.367447 -2.1574783 61.761154c-1.8346481 2.178482 1.8241501 2.9501343 22.745407 2.9501343c7.233589 0 16.53019 -0.09187317 28.375328 -0.24934387c5.561676 -0.07350159 11.301834 -0.10762024 17.041992 -0.10762024c24.900269 0 49.803146 0.64567566 60.14174 1.6483002c12.7217865 1.1574707 24.364822 2.3149567 25.908127 2.545929c0.06562805 0.0052490234 0.12861633 0.007873535 0.19160461 0.007873535c1.4803162 0 2.097107 -1.7322845 1.5039368 -4.173233c-0.67715454 -2.5643005 -3.2021027 -4.2414703 -6.1968536 -4.2414703c-0.068237305 0 -0.1338501 0 -0.2020874 0.0026245117c-0.15223694 0.0026245117 -0.29922485 0.007873535 -0.443573 0.007873535c-4.178482 0 -5.27034 -2.3175812 -7.72966 -15.661407c-3.6246796 -19.740158 -4.086624 -45.414703 -1.3884583 -75.564316c1.6194305 -17.349075 1.3884583 -23.748024 -0.84776306 -25.59842c-1.6194305 -1.3884506 -2.7769012 -6.2467194 -2.545929 -10.795273c0.38581848 -8.020996 0.8503876 -8.404198 13.7270355 -11.026245c18.582672 -3.7795334 24.055115 -7.8661423 30.763763 -22.900269c5.7060547 -12.645668 5.78479 -13.262466 1.5433044 -17.889763c-8.677155 -9.653542 -25.871368 -15.451443 -42.816254 -15.451443c-5.7926636 0 -11.556442 0.677166 -16.94226 2.1128616c-1.8451538 0.47506714 -3.2335968 0.7270355 -4.254593 0.7270355c-1.7952728 0 -2.454071 -0.7821541 -2.454071 -2.5013123c0 -1.9265099 2.4671936 -3.9317589 5.475067 -4.4724426c4.3963165 -0.7716522 2.6220398 -2.312336 -9.175858 -8.097113c-13.56955 -6.629921 -16.577423 -7.0918636 -42.64041 -7.0918636z" fill-rule="evenodd"/><path fill="#ffffff" d="m170.90027 23.128609c-25.905518 0 -29.068253 0.46194267 -42.33072 7.015749c-7.86351 3.8556423 -14.803146 9.020998 -15.419945 11.412073c-0.6167984 2.3910751 -2.6220474 4.9343834 -4.317581 5.551182c-1.7742844 0.69553757 -3.9343872 4.6272964 -4.8582687 8.713909c-0.8110275 3.645668 -2.3307114 6.1706047 -3.5774307 6.1706047c-0.17584991 0 -0.34645844 -0.05249405 -0.5091858 -0.15748215c-2.2362213 -1.3884506 -1.6194229 -7.556431 1.7716522 -16.267715c1.3175888 -3.4750671 -5.3438263 -5.7270355 -13.679787 -5.7270355c-3.8740158 0 -8.110237 0.4855652 -12.073494 1.5616798c-10.71653 2.8530197 -25.674538 14.650921 -27.989498 21.89764c-0.92388535 2.776905 0.30971146 6.477688 2.9317589 9.254589c2.3884506 2.6220474 7.401573 8.711288 11.178474 13.569557c5.784775 7.480316 8.251968 8.868767 16.27034 8.868767c7.9422607 0 9.561684 0.8477707 10.254593 5.4724426c0.6167984 4.472435 4.4724426 6.7873993 21.4357 12.645668c19.123352 6.5538025 23.51706 7.170601 56.05774 7.3254547c0.8083954 0.002632141 1.6089325 0.005256653 2.3989563 0.005256653c36.59842 0 50.396317 -3.5301895 52.963257 -13.267723c0.8556366 -3.380577 1.1548462 -4.6430435 2.4934387 -4.6430435c0.82676697 0 2.0551147 0.48294067 4.060364 1.2519684c11.333328 4.317589 -1.4645691 20.509186 -19.89502 25.2126c-6.32283 1.6194153 -14.262466 4.010498 -17.580048 5.3989563c-3.3149567 1.3097076 -20.047241 3.2362213 -37.24147 4.317581c-17.118103 1.0026245 -31.769028 2.4671936 -32.538055 3.2388458c-0.77165985 0.7690277 -0.07874298 15.265091 1.6194229 32.15222c3.451439 35.553818 1.8346405 61.220474 -3.522316 61.220474c-0.62729645 0 -1.3044586 -0.35169983 -2.0314941 -1.0787354c-1.4645691 -1.3858337 -2.619423 -23.51706 -2.9291306 -53.973755c-0.3858261 -41.637787 -1.157486 -51.968506 -4.010498 -53.742783c-2.2782211 -1.4514389 -4.104988 -2.196846 -5.5406876 -2.196846c-2.8398895 0 -4.149605 2.916008 -4.4041977 9.060371c-0.8477707 17.501312 0.92388153 40.7874 3.3910751 43.795273c3.3175888 4.086609 1.4671936 57.367447 -2.1574783 61.761154c-1.8346481 2.178482 1.8241501 2.9501343 22.745407 2.9501343c7.233589 0 16.53019 -0.09187317 28.375328 -0.24934387c5.561676 -0.07350159 11.301834 -0.10762024 17.041992 -0.10762024c24.900269 0 49.803146 0.64567566 60.14174 1.6483002c12.7217865 1.1574707 24.364822 2.3149567 25.908127 2.545929c0.06562805 0.0052490234 0.12861633 0.007873535 0.19160461 0.007873535c1.4803162 0 2.097107 -1.7322845 1.5039368 -4.173233c-0.67715454 -2.5643005 -3.2021027 -4.2414703 -6.1968536 -4.2414703c-0.068237305 0 -0.1338501 0 -0.2020874 0.0026245117c-0.15223694 0.0026245117 -0.29922485 0.007873535 -0.443573 0.007873535c-4.178482 0 -5.27034 -2.3175812 -7.72966 -15.661407c-3.6246796 -19.740158 -4.086624 -45.414703 -1.3884583 -75.564316c1.6194305 -17.349075 1.3884583 -23.748024 -0.84776306 -25.59842c-1.6194305 -1.3884506 -2.7769012 -6.2467194 -2.545929 -10.795273c0.38581848 -8.020996 0.8503876 -8.404198 13.7270355 -11.026245c18.582672 -3.7795334 24.055115 -7.8661423 30.763763 -22.900269c5.7060547 -12.645668 5.78479 -13.262466 1.5433044 -17.889763c-8.677155 -9.653542 -25.871368 -15.451443 -42.816254 -15.451443c-5.7926636 0 -11.556442 0.677166 -16.94226 2.1128616c-1.8451538 0.47506714 -3.2335968 0.7270355 -4.254593 0.7270355c-1.7952728 0 -2.454071 -0.7821541 -2.454071 -2.5013123c0 -1.9265099 2.4671936 -3.9317589 5.475067 -4.4724426c4.3963165 -0.7716522 2.6220398 -2.312336 -9.175858 -8.097113c-13.56955 -6.629921 -16.577423 -7.0918636 -42.64041 -7.0918636z" fill-rule="evenodd"/><path fill="#ffffff" d="m170.90027 23.128609c-25.905518 0 -29.068253 0.46194267 -42.33072 7.015749c-7.86351 3.8556423 -14.803146 9.020998 -15.419945 11.412073c-0.6167984 2.3910751 -2.6220474 4.9343834 -4.317581 5.551182c-1.7742844 0.69553757 -3.9343872 4.6272964 -4.8582687 8.713909c-0.8110275 3.645668 -2.3307114 6.1706047 -3.5774307 6.1706047c-0.17584991 0 -0.34645844 -0.05249405 -0.5091858 -0.15748215c-2.2362213 -1.3884506 -1.6194229 -7.556431 1.7716522 -16.267715c1.3175888 -3.4750671 -5.3438263 -5.7270355 -13.679787 -5.7270355c-3.8740158 0 -8.110237 0.4855652 -12.073494 1.5616798c-10.71653 2.8530197 -25.674538 14.650921 -27.989498 21.89764c-0.92388535 2.776905 0.30971146 6.477688 2.9317589 9.254589c2.3884506 2.6220474 7.401573 8.711288 11.178474 13.569557c5.784775 7.480316 8.251968 8.868767 16.27034 8.868767c7.9422607 0 9.561684 0.8477707 10.254593 5.4724426c0.6167984 4.472435 4.4724426 6.7873993 21.4357 12.645668c19.123352 6.5538025 23.51706 7.170601 56.05774 7.3254547c0.8083954 0.002632141 1.6089325 0.005256653 2.3989563 0.005256653c36.59842 0 50.396317 -3.5301895 52.963257 -13.267723c0.8556366 -3.380577 1.1548462 -4.6430435 2.4934387 -4.6430435c0.82676697 0 2.0551147 0.48294067 4.060364 1.2519684c11.333328 4.317589 -1.4645691 20.509186 -19.89502 25.2126c-6.32283 1.6194153 -14.262466 4.010498 -17.580048 5.3989563c-3.3149567 1.3097076 -20.047241 3.2362213 -37.24147 4.317581c-17.118103 1.0026245 -31.769028 2.4671936 -32.538055 3.2388458c-0.77165985 0.7690277 -0.07874298 15.265091 1.6194229 32.15222c3.451439 35.553818 1.8346405 61.220474 -3.522316 61.220474c-0.62729645 0 -1.3044586 -0.35169983 -2.0314941 -1.0787354c-1.4645691 -1.3858337 -2.619423 -23.51706 -2.9291306 -53.973755c-0.3858261 -41.637787 -1.157486 -51.968506 -4.010498 -53.742783c-2.2782211 -1.4514389 -4.104988 -2.196846 -5.5406876 -2.196846c-2.8398895 0 -4.149605 2.916008 -4.4041977 9.060371c-0.8477707 17.501312 0.92388153 40.7874 3.3910751 43.795273c3.3175888 4.086609 1.4671936 57.367447 -2.1574783 61.761154c-1.8346481 2.178482 1.8241501 2.9501343 22.745407 2.9501343c7.233589 0 16.53019 -0.09187317 28.375328 -0.24934387c5.561676 -0.07350159 11.301834 -0.10762024 17.041992 -0.10762024c24.900269 0 49.803146 0.64567566 60.14174 1.6483002c12.7217865 1.1574707 24.364822 2.3149567 25.908127 2.545929c0.06562805 0.0052490234 0.12861633 0.007873535 0.19160461 0.007873535c1.4803162 0 2.097107 -1.7322845 1.5039368 -4.173233c-0.67715454 -2.5643005 -3.2021027 -4.2414703 -6.1968536 -4.2414703c-0.068237305 0 -0.1338501 0 -0.2020874 0.0026245117c-0.15223694 0.0026245117 -0.29922485 0.007873535 -0.443573 0.007873535c-4.178482 0 -5.27034 -2.3175812 -7.72966 -15.661407c-3.6246796 -19.740158 -4.086624 -45.414703 -1.3884583 -75.564316c1.6194305 -17.349075 1.3884583 -23.748024 -0.84776306 -25.59842c-1.6194305 -1.3884506 -2.7769012 -6.2467194 -2.545929 -10.795273c0.38581848 -8.020996 0.8503876 -8.404198 13.7270355 -11.026245c18.582672 -3.7795334 24.055115 -7.8661423 30.763763 -22.900269c5.7060547 -12.645668 5.78479 -13.262466 1.5433044 -17.889763c-8.677155 -9.653542 -25.871368 -15.451443 -42.816254 -15.451443c-5.7926636 0 -11.556442 0.677166 -16.94226 2.1128616c-1.8451538 0.47506714 -3.2335968 0.7270355 -4.254593 0.7270355c-1.7952728 0 -2.454071 -0.7821541 -2.454071 -2.5013123c0 -1.9265099 2.4671936 -3.9317589 5.475067 -4.4724426c4.3963165 -0.7716522 2.6220398 -2.312336 -9.175858 -8.097113c-13.56955 -6.629921 -16.577423 -7.0918636 -42.64041 -7.0918636z" fill-rule="evenodd"/><path fill="#ffd8d8" d="m170.90027 23.128609c-25.905518 0 -29.068253 0.46194267 -42.33072 7.015749c-7.86351 3.8556423 -14.803146 9.020998 -15.419945 11.412073c-0.6167984 2.3910751 -2.6220474 4.9343834 -4.317581 5.551182c-1.7742844 0.69553757 -3.9343872 4.6272964 -4.8582687 8.713909c-0.8110275 3.645668 -2.3307114 6.1706047 -3.5774307 6.1706047c-0.17584991 0 -0.34645844 -0.05249405 -0.5091858 -0.15748215c-2.2362213 -1.3884506 -1.6194229 -7.556431 1.7716522 -16.267715c1.3175888 -3.4750671 -5.3438263 -5.7270355 -13.679787 -5.7270355c-3.8740158 0 -8.110237 0.4855652 -12.073494 1.5616798c-10.71653 2.8530197 -25.674538 14.650921 -27.989498 21.89764c-0.92388535 2.776905 0.30971146 6.477688 2.9317589 9.254589c2.3884506 2.6220474 7.401573 8.711288 11.178474 13.569557c5.784775 7.480316 8.251968 8.868767 16.27034 8.868767c7.9422607 0 9.561684 0.8477707 10.254593 5.4724426c0.6167984 4.472435 4.4724426 6.7873993 21.4357 12.645668c19.123352 6.5538025 23.51706 7.170601 56.05774 7.3254547c0.8083954 0.002632141 1.6089325 0.005256653 2.3989563 0.005256653c36.59842 0 50.396317 -3.5301895 52.963257 -13.267723c0.8556366 -3.380577 1.1548462 -4.6430435 2.4934387 -4.6430435c0.82676697 0 2.0551147 0.48294067 4.060364 1.2519684c11.333328 4.317589 -1.4645691 20.509186 -19.89502 25.2126c-6.32283 1.6194153 -14.262466 4.010498 -17.580048 5.3989563c-3.3149567 1.3097076 -20.047241 3.2362213 -37.24147 4.317581c-17.118103 1.0026245 -31.769028 2.4671936 -32.538055 3.2388458c-0.77165985 0.7690277 -0.07874298 15.265091 1.6194229 32.15222c3.451439 35.553818 1.8346405 61.220474 -3.522316 61.220474c-0.62729645 0 -1.3044586 -0.35169983 -2.0314941 -1.0787354c-1.4645691 -1.3858337 -2.619423 -23.51706 -2.9291306 -53.973755c-0.3858261 -41.637787 -1.157486 -51.968506 -4.010498 -53.742783c-2.2782211 -1.4514389 -4.104988 -2.196846 -5.5406876 -2.196846c-2.8398895 0 -4.149605 2.916008 -4.4041977 9.060371c-0.8477707 17.501312 0.92388153 40.7874 3.3910751 43.795273c3.3175888 4.086609 1.4671936 57.367447 -2.1574783 61.761154c-1.8346481 2.178482 1.8241501 2.9501343 22.745407 2.9501343c7.233589 0 16.53019 -0.09187317 28.375328 -0.24934387c5.561676 -0.07350159 11.301834 -0.10762024 17.041992 -0.10762024c24.900269 0 49.803146 0.64567566 60.14174 1.6483002c12.7217865 1.1574707 24.364822 2.3149567 25.908127 2.545929c0.06562805 0.0052490234 0.12861633 0.007873535 0.19160461 0.007873535c1.4803162 0 2.097107 -1.7322845 1.5039368 -4.173233c-0.67715454 -2.5643005 -3.2021027 -4.2414703 -6.1968536 -4.2414703c-0.068237305 0 -0.1338501 0 -0.2020874 0.0026245117c-0.15223694 0.0026245117 -0.29922485 0.007873535 -0.443573 0.007873535c-4.178482 0 -5.27034 -2.3175812 -7.72966 -15.661407c-3.6246796 -19.740158 -4.086624 -45.414703 -1.3884583 -75.564316c1.6194305 -17.349075 1.3884583 -23.748024 -0.84776306 -25.59842c-1.6194305 -1.3884506 -2.7769012 -6.2467194 -2.545929 -10.795273c0.38581848 -8.020996 0.8503876 -8.404198 13.7270355 -11.026245c18.582672 -3.7795334 24.055115 -7.8661423 30.763763 -22.900269c5.7060547 -12.645668 5.78479 -13.262466 1.5433044 -17.889763c-8.677155 -9.653542 -25.871368 -15.451443 -42.816254 -15.451443c-5.7926636 0 -11.556442 0.677166 -16.94226 2.1128616c-1.8451538 0.47506714 -3.2335968 0.7270355 -4.254593 0.7270355c-1.7952728 0 -2.454071 -0.7821541 -2.454071 -2.5013123c0 -1.9265099 2.4671936 -3.9317589 5.475067 -4.4724426c4.3963165 -0.7716522 2.6220398 -2.312336 -9.175858 -8.097113c-13.56955 -6.629921 -16.577423 -7.0918636 -42.64041 -7.0918636z" fill-rule="evenodd"/><path fill="#000000" d="m518.7094 141.41719c-9.9869995 0 -18.213196 7.6392517 -18.213196 18.215439l0 330.22107c0 10.576202 8.226196 18.802368 18.213196 18.802368l257.36157 0c9.989258 0 18.215454 -8.226166 18.215454 -18.802368l0 -238.5592l-101.06421 -9.40007l-8.81311 -100.477234z" fill-rule="evenodd"/><path fill="#e4e4e4" d="m518.7094 141.41719c-9.9869995 0 -18.213196 7.6392517 -18.213196 18.215439l0 330.22107c0 10.576202 8.226196 18.802368 18.213196 18.802368l257.36157 0c9.989258 0 18.215454 -8.226166 18.215454 -18.802368l0 -238.5592l-101.06421 -9.40007l-8.81311 -100.477234z" fill-rule="evenodd"/><path fill="#000000" d="m684.4091 148.46724l0 91.66411c0 10.576202 7.637024 18.802368 18.213196 18.802368l91.66412 0l-109.87732 -110.46648z" fill-rule="evenodd"/><path fill="#fafafa" d="m684.4091 141.41719l0 91.661865c0 9.989258 7.637024 18.215439 18.213196 18.215439l91.66412 0l-109.87732 -109.877304z" fill-rule="evenodd"/><path fill="#d74c4c" d="m588.63196 368.811l0 58.75714l14.68927 0l0 -32.31552l14.691528 23.50241l14.68927 -23.50241l0 32.31552l14.689331 0l0 -58.75714l-14.689331 0l-14.68927 23.50241l-14.691528 -23.50241zm88.13794 0l0 29.37857l-14.68927 0l14.68927 29.37857l14.68927 0l14.689331 -29.37857l-14.689331 0l0 -29.37857zm44.06787 -14.68927l0 88.13797l-146.89514 0l0 -88.13797zm-146.89514 -14.689301c-8.226135 0 -14.68927 7.6392517 -14.68927 14.689301l0 88.13797c0 7.636963 6.463135 14.68927 14.68927 14.68927l146.89514 0c8.226196 0 14.68927 -7.052307 14.68927 -14.68927l0 -88.13797c0 -7.050049 -6.4630737 -14.689301 -14.68927 -14.689301z" fill-rule="evenodd"/><path fill="#ffffff" d="m518.7094 141.41719c-9.9869995 0 -18.213196 7.6392517 -18.213196 18.215439l0 7.050049c0 -9.989258 8.226196 -18.215439 18.213196 -18.215439l165.6997 0l0 -7.050049z" fill-rule="evenodd"/><g filter="url(#shadowFilter-p.1)"><use xlink:href="#p.1" transform="matrix(1.0 0.0 0.0 1.0 0.0 2.0)"/></g><defs><filter id="shadowFilter-p.1" filterUnits="userSpaceOnUse"><feGaussianBlur in="SourceAlpha" stdDeviation="2.0" result="blur"/><feComponentTransfer in="blur" color-interpolation-filters="sRGB"><feFuncR type="linear" slope="0" intercept="0.0"/><feFuncG type="linear" slope="0" intercept="0.0"/><feFuncB type="linear" slope="0" intercept="0.0"/><feFuncA type="linear" slope="0.5" intercept="0"/></feComponentTransfer></filter></defs><g id="p.1"><path fill="#fce5cd" d="m500.04037 121.73782l0 -51.795273l0 0c0 -28.60574 65.96573 -51.795273 147.3386 -51.795273c81.3728 0 147.33856 23.189535 147.33856 51.795273l0 51.795273z" fill-rule="evenodd"/><path stroke="#000000" stroke-width="1.0" stroke-linejoin="round" stroke-linecap="butt" d="m500.04037 121.73782l0 -51.795273l0 0c0 -28.60574 65.96573 -51.795273 147.3386 -51.795273c81.3728 0 147.33856 23.189535 147.33856 51.795273l0 51.795273z" fill-rule="evenodd"/></g><path fill="#000000" fill-opacity="0.0" d="m544.2887 48.88714l206.20471 0l0 67.62205l-206.20471 0z" fill-rule="evenodd"/><path fill="#000000" d="m605.8183 83.48714l0 -19.078125l2.515625 0l0 7.828125l9.921875 0l0 -7.828125l2.53125 0l0 19.078125l-2.53125 0l0 -9.0l-9.921875 0l0 9.0l-2.515625 0zm28.32843 -4.453125l2.421875 0.296875q-0.578125 2.125 -2.125 3.296875q-1.546875 1.171875 -3.953125 1.171875q-3.03125 0 -4.8125 -1.859375q-1.78125 -1.875 -1.78125 -5.25q0 -3.484375 1.796875 -5.40625q1.796875 -1.9375 4.671875 -1.9375q2.765625 0 4.515625 1.890625q1.765625 1.890625 1.765625 5.3125q0 0.203125 -0.015625 0.625l-10.3125 0q0.140625 2.28125 1.296875 3.5q1.15625 1.203125 2.890625 1.203125q1.28125 0 2.1875 -0.671875q0.921875 -0.6875 1.453125 -2.171875zm-7.6875 -3.78125l7.71875 0q-0.15625 -1.75 -0.890625 -2.625q-1.125 -1.34375 -2.90625 -1.34375q-1.609375 0 -2.71875 1.078125q-1.09375 1.078125 -1.203125 2.890625zm22.074951 6.53125q-1.3125 1.109375 -2.515625 1.5625q-1.203125 0.453125 -2.578125 0.453125q-2.28125 0 -3.5 -1.109375q-1.21875 -1.109375 -1.21875 -2.84375q0 -1.015625 0.453125 -1.859375q0.46875 -0.84375 1.21875 -1.34375q0.75 -0.515625 1.6875 -0.765625q0.6875 -0.1875 2.078125 -0.359375q2.828125 -0.328125 4.171875 -0.796875q0.015625 -0.484375 0.015625 -0.625q0 -1.421875 -0.65625 -2.015625q-0.90625 -0.796875 -2.671875 -0.796875q-1.65625 0 -2.453125 0.59375q-0.78125 0.578125 -1.15625 2.046875l-2.296875 -0.3125q0.3125 -1.46875 1.03125 -2.375q0.71875 -0.90625 2.0625 -1.390625q1.359375 -0.5 3.140625 -0.5q1.78125 0 2.875 0.421875q1.109375 0.421875 1.625 1.046875q0.53125 0.625 0.734375 1.59375q0.125 0.59375 0.125 2.15625l0 3.125q0 3.265625 0.140625 4.140625q0.15625 0.859375 0.59375 1.65625l-2.4375 0q-0.375 -0.734375 -0.46875 -1.703125zm-0.203125 -5.234375q-1.265625 0.515625 -3.828125 0.890625q-1.4375 0.203125 -2.046875 0.46875q-0.59375 0.25 -0.921875 0.75q-0.3125 0.5 -0.3125 1.125q0 0.9375 0.703125 1.5625q0.703125 0.625 2.078125 0.625q1.34375 0 2.390625 -0.59375q1.0625 -0.59375 1.5625 -1.625q0.375 -0.796875 0.375 -2.34375l0 -0.859375zm14.965576 6.9375l0 -1.75q-1.3125 2.0625 -3.859375 2.0625q-1.65625 0 -3.046875 -0.90625q-1.375 -0.921875 -2.140625 -2.546875q-0.765625 -1.640625 -0.765625 -3.75q0 -2.078125 0.6875 -3.765625q0.703125 -1.6875 2.078125 -2.578125q1.375 -0.90625 3.078125 -0.90625q1.25 0 2.21875 0.53125q0.984375 0.53125 1.59375 1.375l0 -6.84375l2.34375 0l0 19.078125l-2.1875 0zm-7.40625 -6.890625q0 2.640625 1.125 3.96875q1.125 1.3125 2.640625 1.3125q1.53125 0 2.609375 -1.25q1.078125 -1.265625 1.078125 -3.84375q0 -2.84375 -1.09375 -4.171875q-1.09375 -1.328125 -2.703125 -1.328125q-1.546875 0 -2.609375 1.28125q-1.046875 1.28125 -1.046875 4.03125zm22.73114 2.4375l2.421875 0.296875q-0.578125 2.125 -2.125 3.296875q-1.546875 1.171875 -3.953125 1.171875q-3.03125 0 -4.8125 -1.859375q-1.78125 -1.875 -1.78125 -5.25q0 -3.484375 1.796875 -5.40625q1.796875 -1.9375 4.671875 -1.9375q2.765625 0 4.515625 1.890625q1.765625 1.890625 1.765625 5.3125q0 0.203125 -0.015625 0.625l-10.3125 0q0.140625 2.28125 1.296875 3.5q1.15625 1.203125 2.890625 1.203125q1.28125 0 2.1875 -0.671875q0.921875 -0.6875 1.453125 -2.171875zm-7.6875 -3.78125l7.71875 0q-0.15625 -1.75 -0.890625 -2.625q-1.125 -1.34375 -2.90625 -1.34375q-1.609375 0 -2.71875 1.078125q-1.09375 1.078125 -1.203125 2.890625zm13.028076 8.234375l0 -13.828125l2.109375 0l0 2.09375q0.796875 -1.46875 1.484375 -1.9375q0.6875 -0.46875 1.5 -0.46875q1.1875 0 2.40625 0.765625l-0.796875 2.171875q-0.859375 -0.515625 -1.71875 -0.515625q-0.765625 0 -1.390625 0.46875q-0.609375 0.453125 -0.859375 1.28125q-0.390625 1.25 -0.390625 2.734375l0 7.234375l-2.34375 0z" fill-rule="nonzero"/><g filter="url(#shadowFilter-p.2)"><use xlink:href="#p.2" transform="matrix(1.0 0.0 0.0 1.0 0.0 2.0)"/></g><defs><filter id="shadowFilter-p.2" filterUnits="userSpaceOnUse"><feGaussianBlur in="SourceAlpha" stdDeviation="2.0" result="blur"/><feComponentTransfer in="blur" color-interpolation-filters="sRGB"><feFuncR type="linear" slope="0" intercept="0.0"/><feFuncG type="linear" slope="0" intercept="0.0"/><feFuncB type="linear" slope="0" intercept="0.0"/><feFuncA type="linear" slope="0.5" intercept="0"/></feComponentTransfer></filter></defs><g id="p.2"><path fill="#fce5cd" d="m794.73065 528.33624l0 51.795288l0 0c0 28.605713 -65.96576 51.795288 -147.33856 51.795288c-81.37286 0 -147.3386 -23.189575 -147.3386 -51.795288l0 -51.795288z" fill-rule="evenodd"/><path stroke="#000000" stroke-width="1.0" stroke-linejoin="round" stroke-linecap="butt" d="m794.73065 528.33624l0 51.795288l0 0c0 28.605713 -65.96576 51.795288 -147.33856 51.795288c-81.37286 0 -147.3386 -23.189575 -147.3386 -51.795288l0 -51.795288z" fill-rule="evenodd"/></g><g filter="url(#shadowFilter-p.3)"><use xlink:href="#p.3" transform="matrix(1.0 0.0 0.0 1.0 0.0 2.0)"/></g><defs><filter id="shadowFilter-p.3" filterUnits="userSpaceOnUse"><feGaussianBlur in="SourceAlpha" stdDeviation="2.0" result="blur"/><feComponentTransfer in="blur" color-interpolation-filters="sRGB"><feFuncR type="linear" slope="0" intercept="0.0"/><feFuncG type="linear" slope="0" intercept="0.0"/><feFuncB type="linear" slope="0" intercept="0.0"/><feFuncA type="linear" slope="0.5" intercept="0"/></feComponentTransfer></filter></defs><g id="p.3"><path fill="#b6d7a8" d="m364.80054 219.18373l0 -47.7126c0 -24.00264 19.457977 -43.460632 43.460632 -43.460632l31.043304 0l0 -12.41732l24.834625 24.834648l-24.834625 24.83464l0 -12.417328l-31.043304 0l0 0c-10.286865 0 -18.626007 8.339142 -18.626007 18.625992l0 47.7126z" fill-rule="evenodd"/><path stroke="#000000" stroke-width="1.0" stroke-linejoin="round" stroke-linecap="butt" d="m364.80054 219.18373l0 -47.7126c0 -24.00264 19.457977 -43.460632 43.460632 -43.460632l31.043304 0l0 -12.41732l24.834625 24.834648l-24.834625 24.83464l0 -12.417328l-31.043304 0l0 0c-10.286865 0 -18.626007 8.339142 -18.626007 18.625992l0 47.7126z" fill-rule="evenodd"/></g><path fill="#b6d7a8" d="m364.80054 437.13647l0 47.712616c0 24.002625 19.457977 43.4606 43.460632 43.4606l31.043304 0l0 12.417358l24.834625 -24.834656l-24.834625 -24.834656l0 12.417328l-31.043304 0l0 0c-10.286865 0 -18.626007 -8.339142 -18.626007 -18.625977l0 -47.712616z" fill-rule="evenodd"/><path stroke="#000000" stroke-width="1.0" stroke-linejoin="round" stroke-linecap="butt" d="m364.80054 437.13647l0 47.712616c0 24.002625 19.457977 43.4606 43.460632 43.4606l31.043304 0l0 12.417358l24.834625 -24.834656l-24.834625 -24.834656l0 12.417328l-31.043304 0l0 0c-10.286865 0 -18.626007 -8.339142 -18.626007 -18.625977l0 -47.712616z" fill-rule="evenodd"/><path fill="#000000" fill-opacity="0.0" d="m544.2887 546.3202l206.20471 0l0 67.62207l-206.20471 0z" fill-rule="evenodd"/><path fill="#000000" d="m611.0585 580.9202l0 -19.078125l12.875 0l0 2.25l-10.34375 0l0 5.90625l8.953125 0l0 2.25l-8.953125 0l0 8.671875l-2.53125 0zm14.98584 -6.90625q0 -3.84375 2.125 -5.6875q1.78125 -1.546875 4.34375 -1.546875q2.859375 0 4.65625 1.875q1.8125 1.859375 1.8125 5.15625q0 2.671875 -0.796875 4.203125q-0.796875 1.53125 -2.328125 2.375q-1.53125 0.84375 -3.34375 0.84375q-2.890625 0 -4.6875 -1.859375q-1.78125 -1.859375 -1.78125 -5.359375zm2.40625 0q0 2.65625 1.15625 3.984375q1.15625 1.3125 2.90625 1.3125q1.75 0 2.90625 -1.328125q1.15625 -1.328125 1.15625 -4.046875q0 -2.5625 -1.171875 -3.890625q-1.15625 -1.328125 -2.890625 -1.328125q-1.75 0 -2.90625 1.328125q-1.15625 1.3125 -1.15625 3.96875zm12.418701 0q0 -3.84375 2.125 -5.6875q1.78125 -1.546875 4.34375 -1.546875q2.859375 0 4.65625 1.875q1.8125 1.859375 1.8125 5.15625q0 2.671875 -0.796875 4.203125q-0.796875 1.53125 -2.328125 2.375q-1.53125 0.84375 -3.34375 0.84375q-2.890625 0 -4.6875 -1.859375q-1.78125 -1.859375 -1.78125 -5.359375zm2.40625 0q0 2.65625 1.15625 3.984375q1.15625 1.3125 2.90625 1.3125q1.75 0 2.90625 -1.328125q1.15625 -1.328125 1.15625 -4.046875q0 -2.5625 -1.171875 -3.890625q-1.15625 -1.328125 -2.890625 -1.328125q-1.75 0 -2.90625 1.328125q-1.15625 1.3125 -1.15625 3.96875zm18.403015 4.8125l0.328125 2.0625q-0.984375 0.21875 -1.765625 0.21875q-1.265625 0 -1.96875 -0.40625q-0.703125 -0.40625 -1.0 -1.0625q-0.28125 -0.65625 -0.28125 -2.765625l0 -7.953125l-1.71875 0l0 -1.828125l1.71875 0l0 -3.421875l2.328125 -1.40625l0 4.828125l2.359375 0l0 1.828125l-2.359375 0l0 8.078125q0 1.0 0.125 1.296875q0.125 0.28125 0.40625 0.453125q0.28125 0.171875 0.796875 0.171875q0.390625 0 1.03125 -0.09375zm11.749756 -2.359375l2.421875 0.296875q-0.578125 2.125 -2.125 3.296875q-1.546875 1.171875 -3.953125 1.171875q-3.03125 0 -4.8125 -1.859375q-1.78125 -1.875 -1.78125 -5.25q0 -3.484375 1.796875 -5.40625q1.796875 -1.9375 4.671875 -1.9375q2.765625 0 4.515625 1.890625q1.765625 1.890625 1.765625 5.3125q0 0.203125 -0.015625 0.625l-10.3125 0q0.140625 2.28125 1.296875 3.5q1.15625 1.203125 2.890625 1.203125q1.28125 0 2.1875 -0.671875q0.921875 -0.6875 1.453125 -2.171875zm-7.6875 -3.78125l7.71875 0q-0.15625 -1.75 -0.890625 -2.625q-1.125 -1.34375 -2.90625 -1.34375q-1.609375 0 -2.71875 1.078125q-1.09375 1.078125 -1.203125 2.890625zm13.028015 8.234375l0 -13.828125l2.109375 0l0 2.09375q0.796875 -1.46875 1.484375 -1.9375q0.6875 -0.46875 1.5 -0.46875q1.1875 0 2.40625 0.765625l-0.796875 2.171875q-0.859375 -0.515625 -1.71875 -0.515625q-0.765625 0 -1.390625 0.46875q-0.609375 0.453125 -0.859375 1.28125q-0.390625 1.25 -0.390625 2.734375l0 7.234375l-2.34375 0z" fill-rule="nonzero"/></g></svg>