<svg version="1.1" viewBox="0.0 0.0 835.5695538057743 1196.6981627296589" fill="none" stroke="none" stroke-linecap="square" stroke-miterlimit="10" xmlns:xlink="http://www.w3.org/1999/xlink" xmlns="http://www.w3.org/2000/svg"><clipPath id="p.0"><path d="m0 0l835.5696 0l0 1196.6981l-835.5696 0l0 -1196.6981z" clip-rule="nonzero"/></clipPath><g clip-path="url(#p.0)"><path fill="#000000" fill-opacity="0.0" d="m0 0l835.5696 0l0 1196.6981l-835.5696 0z" fill-rule="evenodd"/><path fill="#ff4088" d="m198.88715 497.5315l110.26245 64.15222c13.1076355 7.5564575 21.128632 21.51184 21.128632 36.624695l0 131.54327c0 16.656189 -9.023621 32.07611 -23.595825 40.24939l-109.41469 61.684998c-14.572174 8.173218 -32.307083 8.097107 -46.72441 -0.23095703l-100.779526 -58.060364c-15.884514 -9.099731 -25.598425 -25.984253 -25.598425 -44.259827l0 -124.758545c0 -18.427795 9.482939 -35.467163 25.136484 -45.107605l99.081375 -61.14438c15.419937 -9.561676 34.853012 -9.792633 50.503937 -0.6929016z" fill-rule="evenodd"/><path stroke="#c9177e" stroke-width="25.984251968503937" stroke-miterlimit="29.3775" stroke-linecap="butt" d="m198.88715 497.5315l110.26245 64.15222c13.1076355 7.5564575 21.128632 21.51184 21.128632 36.624695l0 131.54327c0 16.656189 -9.023621 32.07611 -23.595825 40.24939l-109.41469 61.684998c-14.572174 8.173218 -32.307083 8.097107 -46.72441 -0.23095703l-100.779526 -58.060364c-15.884514 -9.099731 -25.598425 -25.984253 -25.598425 -44.259827l0 -124.758545c0 -18.427795 9.482939 -35.467163 25.136484 -45.107605l99.081375 -61.14438c15.419937 -9.561676 34.853012 -9.792633 50.503937 -0.6929016z" fill-rule="evenodd"/><path fill="#ffffff" d="m100.65354 563.6102l0 199.70605l41.792656 0l0 -87.28345l69.31758 0l0 87.28345l41.94751 0l0 -199.70605l-41.94751 0l0 72.79004l-69.31758 0l0 -72.79004zm816.5564 -3.3910522c-26.910767 0 -53.049866 11.102356 -70.62988 28.065613c-20.047241 19.50653 -31.304504 45.64563 -31.304504 75.8714c0 30.766357 14.65094 58.293945 34.774292 76.10498c18.196838 16.039368 39.170593 25.29132 65.15485 25.29132c28.454102 0 51.275574 -7.6325684 68.548584 -26.601074c17.194214 -18.968506 25.829407 -32.230957 25.829407 -77.648254l0 -0.07611084l0 -6.708679l-89.21002 0l0 36.16272l46.955383 0c0 13.624695 -25.05774 37.93701 -48.810974 37.93701c-1.5223389 0 -3.0394287 -0.099731445 -4.5459595 -0.30706787c-47.57483 -6.708679 -57.443542 -43.026245 -58.753296 -64.15485c-2.4330444 -37.304504 29.351746 -65.3255 58.682434 -65.3255c0.43566895 0 0.8713989 0.0052490234 1.3044434 0.018371582c26.834656 0.76904297 45.648315 8.86615 58.601074 33.0l30.611511 -25.829346c-20.818848 -30.456726 -54.66925 -45.800537 -87.20734 -45.800537zm365.86877 0c-56.595825 0 -102.62732 45.955383 -102.62732 102.62726c0 56.67456 46.031494 102.706055 102.62732 102.706055c56.67456 0 102.706055 -46.031494 102.706055 -102.706055c0 -56.671875 -46.031494 -102.62726 -102.706055 -102.62726zm-815.7848 9.868774l0 106.4068c0 22.359558 1.2335815 39.246704 3.7795105 50.658813c1.6955566 7.7112427 5.24411 15.112854 10.640411 22.128601c5.396332 7.0944824 12.800537 12.800537 22.05252 17.194214c9.330688 4.3963013 22.97638 6.5564575 41.020996 6.5564575c14.881897 0 26.986877 -2.005249 36.23883 -6.015747c9.330688 -4.010498 16.7323 -9.482971 22.207336 -16.270386c5.5512085 -6.78479 9.3307495 -15.188965 11.412109 -25.05774c2.0813599 -9.871399 3.0839844 -26.834656 3.0839844 -50.81366l0 -104.78735l-40.711304 0l0 110.41467c0 15.7323 -1.8530273 27.065613 -3.0078735 33.850403c-1.0787354 6.8635254 -4.3963013 11.257202 -9.868774 15.960632c-5.4750366 4.70343 -9.099731 6.322815 -19.89502 6.322815c-10.640381 0 -17.811035 -1.3858032 -23.979004 -6.322815c-6.091858 -4.934387 -9.099731 -10.640442 -10.795258 -18.81366c-0.9265137 -5.0892334 -1.3884583 -16.19159 -1.3884583 -33.309692l0 -108.102356z" fill-rule="evenodd"/><path fill="#ffffff" d="m132.82677 414.40814c-0.03149414 0 -0.06298828 0 -0.09710693 0.0026245117c-1.3858337 0.07611084 -2.4671936 1.771637 -2.4671936 3.8530273c-0.07611084 0 -0.15223694 0.07873535 -0.46194458 0.15484619c-0.14959717 0.041992188 -0.31233215 0.06036377 -0.4855652 0.06036377c-1.4409409 0 -3.5905457 -1.330719 -4.1417313 -2.2966003c0 0 0 0 0 -0.07611084c-0.5091858 -0.94750977 -1.291336 -1.5485535 -2.1574783 -1.5485535c-0.049865723 0 -0.10236359 0.0026245117 -0.15485382 0.0052490234c-0.15485382 0 -0.30709076 0.07873535 -0.46194458 0.07873535c-1.0026245 0 -2.005249 0.92388916 -2.6220474 2.6981812c-0.69290924 1.7742615 -0.8477707 4.241455 -0.92650604 6.7086487c-0.3858261 26.1391 3.3936996 45.338593 -0.15222931 83.81366c0.15222931 2.3910828 0.46193695 5.089203 1.0026245 7.32547c0.6167984 2.1600952 1.4645615 3.8556519 2.467186 4.548523c0.35170746 0.24407959 0.71128845 0.36486816 1.0656204 0.36486816c0.6561661 0 1.286087 -0.41210938 1.7873993 -1.2126465c0.8477707 -1.2335815 1.3858261 -3.3910522 1.6194229 -5.7821045c1.078743 -15.653564 1.4645615 -28.451477 1.4645615 -39.477722c-0.30970764 -0.30969238 -0.6167908 -0.77163696 -0.84776306 -1.3884583c-0.6167984 -1.3884277 -1.0026245 -3.1627197 -1.1574783 -5.0131226c-0.23097229 -2.236206 -0.30971527 -4.472412 -0.15485382 -6.6299133c-0.07611847 -0.4645691 -0.15486145 -0.9265137 -0.15486145 -1.3884583c-0.30708313 -2.6981506 -0.30708313 -5.475067 -0.07611084 -7.94223c0 0 0 0 0 -0.07614136c0 -0.15484619 0 -0.30969238 0 -0.4645691c-0.07611847 -0.3831787 0 -0.46191406 0 -0.6167908c-0.07611847 -0.15222168 -0.07611847 -0.38320923 -0.30971527 -0.8477478c-1.8503952 -4.934387 -2.1574783 -11.181122 -2.0026245 -16.346466c0.07611847 -3.0839844 0.30709076 -5.9370117 0.53806305 -8.404205c1.4881821 1.1443481 3.186348 1.779541 4.908127 1.779541c0.60105896 0 1.2021027 -0.07876587 1.8005371 -0.23623657c1.3123322 -0.3097229 2.4671783 -1.0026245 3.393692 -2.3910828c1.0026245 -1.3123169 1.5406799 -3.3936768 1.3884583 -5.398926c0 -2.1863708 -1.1811066 -3.8556519 -2.6036835 -3.8556519z" fill-rule="evenodd"/><path fill="#ffffff" d="m230.88715 393.66797l-137.86615 2.1601257c11.874016 9.020996 36.62468 16.346436 65.23097 18.27295c4.958008 0.34384155 9.803146 0.5091858 14.485565 0.5091858c33.178482 0 58.225723 -8.29657 58.225723 -20.32544c0 -0.15487671 -0.07611084 -0.38583374 -0.07611084 -0.6168213z" fill-rule="evenodd"/><path fill="#000000" fill-opacity="0.0" d="m230.88715 393.66797c0 0.23098755 0.07611084 0.46194458 0.07611084 0.6168213c0 13.724396 -32.61418 22.59317 -72.71129 19.816254c-28.606293 -1.9265137 -53.356956 -9.251953 -65.23097 -18.27295" fill-rule="evenodd"/><path stroke="#aaaaaa" stroke-width="7.711286089238845" stroke-linejoin="round" stroke-linecap="round" d="m230.88715 393.66797c0 0.23098755 0.07611084 0.46194458 0.07611084 0.6168213c0 13.724396 -32.61418 22.59317 -72.71129 19.816254c-28.606293 -1.9265137 -53.356956 -9.251953 -65.23097 -18.27295" fill-rule="evenodd"/><path fill="#ffffff" d="m122.39895 414.17715l0 0c9.666664 2.9291382 16.112862 5.913391 30.01313 5.913391c9.157471 0 21.548553 -1.2939453 40.230972 -4.75589l-70.2441 -1.1575012z" fill-rule="evenodd"/><path fill="#000000" fill-opacity="0.0" d="m122.39895 414.17715c16.03675 4.8582764 23.207344 9.871399 70.2441 1.1575012" fill-rule="evenodd"/><path stroke="#aaaaaa" stroke-width="7.711286089238845" stroke-linejoin="round" stroke-linecap="round" d="m122.39895 414.17715c16.03675 4.8582764 23.207344 9.871399 70.2441 1.1575012" fill-rule="evenodd"/><path fill="#ffffff" d="m246.38583 399.75986c1.2073364 0.9396057 3.7559052 1.5852966 6.0236206 1.5852966c0.33857727 0 0.6719055 -0.013122559 0.99212646 -0.0446167c1.7742767 -0.23098755 2.776886 -0.76904297 2.6220398 -1.5406799z" fill-rule="evenodd"/><path fill="#000000" fill-opacity="0.0" d="m246.30708 399.75986c0 0 0 0 0.07875061 0c1.388443 1.0787354 4.5485535 1.7742615 7.015747 1.5406799c1.7742767 -0.23098755 2.776886 -0.76904297 2.6220398 -1.5406799" fill-rule="evenodd"/><path stroke="#aaaaaa" stroke-width="7.711286089238845" stroke-linejoin="round" stroke-linecap="round" d="m246.30708 399.75986c0 0 0 0 0.07875061 0c1.388443 1.0787354 4.5485535 1.7742615 7.015747 1.5406799c1.7742767 -0.23098755 2.776886 -0.76904297 2.6220398 -1.5406799" fill-rule="evenodd"/><path fill="#ffffff" d="m91.091866 395.44226c7.4041977 45.955383 3.5485535 91.91077 -4.469818 137.86615c26.501312 -3.6246948 53.005257 -5.020996 79.50657 -5.020996c33.254593 0 66.509186 2.1968384 99.76378 4.9422607c-13.724411 -45.876648 -14.110245 -91.83203 -5.010498 -137.78741z" fill-rule="evenodd"/><path fill="#000000" fill-opacity="0.0" d="m260.8819 395.44226c-9.099747 45.955383 -8.713913 91.91077 5.010498 137.78741c-59.755905 -4.934387 -119.514435 -8.094482 -179.27036 0.07873535c8.018372 -45.955383 11.874016 -91.91077 4.469818 -137.86615" fill-rule="evenodd"/><path stroke="#000000" stroke-width="2.9291338582677167" stroke-linejoin="round" stroke-linecap="round" d="m260.8819 395.44226c-9.099747 45.955383 -8.713913 91.91077 5.010498 137.78741c-59.755905 -4.934387 -119.514435 -8.094482 -179.27036 0.07873535c8.018372 -45.955383 11.874016 -91.91077 4.469818 -137.86615" fill-rule="evenodd"/><path fill="#ffffff" d="m52.6168 360.74408l0 0c7.572178 9.984253 11.475067 24.160126 27.650917 24.160126c2.438324 0 5.154854 -0.32284546 8.204727 -1.0288696l-35.855644 -23.131256z" fill-rule="evenodd"/><path fill="#000000" fill-opacity="0.0" d="m52.6168 360.74408c8.713909 11.48819 12.56955 28.530212 35.855644 23.131256" fill-rule="evenodd"/><path stroke="#dfdfdf" stroke-width="7.711286089238845" stroke-linejoin="round" stroke-linecap="round" d="m52.6168 360.74408c8.713909 11.48819 12.56955 28.530212 35.855644 23.131256" fill-rule="evenodd"/><path fill="#ffffff" d="m294.03674 356.1168l-47.496063 34.312347c38.089233 -3.0839844 43.485565 -19.585297 47.496063 -34.312347z" fill-rule="evenodd"/><path fill="#000000" fill-opacity="0.0" d="m294.03674 356.1168c-4.010498 14.727051 -9.40683 31.228363 -47.496063 34.312347" fill-rule="evenodd"/><path stroke="#dfdfdf" stroke-width="7.711286089238845" stroke-linejoin="round" stroke-linecap="round" d="m294.03674 356.1168c-4.010498 14.727051 -9.40683 31.228363 -47.496063 34.312347" fill-rule="evenodd"/><path fill="#ffffff" d="m175.7559 303.22177c-28.228348 0 -52.53543 9.640442 -63.677162 23.56958l0 0c-6.209976 -2.9160156 -13.433075 -4.601074 -21.062996 -4.601074c-23.671913 0 -42.947506 15.960632 -42.947506 35.62207c0 19.740143 19.275593 35.700775 42.947506 35.700775l1.1574783 0l0.32283783 -0.9291382l0 0c13.477692 7.805786 36.08136 14.225739 61.74803 16.582672c7.020996 0.65618896 13.818893 0.96588135 20.262466 0.96588135c31.472443 0 54.53018 -7.448822 54.53018 -18.776886c0 -0.23098755 0 -0.38583374 -0.07873535 -0.6168213l-135.2861 -1.545929l0 0l15.543312 -44.77426l0 0l114.39894 -16.372711l24.312347 69.322845c28.144348 -0.46194458 50.73752 -16.7323 50.73752 -36.624695c0 -20.202087 -23.286072 -36.62729 -52.04724 -36.62729c-3.0787354 0 -6.091858 0.19424438 -9.026245 0.561676l0 0c-11.86351 -12.758514 -35.146973 -21.456696 -61.83464 -21.456696z" fill-rule="evenodd"/><path fill="#000000" fill-opacity="0.0" d="m228.95801 390.73883c0.07873535 0.23098755 0.07873535 0.38583374 0.07873535 0.6168213c0 13.648285 -33.46457 21.666656 -74.79265 17.811005c-29.377953 -2.6981506 -54.745407 -10.719147 -67.00525 -20.047241m4.9343796 4.3937073c-0.3858261 0 -0.7716522 0 -1.1574783 0c-23.671913 0 -42.947506 -15.960632 -42.947506 -35.700775c0 -19.661438 19.275593 -35.62207 42.947506 -35.62207c8.790024 0 17.041992 2.2362366 23.826775 6.0131226m-9.254593 16.7323c0 -0.3070984 0 -0.6167908 0 -1.0c0 -22.51706 31.383202 -40.71393 70.16798 -40.71393c27.527557 0 51.43045 9.251984 62.91864 22.669312m-15.112869 2.005249c7.015747 -2.3910828 14.805771 -3.779541 23.055115 -3.779541c28.76117 0 52.04724 16.425201 52.04724 36.62729c0 19.892395 -22.59317 36.16275 -50.73752 36.624695" fill-rule="evenodd"/><path stroke="#000000" stroke-width="2.9291338582677167" stroke-linejoin="round" stroke-linecap="round" d="m228.95801 390.73883c0.07873535 0.23098755 0.07873535 0.38583374 0.07873535 0.6168213c0 13.648285 -33.46457 21.666656 -74.79265 17.811005c-29.377953 -2.6981506 -54.745407 -10.719147 -67.00525 -20.047241m4.9343796 4.3937073c-0.3858261 0 -0.7716522 0 -1.1574783 0c-23.671913 0 -42.947506 -15.960632 -42.947506 -35.700775c0 -19.661438 19.275593 -35.62207 42.947506 -35.62207c8.790024 0 17.041992 2.2362366 23.826775 6.0131226m-9.254593 16.7323c0 -0.3070984 0 -0.6167908 0 -1.0c0 -22.51706 31.383202 -40.71393 70.16798 -40.71393c27.527557 0 51.43045 9.251984 62.91864 22.669312m-15.112869 2.005249c7.015747 -2.3910828 14.805771 -3.779541 23.055115 -3.779541c28.76117 0 52.04724 16.425201 52.04724 36.62729c0 19.892395 -22.59317 36.16275 -50.73752 36.624695" fill-rule="evenodd"/><path fill="#ffffff" d="m101.03937 411.09317c-2.005249 0.07873535 -3.8556442 1.9291382 -3.8556442 3.9343872c3.469818 23.748047 4.0866165 46.879272 1.0026245 70.62729c0.15486145 4.70343 -2.005249 9.561676 -1.926506 14.419952c0.07611847 4.8582764 -0.23097229 9.716553 -1.1574783 11.566925c-1.3884506 2.6220703 -1.2335968 4.70343 -1.4645691 6.553833c-0.23097229 1.7716064 -0.7716522 2.9291382 -0.8477707 3.005249c-1.5433044 1.3884277 -1.6194229 4.086609 -0.23097229 5.4750366c0.73228455 0.7322998 1.7532806 1.0997314 2.7742844 1.0997314c1.0209961 0 2.0446167 -0.36743164 2.7769012 -1.0997314c0.30708313 -0.30706787 0.5380554 -0.61676025 0.7716522 -0.92388916c0.645668 0.44622803 1.4225693 0.7034302 2.2021027 0.7034302c0.4278183 0 0.8556442 -0.07873535 1.2677155 -0.24145508c1.1548538 -0.38586426 2.0813599 -1.3884888 2.4671936 -2.543335c0.07611084 -0.15484619 0.07611084 -0.23358154 0.15222931 -0.38580322c3.1627274 -9.561707 4.937004 -28.068268 4.551178 -43.257233c-0.07873535 -5.3989563 -0.54067993 -9.561676 -1.2335968 -12.64566c-0.30970764 -1.5433044 -0.69553375 -2.7769165 -1.5433044 -4.086609c-0.3858261 -0.6168213 -0.92388153 -1.3884583 -2.005249 -1.9265137c-0.15222931 -0.07873535 -0.3858261 -0.15487671 -0.5380554 -0.23361206l0.23096466 -16.653534c-3.1627274 -6.015747 -2.467186 -14.650909 -1.5433044 -23.055115c0.3858261 -3.3937073 -0.7716522 -6.5538025 0.6167984 -8.944885c0.07874298 -0.15484619 0.15485382 -0.23095703 0.23097229 -0.3070984c-0.69291687 -0.6955261 -1.6955414 -1.0813599 -2.698166 -1.0813599z" fill-rule="evenodd"/><path fill="#ffffff" d="m251.29396 409.0092c-0.041992188 0 -0.083984375 0.0026245117 -0.12860107 0.0026245117c-0.8477783 0.07873535 -1.6955414 0.38583374 -2.3123474 0.9265137c0.15486145 0.6929016 0.15486145 1.3858337 -0.07873535 2.0813599c-3.7769012 11.719147 -2.4671936 24.519684 -2.157486 36.08661c-0.54067993 0.1522522 -1.0787354 0.6167908 -1.388443 1.4645691c-0.07611084 0 -0.07611084 0.07611084 -0.07611084 0.07611084c-0.7716522 1.8504028 -1.157486 3.779541 -1.3123474 5.7060547c-0.07611084 0.07611084 -0.15222168 0.07611084 -0.30708313 0.07611084c-0.23097229 21.590546 2.0813599 43.257202 7.401581 64.84778c0.48031616 2.0761108 2.0551147 2.9868774 3.6509094 2.9868774c2.2572327 0 4.551178 -1.8241577 3.8294067 -4.7611694c-8.482941 -35.00525 -9.254593 -69.93439 -3.3175964 -104.94226c0.45669556 -2.422577 -1.3963165 -4.551178 -3.8031464 -4.551178z" fill-rule="evenodd"/><path fill="#ffffff" d="m175.4462 308.2349c-25.905518 0 -29.068237 0.46194458 -42.33072 7.0157776c-7.86351 3.8556213 -14.803146 9.020996 -15.419937 11.412048c-0.6167984 2.3910828 -2.6220474 4.934387 -4.317589 5.551178c-1.7742767 0.69555664 -3.9343796 4.6273193 -4.8582687 8.713928c-0.8110199 3.6456604 -2.3307037 6.1705933 -3.577423 6.1705933c-0.17585754 0 -0.34645844 -0.052490234 -0.5091934 -0.1574707c-2.2362137 -1.3884583 -1.6194153 -7.556427 1.7716599 -16.26773c1.3175812 -3.4750671 -5.343834 -5.7270203 -13.679794 -5.7270203c-3.8740158 0 -8.110237 0.4855652 -12.073486 1.561676c-10.716537 2.8530273 -25.674545 14.650909 -27.989506 21.897644c-0.92388153 2.776886 0.30971146 6.4776917 2.9317589 9.254578c2.3884544 2.6220703 7.401577 8.711304 11.178482 13.56955c5.784775 7.480316 8.251968 8.868774 16.27034 8.868774c7.942253 0 9.561676 0.8477783 10.254593 5.4724426c0.6167984 4.4724426 4.4724426 6.7874146 21.435692 12.64566c19.123367 6.553833 23.51706 7.170624 56.05774 7.32547c0.80841064 0.0026245117 1.6089325 0.0052490234 2.3989563 0.0052490234c36.59842 0 50.39633 -3.530182 52.963257 -13.2677c0.8556366 -3.3805847 1.1548462 -4.6430664 2.4934387 -4.6430664c0.82676697 0 2.0551147 0.48294067 4.060364 1.2519836c11.333328 4.317566 -1.4645691 20.509186 -19.89502 25.212585c-6.32283 1.6194153 -14.262466 4.010498 -17.580048 5.3989563c-3.3149567 1.3097229 -20.047241 3.236206 -37.24147 4.3175964c-17.118103 1.0026245 -31.769028 2.4671936 -32.538055 3.2388306c-0.7716522 0.76904297 -0.07874298 15.265106 1.6194229 32.15222c3.451439 35.553833 1.8346481 61.22049 -3.5223083 61.22049c-0.62729645 0 -1.3044662 -0.35168457 -2.0314941 -1.0787354c-1.4645691 -1.3858643 -2.619423 -23.51706 -2.9291382 -53.973755c-0.3858261 -41.637817 -1.1574783 -51.968506 -4.010498 -53.742798c-2.2782135 -1.4514465 -4.104988 -2.1968384 -5.54068 -2.1968384c-2.8398972 0 -4.149605 2.9160156 -4.4042053 9.060364c-0.84776306 17.501312 0.92388916 40.787415 3.3910828 43.795288c3.3175812 4.086609 1.467186 57.36743 -2.157486 61.76117c-1.8346405 2.1784668 1.8241501 2.9501343 22.745415 2.9501343c7.233597 0 16.530182 -0.091918945 28.37532 -0.24938965c5.561676 -0.07348633 11.301834 -0.10760498 17.041992 -0.10760498c24.900269 0 49.80316 0.6456909 60.14174 1.6483154c12.7217865 1.1574707 24.364838 2.3149414 25.908142 2.5458984c0.06561279 0.0052490234 0.12860107 0.007873535 0.19158936 0.007873535c1.4803162 0 2.097107 -1.7322388 1.5039368 -4.173218c-0.67715454 -2.56427 -3.2020874 -4.241455 -6.1968384 -4.241455c-0.06825256 0 -0.13386536 0 -0.20210266 0.0026245117c-0.15223694 0.0026245117 -0.2992096 0.007873535 -0.443573 0.007873535c-4.178482 0 -5.27034 -2.317566 -7.72966 -15.661407c-3.6246643 -19.740173 -4.086609 -45.414703 -1.3884583 -75.56433c1.6194305 -17.34906 1.3884583 -23.748016 -0.84776306 -25.59842c-1.6194153 -1.3884583 -2.7769012 -6.246704 -2.545929 -10.795258c0.38581848 -8.020996 0.8503876 -8.404205 13.7270355 -11.026245c18.582672 -3.779541 24.055115 -7.86615 30.763763 -22.900269c5.7060547 -12.64566 5.78479 -13.262482 1.543335 -17.88977c-8.677185 -9.653534 -25.871399 -15.451447 -42.816284 -15.451447c-5.7926483 0 -11.556427 0.67715454 -16.94226 2.112854c-1.8451385 0.47506714 -3.2335968 0.7270508 -4.254593 0.7270508c-1.7952728 0 -2.454071 -0.7821655 -2.454071 -2.5013123c0 -1.9265137 2.4671936 -3.9317627 5.475067 -4.4724426c4.396332 -0.7716675 2.622055 -2.3123474 -9.175858 -8.097107c-13.56955 -6.629944 -16.577423 -7.0918884 -42.64041 -7.0918884z" fill-rule="evenodd"/><path fill="#ffffff" d="m175.4462 308.2349c-25.905518 0 -29.068237 0.46194458 -42.33072 7.0157776c-7.86351 3.8556213 -14.803146 9.020996 -15.419937 11.412048c-0.6167984 2.3910828 -2.6220474 4.934387 -4.317589 5.551178c-1.7742767 0.69555664 -3.9343796 4.6273193 -4.8582687 8.713928c-0.8110199 3.6456604 -2.3307037 6.1705933 -3.577423 6.1705933c-0.17585754 0 -0.34645844 -0.052490234 -0.5091934 -0.1574707c-2.2362137 -1.3884583 -1.6194153 -7.556427 1.7716599 -16.26773c1.3175812 -3.4750671 -5.343834 -5.7270203 -13.679794 -5.7270203c-3.8740158 0 -8.110237 0.4855652 -12.073486 1.561676c-10.716537 2.8530273 -25.674545 14.650909 -27.989506 21.897644c-0.92388153 2.776886 0.30971146 6.4776917 2.9317589 9.254578c2.3884544 2.6220703 7.401577 8.711304 11.178482 13.56955c5.784775 7.480316 8.251968 8.868774 16.27034 8.868774c7.942253 0 9.561676 0.8477783 10.254593 5.4724426c0.6167984 4.4724426 4.4724426 6.7874146 21.435692 12.64566c19.123367 6.553833 23.51706 7.170624 56.05774 7.32547c0.80841064 0.0026245117 1.6089325 0.0052490234 2.3989563 0.0052490234c36.59842 0 50.39633 -3.530182 52.963257 -13.2677c0.8556366 -3.3805847 1.1548462 -4.6430664 2.4934387 -4.6430664c0.82676697 0 2.0551147 0.48294067 4.060364 1.2519836c11.333328 4.317566 -1.4645691 20.509186 -19.89502 25.212585c-6.32283 1.6194153 -14.262466 4.010498 -17.580048 5.3989563c-3.3149567 1.3097229 -20.047241 3.236206 -37.24147 4.3175964c-17.118103 1.0026245 -31.769028 2.4671936 -32.538055 3.2388306c-0.7716522 0.76904297 -0.07874298 15.265106 1.6194229 32.15222c3.451439 35.553833 1.8346481 61.22049 -3.5223083 61.22049c-0.62729645 0 -1.3044662 -0.35168457 -2.0314941 -1.0787354c-1.4645691 -1.3858643 -2.619423 -23.51706 -2.9291382 -53.973755c-0.3858261 -41.637817 -1.1574783 -51.968506 -4.010498 -53.742798c-2.2782135 -1.4514465 -4.104988 -2.1968384 -5.54068 -2.1968384c-2.8398972 0 -4.149605 2.9160156 -4.4042053 9.060364c-0.84776306 17.501312 0.92388916 40.787415 3.3910828 43.795288c3.3175812 4.086609 1.467186 57.36743 -2.157486 61.76117c-1.8346405 2.1784668 1.8241501 2.9501343 22.745415 2.9501343c7.233597 0 16.530182 -0.091918945 28.37532 -0.24938965c5.561676 -0.07348633 11.301834 -0.10760498 17.041992 -0.10760498c24.900269 0 49.80316 0.6456909 60.14174 1.6483154c12.7217865 1.1574707 24.364838 2.3149414 25.908142 2.5458984c0.06561279 0.0052490234 0.12860107 0.007873535 0.19158936 0.007873535c1.4803162 0 2.097107 -1.7322388 1.5039368 -4.173218c-0.67715454 -2.56427 -3.2020874 -4.241455 -6.1968384 -4.241455c-0.06825256 0 -0.13386536 0 -0.20210266 0.0026245117c-0.15223694 0.0026245117 -0.2992096 0.007873535 -0.443573 0.007873535c-4.178482 0 -5.27034 -2.317566 -7.72966 -15.661407c-3.6246643 -19.740173 -4.086609 -45.414703 -1.3884583 -75.56433c1.6194305 -17.34906 1.3884583 -23.748016 -0.84776306 -25.59842c-1.6194153 -1.3884583 -2.7769012 -6.246704 -2.545929 -10.795258c0.38581848 -8.020996 0.8503876 -8.404205 13.7270355 -11.026245c18.582672 -3.779541 24.055115 -7.86615 30.763763 -22.900269c5.7060547 -12.64566 5.78479 -13.262482 1.543335 -17.88977c-8.677185 -9.653534 -25.871399 -15.451447 -42.816284 -15.451447c-5.7926483 0 -11.556427 0.67715454 -16.94226 2.112854c-1.8451385 0.47506714 -3.2335968 0.7270508 -4.254593 0.7270508c-1.7952728 0 -2.454071 -0.7821655 -2.454071 -2.5013123c0 -1.9265137 2.4671936 -3.9317627 5.475067 -4.4724426c4.396332 -0.7716675 2.622055 -2.3123474 -9.175858 -8.097107c-13.56955 -6.629944 -16.577423 -7.0918884 -42.64041 -7.0918884z" fill-rule="evenodd"/><path fill="#ffffff" d="m175.4462 308.2349c-25.905518 0 -29.068237 0.46194458 -42.33072 7.0157776c-7.86351 3.8556213 -14.803146 9.020996 -15.419937 11.412048c-0.6167984 2.3910828 -2.6220474 4.934387 -4.317589 5.551178c-1.7742767 0.69555664 -3.9343796 4.6273193 -4.8582687 8.713928c-0.8110199 3.6456604 -2.3307037 6.1705933 -3.577423 6.1705933c-0.17585754 0 -0.34645844 -0.052490234 -0.5091934 -0.1574707c-2.2362137 -1.3884583 -1.6194153 -7.556427 1.7716599 -16.26773c1.3175812 -3.4750671 -5.343834 -5.7270203 -13.679794 -5.7270203c-3.8740158 0 -8.110237 0.4855652 -12.073486 1.561676c-10.716537 2.8530273 -25.674545 14.650909 -27.989506 21.897644c-0.92388153 2.776886 0.30971146 6.4776917 2.9317589 9.254578c2.3884544 2.6220703 7.401577 8.711304 11.178482 13.56955c5.784775 7.480316 8.251968 8.868774 16.27034 8.868774c7.942253 0 9.561676 0.8477783 10.254593 5.4724426c0.6167984 4.4724426 4.4724426 6.7874146 21.435692 12.64566c19.123367 6.553833 23.51706 7.170624 56.05774 7.32547c0.80841064 0.0026245117 1.6089325 0.0052490234 2.3989563 0.0052490234c36.59842 0 50.39633 -3.530182 52.963257 -13.2677c0.8556366 -3.3805847 1.1548462 -4.6430664 2.4934387 -4.6430664c0.82676697 0 2.0551147 0.48294067 4.060364 1.2519836c11.333328 4.317566 -1.4645691 20.509186 -19.89502 25.212585c-6.32283 1.6194153 -14.262466 4.010498 -17.580048 5.3989563c-3.3149567 1.3097229 -20.047241 3.236206 -37.24147 4.3175964c-17.118103 1.0026245 -31.769028 2.4671936 -32.538055 3.2388306c-0.7716522 0.76904297 -0.07874298 15.265106 1.6194229 32.15222c3.451439 35.553833 1.8346481 61.22049 -3.5223083 61.22049c-0.62729645 0 -1.3044662 -0.35168457 -2.0314941 -1.0787354c-1.4645691 -1.3858643 -2.619423 -23.51706 -2.9291382 -53.973755c-0.3858261 -41.637817 -1.1574783 -51.968506 -4.010498 -53.742798c-2.2782135 -1.4514465 -4.104988 -2.1968384 -5.54068 -2.1968384c-2.8398972 0 -4.149605 2.9160156 -4.4042053 9.060364c-0.84776306 17.501312 0.92388916 40.787415 3.3910828 43.795288c3.3175812 4.086609 1.467186 57.36743 -2.157486 61.76117c-1.8346405 2.1784668 1.8241501 2.9501343 22.745415 2.9501343c7.233597 0 16.530182 -0.091918945 28.37532 -0.24938965c5.561676 -0.07348633 11.301834 -0.10760498 17.041992 -0.10760498c24.900269 0 49.80316 0.6456909 60.14174 1.6483154c12.7217865 1.1574707 24.364838 2.3149414 25.908142 2.5458984c0.06561279 0.0052490234 0.12860107 0.007873535 0.19158936 0.007873535c1.4803162 0 2.097107 -1.7322388 1.5039368 -4.173218c-0.67715454 -2.56427 -3.2020874 -4.241455 -6.1968384 -4.241455c-0.06825256 0 -0.13386536 0 -0.20210266 0.0026245117c-0.15223694 0.0026245117 -0.2992096 0.007873535 -0.443573 0.007873535c-4.178482 0 -5.27034 -2.317566 -7.72966 -15.661407c-3.6246643 -19.740173 -4.086609 -45.414703 -1.3884583 -75.56433c1.6194305 -17.34906 1.3884583 -23.748016 -0.84776306 -25.59842c-1.6194153 -1.3884583 -2.7769012 -6.246704 -2.545929 -10.795258c0.38581848 -8.020996 0.8503876 -8.404205 13.7270355 -11.026245c18.582672 -3.779541 24.055115 -7.86615 30.763763 -22.900269c5.7060547 -12.64566 5.78479 -13.262482 1.543335 -17.88977c-8.677185 -9.653534 -25.871399 -15.451447 -42.816284 -15.451447c-5.7926483 0 -11.556427 0.67715454 -16.94226 2.112854c-1.8451385 0.47506714 -3.2335968 0.7270508 -4.254593 0.7270508c-1.7952728 0 -2.454071 -0.7821655 -2.454071 -2.5013123c0 -1.9265137 2.4671936 -3.9317627 5.475067 -4.4724426c4.396332 -0.7716675 2.622055 -2.3123474 -9.175858 -8.097107c-13.56955 -6.629944 -16.577423 -7.0918884 -42.64041 -7.0918884z" fill-rule="evenodd"/><path fill="#ffffff" d="m175.4462 308.2349c-25.905518 0 -29.068237 0.46194458 -42.33072 7.0157776c-7.86351 3.8556213 -14.803146 9.020996 -15.419937 11.412048c-0.6167984 2.3910828 -2.6220474 4.934387 -4.317589 5.551178c-1.7742767 0.69555664 -3.9343796 4.6273193 -4.8582687 8.713928c-0.8110199 3.6456604 -2.3307037 6.1705933 -3.577423 6.1705933c-0.17585754 0 -0.34645844 -0.052490234 -0.5091934 -0.1574707c-2.2362137 -1.3884583 -1.6194153 -7.556427 1.7716599 -16.26773c1.3175812 -3.4750671 -5.343834 -5.7270203 -13.679794 -5.7270203c-3.8740158 0 -8.110237 0.4855652 -12.073486 1.561676c-10.716537 2.8530273 -25.674545 14.650909 -27.989506 21.897644c-0.92388153 2.776886 0.30971146 6.4776917 2.9317589 9.254578c2.3884544 2.6220703 7.401577 8.711304 11.178482 13.56955c5.784775 7.480316 8.251968 8.868774 16.27034 8.868774c7.942253 0 9.561676 0.8477783 10.254593 5.4724426c0.6167984 4.4724426 4.4724426 6.7874146 21.435692 12.64566c19.123367 6.553833 23.51706 7.170624 56.05774 7.32547c0.80841064 0.0026245117 1.6089325 0.0052490234 2.3989563 0.0052490234c36.59842 0 50.39633 -3.530182 52.963257 -13.2677c0.8556366 -3.3805847 1.1548462 -4.6430664 2.4934387 -4.6430664c0.82676697 0 2.0551147 0.48294067 4.060364 1.2519836c11.333328 4.317566 -1.4645691 20.509186 -19.89502 25.212585c-6.32283 1.6194153 -14.262466 4.010498 -17.580048 5.3989563c-3.3149567 1.3097229 -20.047241 3.236206 -37.24147 4.3175964c-17.118103 1.0026245 -31.769028 2.4671936 -32.538055 3.2388306c-0.7716522 0.76904297 -0.07874298 15.265106 1.6194229 32.15222c3.451439 35.553833 1.8346481 61.22049 -3.5223083 61.22049c-0.62729645 0 -1.3044662 -0.35168457 -2.0314941 -1.0787354c-1.4645691 -1.3858643 -2.619423 -23.51706 -2.9291382 -53.973755c-0.3858261 -41.637817 -1.1574783 -51.968506 -4.010498 -53.742798c-2.2782135 -1.4514465 -4.104988 -2.1968384 -5.54068 -2.1968384c-2.8398972 0 -4.149605 2.9160156 -4.4042053 9.060364c-0.84776306 17.501312 0.92388916 40.787415 3.3910828 43.795288c3.3175812 4.086609 1.467186 57.36743 -2.157486 61.76117c-1.8346405 2.1784668 1.8241501 2.9501343 22.745415 2.9501343c7.233597 0 16.530182 -0.091918945 28.37532 -0.24938965c5.561676 -0.07348633 11.301834 -0.10760498 17.041992 -0.10760498c24.900269 0 49.80316 0.6456909 60.14174 1.6483154c12.7217865 1.1574707 24.364838 2.3149414 25.908142 2.5458984c0.06561279 0.0052490234 0.12860107 0.007873535 0.19158936 0.007873535c1.4803162 0 2.097107 -1.7322388 1.5039368 -4.173218c-0.67715454 -2.56427 -3.2020874 -4.241455 -6.1968384 -4.241455c-0.06825256 0 -0.13386536 0 -0.20210266 0.0026245117c-0.15223694 0.0026245117 -0.2992096 0.007873535 -0.443573 0.007873535c-4.178482 0 -5.27034 -2.317566 -7.72966 -15.661407c-3.6246643 -19.740173 -4.086609 -45.414703 -1.3884583 -75.56433c1.6194305 -17.34906 1.3884583 -23.748016 -0.84776306 -25.59842c-1.6194153 -1.3884583 -2.7769012 -6.246704 -2.545929 -10.795258c0.38581848 -8.020996 0.8503876 -8.404205 13.7270355 -11.026245c18.582672 -3.779541 24.055115 -7.86615 30.763763 -22.900269c5.7060547 -12.64566 5.78479 -13.262482 1.543335 -17.88977c-8.677185 -9.653534 -25.871399 -15.451447 -42.816284 -15.451447c-5.7926483 0 -11.556427 0.67715454 -16.94226 2.112854c-1.8451385 0.47506714 -3.2335968 0.7270508 -4.254593 0.7270508c-1.7952728 0 -2.454071 -0.7821655 -2.454071 -2.5013123c0 -1.9265137 2.4671936 -3.9317627 5.475067 -4.4724426c4.396332 -0.7716675 2.622055 -2.3123474 -9.175858 -8.097107c-13.56955 -6.629944 -16.577423 -7.0918884 -42.64041 -7.0918884z" fill-rule="evenodd"/><path fill="#ffffff" d="m175.4462 308.2349c-25.905518 0 -29.068237 0.46194458 -42.33072 7.0157776c-7.86351 3.8556213 -14.803146 9.020996 -15.419937 11.412048c-0.6167984 2.3910828 -2.6220474 4.934387 -4.317589 5.551178c-1.7742767 0.69555664 -3.9343796 4.6273193 -4.8582687 8.713928c-0.8110199 3.6456604 -2.3307037 6.1705933 -3.577423 6.1705933c-0.17585754 0 -0.34645844 -0.052490234 -0.5091934 -0.1574707c-2.2362137 -1.3884583 -1.6194153 -7.556427 1.7716599 -16.26773c1.3175812 -3.4750671 -5.343834 -5.7270203 -13.679794 -5.7270203c-3.8740158 0 -8.110237 0.4855652 -12.073486 1.561676c-10.716537 2.8530273 -25.674545 14.650909 -27.989506 21.897644c-0.92388153 2.776886 0.30971146 6.4776917 2.9317589 9.254578c2.3884544 2.6220703 7.401577 8.711304 11.178482 13.56955c5.784775 7.480316 8.251968 8.868774 16.27034 8.868774c7.942253 0 9.561676 0.8477783 10.254593 5.4724426c0.6167984 4.4724426 4.4724426 6.7874146 21.435692 12.64566c19.123367 6.553833 23.51706 7.170624 56.05774 7.32547c0.80841064 0.0026245117 1.6089325 0.0052490234 2.3989563 0.0052490234c36.59842 0 50.39633 -3.530182 52.963257 -13.2677c0.8556366 -3.3805847 1.1548462 -4.6430664 2.4934387 -4.6430664c0.82676697 0 2.0551147 0.48294067 4.060364 1.2519836c11.333328 4.317566 -1.4645691 20.509186 -19.89502 25.212585c-6.32283 1.6194153 -14.262466 4.010498 -17.580048 5.3989563c-3.3149567 1.3097229 -20.047241 3.236206 -37.24147 4.3175964c-17.118103 1.0026245 -31.769028 2.4671936 -32.538055 3.2388306c-0.7716522 0.76904297 -0.07874298 15.265106 1.6194229 32.15222c3.451439 35.553833 1.8346481 61.22049 -3.5223083 61.22049c-0.62729645 0 -1.3044662 -0.35168457 -2.0314941 -1.0787354c-1.4645691 -1.3858643 -2.619423 -23.51706 -2.9291382 -53.973755c-0.3858261 -41.637817 -1.1574783 -51.968506 -4.010498 -53.742798c-2.2782135 -1.4514465 -4.104988 -2.1968384 -5.54068 -2.1968384c-2.8398972 0 -4.149605 2.9160156 -4.4042053 9.060364c-0.84776306 17.501312 0.92388916 40.787415 3.3910828 43.795288c3.3175812 4.086609 1.467186 57.36743 -2.157486 61.76117c-1.8346405 2.1784668 1.8241501 2.9501343 22.745415 2.9501343c7.233597 0 16.530182 -0.091918945 28.37532 -0.24938965c5.561676 -0.07348633 11.301834 -0.10760498 17.041992 -0.10760498c24.900269 0 49.80316 0.6456909 60.14174 1.6483154c12.7217865 1.1574707 24.364838 2.3149414 25.908142 2.5458984c0.06561279 0.0052490234 0.12860107 0.007873535 0.19158936 0.007873535c1.4803162 0 2.097107 -1.7322388 1.5039368 -4.173218c-0.67715454 -2.56427 -3.2020874 -4.241455 -6.1968384 -4.241455c-0.06825256 0 -0.13386536 0 -0.20210266 0.0026245117c-0.15223694 0.0026245117 -0.2992096 0.007873535 -0.443573 0.007873535c-4.178482 0 -5.27034 -2.317566 -7.72966 -15.661407c-3.6246643 -19.740173 -4.086609 -45.414703 -1.3884583 -75.56433c1.6194305 -17.34906 1.3884583 -23.748016 -0.84776306 -25.59842c-1.6194153 -1.3884583 -2.7769012 -6.246704 -2.545929 -10.795258c0.38581848 -8.020996 0.8503876 -8.404205 13.7270355 -11.026245c18.582672 -3.779541 24.055115 -7.86615 30.763763 -22.900269c5.7060547 -12.64566 5.78479 -13.262482 1.543335 -17.88977c-8.677185 -9.653534 -25.871399 -15.451447 -42.816284 -15.451447c-5.7926483 0 -11.556427 0.67715454 -16.94226 2.112854c-1.8451385 0.47506714 -3.2335968 0.7270508 -4.254593 0.7270508c-1.7952728 0 -2.454071 -0.7821655 -2.454071 -2.5013123c0 -1.9265137 2.4671936 -3.9317627 5.475067 -4.4724426c4.396332 -0.7716675 2.622055 -2.3123474 -9.175858 -8.097107c-13.56955 -6.629944 -16.577423 -7.0918884 -42.64041 -7.0918884z" fill-rule="evenodd"/><path fill="#ffffff" d="m175.4462 308.2349c-25.905518 0 -29.068237 0.46194458 -42.33072 7.0157776c-7.86351 3.8556213 -14.803146 9.020996 -15.419937 11.412048c-0.6167984 2.3910828 -2.6220474 4.934387 -4.317589 5.551178c-1.7742767 0.69555664 -3.9343796 4.6273193 -4.8582687 8.713928c-0.8110199 3.6456604 -2.3307037 6.1705933 -3.577423 6.1705933c-0.17585754 0 -0.34645844 -0.052490234 -0.5091934 -0.1574707c-2.2362137 -1.3884583 -1.6194153 -7.556427 1.7716599 -16.26773c1.3175812 -3.4750671 -5.343834 -5.7270203 -13.679794 -5.7270203c-3.8740158 0 -8.110237 0.4855652 -12.073486 1.561676c-10.716537 2.8530273 -25.674545 14.650909 -27.989506 21.897644c-0.92388153 2.776886 0.30971146 6.4776917 2.9317589 9.254578c2.3884544 2.6220703 7.401577 8.711304 11.178482 13.56955c5.784775 7.480316 8.251968 8.868774 16.27034 8.868774c7.942253 0 9.561676 0.8477783 10.254593 5.4724426c0.6167984 4.4724426 4.4724426 6.7874146 21.435692 12.64566c19.123367 6.553833 23.51706 7.170624 56.05774 7.32547c0.80841064 0.0026245117 1.6089325 0.0052490234 2.3989563 0.0052490234c36.59842 0 50.39633 -3.530182 52.963257 -13.2677c0.8556366 -3.3805847 1.1548462 -4.6430664 2.4934387 -4.6430664c0.82676697 0 2.0551147 0.48294067 4.060364 1.2519836c11.333328 4.317566 -1.4645691 20.509186 -19.89502 25.212585c-6.32283 1.6194153 -14.262466 4.010498 -17.580048 5.3989563c-3.3149567 1.3097229 -20.047241 3.236206 -37.24147 4.3175964c-17.118103 1.0026245 -31.769028 2.4671936 -32.538055 3.2388306c-0.7716522 0.76904297 -0.07874298 15.265106 1.6194229 32.15222c3.451439 35.553833 1.8346481 61.22049 -3.5223083 61.22049c-0.62729645 0 -1.3044662 -0.35168457 -2.0314941 -1.0787354c-1.4645691 -1.3858643 -2.619423 -23.51706 -2.9291382 -53.973755c-0.3858261 -41.637817 -1.1574783 -51.968506 -4.010498 -53.742798c-2.2782135 -1.4514465 -4.104988 -2.1968384 -5.54068 -2.1968384c-2.8398972 0 -4.149605 2.9160156 -4.4042053 9.060364c-0.84776306 17.501312 0.92388916 40.787415 3.3910828 43.795288c3.3175812 4.086609 1.467186 57.36743 -2.157486 61.76117c-1.8346405 2.1784668 1.8241501 2.9501343 22.745415 2.9501343c7.233597 0 16.530182 -0.091918945 28.37532 -0.24938965c5.561676 -0.07348633 11.301834 -0.10760498 17.041992 -0.10760498c24.900269 0 49.80316 0.6456909 60.14174 1.6483154c12.7217865 1.1574707 24.364838 2.3149414 25.908142 2.5458984c0.06561279 0.0052490234 0.12860107 0.007873535 0.19158936 0.007873535c1.4803162 0 2.097107 -1.7322388 1.5039368 -4.173218c-0.67715454 -2.56427 -3.2020874 -4.241455 -6.1968384 -4.241455c-0.06825256 0 -0.13386536 0 -0.20210266 0.0026245117c-0.15223694 0.0026245117 -0.2992096 0.007873535 -0.443573 0.007873535c-4.178482 0 -5.27034 -2.317566 -7.72966 -15.661407c-3.6246643 -19.740173 -4.086609 -45.414703 -1.3884583 -75.56433c1.6194305 -17.34906 1.3884583 -23.748016 -0.84776306 -25.59842c-1.6194153 -1.3884583 -2.7769012 -6.246704 -2.545929 -10.795258c0.38581848 -8.020996 0.8503876 -8.404205 13.7270355 -11.026245c18.582672 -3.779541 24.055115 -7.86615 30.763763 -22.900269c5.7060547 -12.64566 5.78479 -13.262482 1.543335 -17.88977c-8.677185 -9.653534 -25.871399 -15.451447 -42.816284 -15.451447c-5.7926483 0 -11.556427 0.67715454 -16.94226 2.112854c-1.8451385 0.47506714 -3.2335968 0.7270508 -4.254593 0.7270508c-1.7952728 0 -2.454071 -0.7821655 -2.454071 -2.5013123c0 -1.9265137 2.4671936 -3.9317627 5.475067 -4.4724426c4.396332 -0.7716675 2.622055 -2.3123474 -9.175858 -8.097107c-13.56955 -6.629944 -16.577423 -7.0918884 -42.64041 -7.0918884z" fill-rule="evenodd"/><path fill="#ffd8d8" d="m175.4462 308.2349c-25.905518 0 -29.068237 0.46194458 -42.33072 7.0157776c-7.86351 3.8556213 -14.803146 9.020996 -15.419937 11.412048c-0.6167984 2.3910828 -2.6220474 4.934387 -4.317589 5.551178c-1.7742767 0.69555664 -3.9343796 4.6273193 -4.8582687 8.713928c-0.8110199 3.6456604 -2.3307037 6.1705933 -3.577423 6.1705933c-0.17585754 0 -0.34645844 -0.052490234 -0.5091934 -0.1574707c-2.2362137 -1.3884583 -1.6194153 -7.556427 1.7716599 -16.26773c1.3175812 -3.4750671 -5.343834 -5.7270203 -13.679794 -5.7270203c-3.8740158 0 -8.110237 0.4855652 -12.073486 1.561676c-10.716537 2.8530273 -25.674545 14.650909 -27.989506 21.897644c-0.92388153 2.776886 0.30971146 6.4776917 2.9317589 9.254578c2.3884544 2.6220703 7.401577 8.711304 11.178482 13.56955c5.784775 7.480316 8.251968 8.868774 16.27034 8.868774c7.942253 0 9.561676 0.8477783 10.254593 5.4724426c0.6167984 4.4724426 4.4724426 6.7874146 21.435692 12.64566c19.123367 6.553833 23.51706 7.170624 56.05774 7.32547c0.80841064 0.0026245117 1.6089325 0.0052490234 2.3989563 0.0052490234c36.59842 0 50.39633 -3.530182 52.963257 -13.2677c0.8556366 -3.3805847 1.1548462 -4.6430664 2.4934387 -4.6430664c0.82676697 0 2.0551147 0.48294067 4.060364 1.2519836c11.333328 4.317566 -1.4645691 20.509186 -19.89502 25.212585c-6.32283 1.6194153 -14.262466 4.010498 -17.580048 5.3989563c-3.3149567 1.3097229 -20.047241 3.236206 -37.24147 4.3175964c-17.118103 1.0026245 -31.769028 2.4671936 -32.538055 3.2388306c-0.7716522 0.76904297 -0.07874298 15.265106 1.6194229 32.15222c3.451439 35.553833 1.8346481 61.22049 -3.5223083 61.22049c-0.62729645 0 -1.3044662 -0.35168457 -2.0314941 -1.0787354c-1.4645691 -1.3858643 -2.619423 -23.51706 -2.9291382 -53.973755c-0.3858261 -41.637817 -1.1574783 -51.968506 -4.010498 -53.742798c-2.2782135 -1.4514465 -4.104988 -2.1968384 -5.54068 -2.1968384c-2.8398972 0 -4.149605 2.9160156 -4.4042053 9.060364c-0.84776306 17.501312 0.92388916 40.787415 3.3910828 43.795288c3.3175812 4.086609 1.467186 57.36743 -2.157486 61.76117c-1.8346405 2.1784668 1.8241501 2.9501343 22.745415 2.9501343c7.233597 0 16.530182 -0.091918945 28.37532 -0.24938965c5.561676 -0.07348633 11.301834 -0.10760498 17.041992 -0.10760498c24.900269 0 49.80316 0.6456909 60.14174 1.6483154c12.7217865 1.1574707 24.364838 2.3149414 25.908142 2.5458984c0.06561279 0.0052490234 0.12860107 0.007873535 0.19158936 0.007873535c1.4803162 0 2.097107 -1.7322388 1.5039368 -4.173218c-0.67715454 -2.56427 -3.2020874 -4.241455 -6.1968384 -4.241455c-0.06825256 0 -0.13386536 0 -0.20210266 0.0026245117c-0.15223694 0.0026245117 -0.2992096 0.007873535 -0.443573 0.007873535c-4.178482 0 -5.27034 -2.317566 -7.72966 -15.661407c-3.6246643 -19.740173 -4.086609 -45.414703 -1.3884583 -75.56433c1.6194305 -17.34906 1.3884583 -23.748016 -0.84776306 -25.59842c-1.6194153 -1.3884583 -2.7769012 -6.246704 -2.545929 -10.795258c0.38581848 -8.020996 0.8503876 -8.404205 13.7270355 -11.026245c18.582672 -3.779541 24.055115 -7.86615 30.763763 -22.900269c5.7060547 -12.64566 5.78479 -13.262482 1.543335 -17.88977c-8.677185 -9.653534 -25.871399 -15.451447 -42.816284 -15.451447c-5.7926483 0 -11.556427 0.67715454 -16.94226 2.112854c-1.8451385 0.47506714 -3.2335968 0.7270508 -4.254593 0.7270508c-1.7952728 0 -2.454071 -0.7821655 -2.454071 -2.5013123c0 -1.9265137 2.4671936 -3.9317627 5.475067 -4.4724426c4.396332 -0.7716675 2.622055 -2.3123474 -9.175858 -8.097107c-13.56955 -6.629944 -16.577423 -7.0918884 -42.64041 -7.0918884z" fill-rule="evenodd"/><path fill="#000000" d="m438.74045 631.68945c-8.42276 0 -15.360474 6.442688 -15.360474 15.362305l0 278.49878c0 8.919678 6.9377136 15.857361 15.360474 15.857361l217.05124 0c8.424622 0 15.362305 -6.937683 15.362305 -15.857361l0 -201.19385l-85.23456 -7.9277344l-7.432678 -84.7395z" fill-rule="evenodd"/><path fill="#e4e4e4" d="m438.74045 631.68945c-8.42276 0 -15.360474 6.442688 -15.360474 15.362305l0 278.49878c0 8.919678 6.9377136 15.857361 15.360474 15.857361l217.05124 0c8.424622 0 15.362305 -6.937683 15.362305 -15.857361l0 -201.19385l-85.23456 -7.9277344l-7.432678 -84.7395z" fill-rule="evenodd"/><path fill="#000000" d="m578.48676 637.63525l0 77.30682c0 8.919617 6.440796 15.857361 15.360413 15.857361l77.30682 0l-92.66724 -93.164185z" fill-rule="evenodd"/><path fill="#fafafa" d="m578.48676 631.68945l0 77.30487c0 8.424683 6.440796 15.362366 15.360413 15.362366l77.30682 0l-92.66724 -92.66724z" fill-rule="evenodd"/><path fill="#d74c4c" d="m497.71106 823.46674l0 49.554016l12.388519 0l0 -27.253967l12.390411 19.821228l12.388489 -19.821228l0 27.253967l12.38855 0l0 -49.554016l-12.38855 0l-12.388489 19.821228l-12.390411 -19.821228zm74.33295 0l0 24.776978l-12.388489 0l12.388489 24.777039l12.38855 0l12.388489 -24.777039l-12.388489 0l0 -24.776978zm37.165527 -12.38855l0 74.33301l-123.88699 0l0 -74.33301zm-123.88699 -12.388489c-6.9377136 0 -12.388519 6.442688 -12.388519 12.388489l0 74.33301c0 6.440796 5.4508057 12.388489 12.388519 12.388489l123.88699 0c6.937744 0 12.38855 -5.947693 12.38855 -12.388489l0 -74.33301c0 -5.945801 -5.4508057 -12.388489 -12.38855 -12.388489z" fill-rule="evenodd"/><path fill="#ffffff" d="m438.74045 631.68945c-8.42276 0 -15.360474 6.442688 -15.360474 15.362305l0 5.945862c0 -8.424683 6.9377136 -15.362366 15.360474 -15.362366l139.7463 0l0 -5.945801z" fill-rule="evenodd"/><g filter="url(#shadowFilter-p.1)"><use xlink:href="#p.1" transform="matrix(1.0 0.0 0.0 1.0 0.0 2.0)"/></g><defs><filter id="shadowFilter-p.1" filterUnits="userSpaceOnUse"><feGaussianBlur in="SourceAlpha" stdDeviation="2.0" result="blur"/><feComponentTransfer in="blur" color-interpolation-filters="sRGB"><feFuncR type="linear" slope="0" intercept="0.0"/><feFuncG type="linear" slope="0" intercept="0.0"/><feFuncB type="linear" slope="0" intercept="0.0"/><feFuncA type="linear" slope="0.5" intercept="0"/></feComponentTransfer></filter></defs><g id="p.1"><path fill="#fce5cd" d="m422.99213 615.0914l0 -43.68506l0 0c0 -24.126587 55.636566 -43.68506 124.2677 -43.68506c68.631165 0 124.26776 19.558472 124.26776 43.68506l0 43.68506z" fill-rule="evenodd"/><path stroke="#000000" stroke-width="1.0" stroke-linejoin="round" stroke-linecap="butt" d="m422.99213 615.0914l0 -43.68506l0 0c0 -24.126587 55.636566 -43.68506 124.2677 -43.68506c68.631165 0 124.26776 19.558472 124.26776 43.68506l0 43.68506z" fill-rule="evenodd"/></g><g filter="url(#shadowFilter-p.2)"><use xlink:href="#p.2" transform="matrix(1.0 0.0 0.0 1.0 0.0 2.0)"/></g><defs><filter id="shadowFilter-p.2" filterUnits="userSpaceOnUse"><feGaussianBlur in="SourceAlpha" stdDeviation="2.0" result="blur"/><feComponentTransfer in="blur" color-interpolation-filters="sRGB"><feFuncR type="linear" slope="0" intercept="0.0"/><feFuncG type="linear" slope="0" intercept="0.0"/><feFuncB type="linear" slope="0" intercept="0.0"/><feFuncA type="linear" slope="0.5" intercept="0"/></feComponentTransfer></filter></defs><g id="p.2"><path fill="#fce5cd" d="m671.52014 957.99634l0 43.68506l0 0c0 24.126587 -55.636536 43.68506 -124.2677 43.68506c-68.631165 0 -124.2677 -19.558472 -124.2677 -43.68506l0 -43.68506z" fill-rule="evenodd"/><path stroke="#000000" stroke-width="1.0" stroke-linejoin="round" stroke-linecap="butt" d="m671.52014 957.99634l0 43.68506l0 0c0 24.126587 -55.636536 43.68506 -124.2677 43.68506c-68.631165 0 -124.2677 -19.558472 -124.2677 -43.68506l0 -43.68506z" fill-rule="evenodd"/></g><path fill="#000000" d="m452.2341 645.18304c-8.42276 0 -15.360474 6.442688 -15.360474 15.362366l0 278.49878c0 8.919617 6.9377136 15.857361 15.360474 15.857361l217.05124 0c8.424622 0 15.362305 -6.937744 15.362305 -15.857361l0 -201.19385l-85.23456 -7.9277344l-7.432678 -84.73956z" fill-rule="evenodd"/><path fill="#e4e4e4" d="m452.2341 645.18304c-8.42276 0 -15.360474 6.442688 -15.360474 15.362366l0 278.49878c0 8.919617 6.9377136 15.857361 15.360474 15.857361l217.05124 0c8.424622 0 15.362305 -6.937744 15.362305 -15.857361l0 -201.19385l-85.23456 -7.9277344l-7.432678 -84.73956z" fill-rule="evenodd"/><path fill="#000000" d="m591.9804 651.12885l0 77.30682c0 8.919617 6.440796 15.857361 15.360474 15.857361l77.30676 0l-92.66724 -93.164185z" fill-rule="evenodd"/><path fill="#fafafa" d="m591.9804 645.18304l0 77.30493c0 8.424622 6.440796 15.362366 15.360474 15.362366l77.30676 0l-92.66724 -92.6673z" fill-rule="evenodd"/><path fill="#d74c4c" d="m511.2047 836.9603l0 49.554016l12.388489 0l0 -27.253967l12.390442 19.82129l12.388489 -19.82129l0 27.253967l12.38855 0l0 -49.554016l-12.38855 0l-12.388489 19.821228l-12.390442 -19.821228zm74.33295 0l0 24.777039l-12.388489 0l12.388489 24.776978l12.38855 0l12.388489 -24.776978l-12.388489 0l0 -24.777039zm37.165527 -12.38855l0 74.33301l-123.88699 0l0 -74.33301zm-123.88699 -12.388489c-6.9377136 0 -12.388519 6.442688 -12.388519 12.388489l0 74.33301c0 6.440796 5.4508057 12.388489 12.388519 12.388489l123.88699 0c6.937744 0 12.38855 -5.947693 12.38855 -12.388489l0 -74.33301c0 -5.945801 -5.4508057 -12.388489 -12.38855 -12.388489z" fill-rule="evenodd"/><path fill="#ffffff" d="m452.2341 645.18304c-8.42276 0 -15.360474 6.442688 -15.360474 15.362366l0 5.945801c0 -8.424683 6.9377136 -15.362366 15.360474 -15.362366l139.7463 0l0 -5.945801z" fill-rule="evenodd"/><g filter="url(#shadowFilter-p.3)"><use xlink:href="#p.3" transform="matrix(1.0 0.0 0.0 1.0 0.0 2.0)"/></g><defs><filter id="shadowFilter-p.3" filterUnits="userSpaceOnUse"><feGaussianBlur in="SourceAlpha" stdDeviation="2.0" result="blur"/><feComponentTransfer in="blur" color-interpolation-filters="sRGB"><feFuncR type="linear" slope="0" intercept="0.0"/><feFuncG type="linear" slope="0" intercept="0.0"/><feFuncB type="linear" slope="0" intercept="0.0"/><feFuncA type="linear" slope="0.5" intercept="0"/></feComponentTransfer></filter></defs><g id="p.3"><path fill="#fce5cd" d="m436.48578 628.58496l0 -43.68506l0 0c0 -24.126587 55.636566 -43.684998 124.2677 -43.684998c68.631165 0 124.26776 19.55841 124.26776 43.684998l0 43.68506z" fill-rule="evenodd"/><path stroke="#000000" stroke-width="1.0" stroke-linejoin="round" stroke-linecap="butt" d="m436.48578 628.58496l0 -43.68506l0 0c0 -24.126587 55.636566 -43.684998 124.2677 -43.684998c68.631165 0 124.26776 19.55841 124.26776 43.684998l0 43.68506z" fill-rule="evenodd"/></g><g filter="url(#shadowFilter-p.4)"><use xlink:href="#p.4" transform="matrix(1.0 0.0 0.0 1.0 0.0 2.0)"/></g><defs><filter id="shadowFilter-p.4" filterUnits="userSpaceOnUse"><feGaussianBlur in="SourceAlpha" stdDeviation="2.0" result="blur"/><feComponentTransfer in="blur" color-interpolation-filters="sRGB"><feFuncR type="linear" slope="0" intercept="0.0"/><feFuncG type="linear" slope="0" intercept="0.0"/><feFuncB type="linear" slope="0" intercept="0.0"/><feFuncA type="linear" slope="0.5" intercept="0"/></feComponentTransfer></filter></defs><g id="p.4"><path fill="#fce5cd" d="m685.0138 971.4899l0 43.68506l0 0c0 24.126526 -55.636536 43.684998 -124.2677 43.684998c-68.631165 0 -124.2677 -19.558472 -124.2677 -43.684998l0 -43.68506z" fill-rule="evenodd"/><path stroke="#000000" stroke-width="1.0" stroke-linejoin="round" stroke-linecap="butt" d="m685.0138 971.4899l0 43.68506l0 0c0 24.126526 -55.636536 43.684998 -124.2677 43.684998c-68.631165 0 -124.2677 -19.558472 -124.2677 -43.684998l0 -43.68506z" fill-rule="evenodd"/></g><path fill="#000000" d="m465.72775 658.67664c-8.42276 0 -15.360474 6.442688 -15.360474 15.362366l0 278.49878c0 8.919617 6.9377136 15.857361 15.360474 15.857361l217.05124 0c8.424622 0 15.362305 -6.937744 15.362305 -15.857361l0 -201.19385l-85.23456 -7.9277344l-7.432678 -84.73956z" fill-rule="evenodd"/><path fill="#e4e4e4" d="m465.72775 658.67664c-8.42276 0 -15.360474 6.442688 -15.360474 15.362366l0 278.49878c0 8.919617 6.9377136 15.857361 15.360474 15.857361l217.05124 0c8.424622 0 15.362305 -6.937744 15.362305 -15.857361l0 -201.19385l-85.23456 -7.9277344l-7.432678 -84.73956z" fill-rule="evenodd"/><path fill="#000000" d="m605.47406 664.62244l0 77.30682c0 8.919678 6.440796 15.857361 15.360474 15.857361l77.30676 0l-92.66724 -93.164185z" fill-rule="evenodd"/><path fill="#fafafa" d="m605.47406 658.67664l0 77.30493c0 8.424622 6.440796 15.362366 15.360474 15.362366l77.30676 0l-92.66724 -92.6673z" fill-rule="evenodd"/><path fill="#d74c4c" d="m524.69836 850.4539l0 49.554077l12.388489 0l0 -27.253967l12.390442 19.821228l12.388489 -19.821228l0 27.253967l12.38855 0l0 -49.554077l-12.38855 0l-12.388489 19.821228l-12.390442 -19.821228zm74.33295 0l0 24.777039l-12.388489 0l12.388489 24.777039l12.38855 0l12.388489 -24.777039l-12.388489 0l0 -24.777039zm37.165527 -12.388489l0 74.33295l-123.88696 0l0 -74.33295zm-123.88696 -12.38855c-6.937744 0 -12.38855 6.442749 -12.38855 12.38855l0 74.33295c0 6.440796 5.4508057 12.388489 12.38855 12.388489l123.88696 0c6.937744 0 12.38855 -5.947693 12.38855 -12.388489l0 -74.33295c0 -5.945801 -5.4508057 -12.38855 -12.38855 -12.38855z" fill-rule="evenodd"/><path fill="#ffffff" d="m465.72775 658.67664c-8.42276 0 -15.360474 6.442688 -15.360474 15.362366l0 5.945801c0 -8.424622 6.9377136 -15.362366 15.360474 -15.362366l139.7463 0l0 -5.945801z" fill-rule="evenodd"/><g filter="url(#shadowFilter-p.5)"><use xlink:href="#p.5" transform="matrix(1.0 0.0 0.0 1.0 0.0 2.0)"/></g><defs><filter id="shadowFilter-p.5" filterUnits="userSpaceOnUse"><feGaussianBlur in="SourceAlpha" stdDeviation="2.0" result="blur"/><feComponentTransfer in="blur" color-interpolation-filters="sRGB"><feFuncR type="linear" slope="0" intercept="0.0"/><feFuncG type="linear" slope="0" intercept="0.0"/><feFuncB type="linear" slope="0" intercept="0.0"/><feFuncA type="linear" slope="0.5" intercept="0"/></feComponentTransfer></filter></defs><g id="p.5"><path fill="#fce5cd" d="m449.97943 642.07855l0 -43.68506l0 0c0 -24.126526 55.636566 -43.684998 124.2677 -43.684998c68.631165 0 124.26776 19.558472 124.26776 43.684998l0 43.68506z" fill-rule="evenodd"/><path stroke="#000000" stroke-width="1.0" stroke-linejoin="round" stroke-linecap="butt" d="m449.97943 642.07855l0 -43.68506l0 0c0 -24.126526 55.636566 -43.684998 124.2677 -43.684998c68.631165 0 124.26776 19.558472 124.26776 43.684998l0 43.68506z" fill-rule="evenodd"/></g><g filter="url(#shadowFilter-p.6)"><use xlink:href="#p.6" transform="matrix(1.0 0.0 0.0 1.0 0.0 2.0)"/></g><defs><filter id="shadowFilter-p.6" filterUnits="userSpaceOnUse"><feGaussianBlur in="SourceAlpha" stdDeviation="2.0" result="blur"/><feComponentTransfer in="blur" color-interpolation-filters="sRGB"><feFuncR type="linear" slope="0" intercept="0.0"/><feFuncG type="linear" slope="0" intercept="0.0"/><feFuncB type="linear" slope="0" intercept="0.0"/><feFuncA type="linear" slope="0.5" intercept="0"/></feComponentTransfer></filter></defs><g id="p.6"><path fill="#fce5cd" d="m698.50745 984.9836l0 43.684998l0 0c0 24.126587 -55.636536 43.68506 -124.2677 43.68506c-68.631165 0 -124.2677 -19.558472 -124.2677 -43.68506l0 -43.684998z" fill-rule="evenodd"/><path stroke="#000000" stroke-width="1.0" stroke-linejoin="round" stroke-linecap="butt" d="m698.50745 984.9836l0 43.684998l0 0c0 24.126587 -55.636536 43.68506 -124.2677 43.68506c-68.631165 0 -124.2677 -19.558472 -124.2677 -43.68506l0 -43.684998z" fill-rule="evenodd"/></g><path fill="#000000" d="m479.2214 672.1702c-8.42276 0 -15.360474 6.442749 -15.360474 15.362366l0 278.49878c0 8.919678 6.9377136 15.857361 15.360474 15.857361l217.05124 0c8.424622 0 15.362305 -6.937683 15.362305 -15.857361l0 -201.19385l-85.23456 -7.9277344l-7.432678 -84.73956z" fill-rule="evenodd"/><path fill="#e4e4e4" d="m479.2214 672.1702c-8.42276 0 -15.360474 6.442749 -15.360474 15.362366l0 278.49878c0 8.919678 6.9377136 15.857361 15.360474 15.857361l217.05124 0c8.424622 0 15.362305 -6.937683 15.362305 -15.857361l0 -201.19385l-85.23456 -7.9277344l-7.432678 -84.73956z" fill-rule="evenodd"/><path fill="#000000" d="m618.9677 678.116l0 77.30682c0 8.919678 6.440796 15.857422 15.360474 15.857422l77.30676 0l-92.66724 -93.164246z" fill-rule="evenodd"/><path fill="#fafafa" d="m618.9677 672.1702l0 77.30493c0 8.424683 6.440796 15.362366 15.360474 15.362366l77.30676 0l-92.66724 -92.6673z" fill-rule="evenodd"/><path fill="#d74c4c" d="m538.192 863.9475l0 49.554077l12.388489 0l0 -27.253967l12.390442 19.821228l12.388489 -19.821228l0 27.253967l12.38855 0l0 -49.554077l-12.38855 0l-12.388489 19.82129l-12.390442 -19.82129zm74.33295 0l0 24.777039l-12.388489 0l12.388489 24.777039l12.38855 0l12.388489 -24.777039l-12.388489 0l0 -24.777039zm37.165527 -12.388489l0 74.33295l-123.88696 0l0 -74.33295zm-123.88696 -12.388489c-6.937744 0 -12.38855 6.442688 -12.38855 12.388489l0 74.33295c0 6.440857 5.4508057 12.38855 12.38855 12.38855l123.88696 0c6.937744 0 12.38855 -5.947693 12.38855 -12.38855l0 -74.33295c0 -5.945801 -5.4508057 -12.388489 -12.38855 -12.388489z" fill-rule="evenodd"/><path fill="#ffffff" d="m479.2214 672.1702c-8.42276 0 -15.360474 6.442749 -15.360474 15.362366l0 5.945801c0 -8.424622 6.9377136 -15.362366 15.360474 -15.362366l139.7463 0l0 -5.945801z" fill-rule="evenodd"/><g filter="url(#shadowFilter-p.7)"><use xlink:href="#p.7" transform="matrix(1.0 0.0 0.0 1.0 0.0 2.0)"/></g><defs><filter id="shadowFilter-p.7" filterUnits="userSpaceOnUse"><feGaussianBlur in="SourceAlpha" stdDeviation="2.0" result="blur"/><feComponentTransfer in="blur" color-interpolation-filters="sRGB"><feFuncR type="linear" slope="0" intercept="0.0"/><feFuncG type="linear" slope="0" intercept="0.0"/><feFuncB type="linear" slope="0" intercept="0.0"/><feFuncA type="linear" slope="0.5" intercept="0"/></feComponentTransfer></filter></defs><g id="p.7"><path fill="#fce5cd" d="m463.47308 655.57214l0 -43.684998l0 0c0 -24.126587 55.636536 -43.68506 124.2677 -43.68506c68.631165 0 124.26776 19.558472 124.26776 43.68506l0 43.684998z" fill-rule="evenodd"/><path stroke="#000000" stroke-width="1.0" stroke-linejoin="round" stroke-linecap="butt" d="m463.47308 655.57214l0 -43.684998l0 0c0 -24.126587 55.636536 -43.68506 124.2677 -43.68506c68.631165 0 124.26776 19.558472 124.26776 43.68506l0 43.684998z" fill-rule="evenodd"/></g><g filter="url(#shadowFilter-p.8)"><use xlink:href="#p.8" transform="matrix(1.0 0.0 0.0 1.0 0.0 2.0)"/></g><defs><filter id="shadowFilter-p.8" filterUnits="userSpaceOnUse"><feGaussianBlur in="SourceAlpha" stdDeviation="2.0" result="blur"/><feComponentTransfer in="blur" color-interpolation-filters="sRGB"><feFuncR type="linear" slope="0" intercept="0.0"/><feFuncG type="linear" slope="0" intercept="0.0"/><feFuncB type="linear" slope="0" intercept="0.0"/><feFuncA type="linear" slope="0.5" intercept="0"/></feComponentTransfer></filter></defs><g id="p.8"><path fill="#fce5cd" d="m712.0011 998.4772l0 43.68506l0 0c0 24.126587 -55.636536 43.68506 -124.2677 43.68506c-68.631165 0 -124.2677 -19.558472 -124.2677 -43.68506l0 -43.68506z" fill-rule="evenodd"/><path stroke="#000000" stroke-width="1.0" stroke-linejoin="round" stroke-linecap="butt" d="m712.0011 998.4772l0 43.68506l0 0c0 24.126587 -55.636536 43.68506 -124.2677 43.68506c-68.631165 0 -124.2677 -19.558472 -124.2677 -43.68506l0 -43.68506z" fill-rule="evenodd"/></g><path fill="#000000" d="m492.71506 685.6639c-8.42276 0 -15.360474 6.442688 -15.360474 15.362366l0 278.49872c0 8.919678 6.9377136 15.857422 15.360474 15.857422l217.05124 0c8.424622 0 15.362366 -6.937744 15.362366 -15.857422l0 -201.19385l-85.23456 -7.9277344l-7.4327393 -84.7395z" fill-rule="evenodd"/><path fill="#e4e4e4" d="m492.71506 685.6639c-8.42276 0 -15.360474 6.442688 -15.360474 15.362366l0 278.49872c0 8.919678 6.9377136 15.857422 15.360474 15.857422l217.05124 0c8.424622 0 15.362366 -6.937744 15.362366 -15.857422l0 -201.19385l-85.23456 -7.9277344l-7.4327393 -84.7395z" fill-rule="evenodd"/><path fill="#000000" d="m632.46136 691.6097l0 77.30682c0 8.919617 6.440796 15.857361 15.360474 15.857361l77.30682 0l-92.6673 -93.164185z" fill-rule="evenodd"/><path fill="#fafafa" d="m632.46136 685.6639l0 77.30493c0 8.424622 6.440796 15.362305 15.360474 15.362305l77.30682 0l-92.6673 -92.66724z" fill-rule="evenodd"/><path fill="#d74c4c" d="m551.68567 877.44116l0 49.554016l12.388489 0l0 -27.253967l12.390442 19.821228l12.388489 -19.821228l0 27.253967l12.38855 0l0 -49.554016l-12.38855 0l-12.388489 19.821228l-12.390442 -19.821228zm74.33295 0l0 24.776978l-12.388489 0l12.388489 24.777039l12.38855 0l12.388489 -24.777039l-12.388489 0l0 -24.776978zm37.165527 -12.38855l0 74.33301l-123.88696 0l0 -74.33301zm-123.88696 -12.388489c-6.937744 0 -12.38855 6.442688 -12.38855 12.388489l0 74.33301c0 6.440796 5.4508057 12.388489 12.38855 12.388489l123.88696 0c6.937744 0 12.38855 -5.947693 12.38855 -12.388489l0 -74.33301c0 -5.945801 -5.4508057 -12.388489 -12.38855 -12.388489z" fill-rule="evenodd"/><path fill="#ffffff" d="m492.71506 685.6639c-8.42276 0 -15.360474 6.442688 -15.360474 15.362366l0 5.945801c0 -8.424683 6.9377136 -15.362366 15.360474 -15.362366l139.7463 0l0 -5.945801z" fill-rule="evenodd"/><g filter="url(#shadowFilter-p.9)"><use xlink:href="#p.9" transform="matrix(1.0 0.0 0.0 1.0 0.0 2.0)"/></g><defs><filter id="shadowFilter-p.9" filterUnits="userSpaceOnUse"><feGaussianBlur in="SourceAlpha" stdDeviation="2.0" result="blur"/><feComponentTransfer in="blur" color-interpolation-filters="sRGB"><feFuncR type="linear" slope="0" intercept="0.0"/><feFuncG type="linear" slope="0" intercept="0.0"/><feFuncB type="linear" slope="0" intercept="0.0"/><feFuncA type="linear" slope="0.5" intercept="0"/></feComponentTransfer></filter></defs><g id="p.9"><path fill="#fce5cd" d="m476.96674 669.0658l0 -43.68506l0 0c0 -24.126587 55.636536 -43.68506 124.2677 -43.68506c68.631165 0 124.26776 19.558472 124.26776 43.68506l0 43.68506z" fill-rule="evenodd"/><path stroke="#000000" stroke-width="1.0" stroke-linejoin="round" stroke-linecap="butt" d="m476.96674 669.0658l0 -43.68506l0 0c0 -24.126587 55.636536 -43.68506 124.2677 -43.68506c68.631165 0 124.26776 19.558472 124.26776 43.68506l0 43.68506z" fill-rule="evenodd"/></g><g filter="url(#shadowFilter-p.10)"><use xlink:href="#p.10" transform="matrix(1.0 0.0 0.0 1.0 0.0 2.0)"/></g><defs><filter id="shadowFilter-p.10" filterUnits="userSpaceOnUse"><feGaussianBlur in="SourceAlpha" stdDeviation="2.0" result="blur"/><feComponentTransfer in="blur" color-interpolation-filters="sRGB"><feFuncR type="linear" slope="0" intercept="0.0"/><feFuncG type="linear" slope="0" intercept="0.0"/><feFuncB type="linear" slope="0" intercept="0.0"/><feFuncA type="linear" slope="0.5" intercept="0"/></feComponentTransfer></filter></defs><g id="p.10"><path fill="#fce5cd" d="m725.49475 1011.97076l0 43.684998l0 0c0 24.126587 -55.636536 43.68506 -124.2677 43.68506c-68.631165 0 -124.2677 -19.558472 -124.2677 -43.68506l0 -43.684998z" fill-rule="evenodd"/><path stroke="#000000" stroke-width="1.0" stroke-linejoin="round" stroke-linecap="butt" d="m725.49475 1011.97076l0 43.684998l0 0c0 24.126587 -55.636536 43.68506 -124.2677 43.68506c-68.631165 0 -124.2677 -19.558472 -124.2677 -43.68506l0 -43.684998z" fill-rule="evenodd"/></g><path fill="#000000" d="m506.2087 699.1575c-8.42276 0 -15.360474 6.442688 -15.360474 15.362366l0 278.49878c0 8.919617 6.9377136 15.857361 15.360474 15.857361l217.05124 0c8.424622 0 15.362366 -6.937744 15.362366 -15.857361l0 -201.19385l-85.23456 -7.9277344l-7.4327393 -84.73956z" fill-rule="evenodd"/><path fill="#e4e4e4" d="m506.2087 699.1575c-8.42276 0 -15.360474 6.442688 -15.360474 15.362366l0 278.49878c0 8.919617 6.9377136 15.857361 15.360474 15.857361l217.05124 0c8.424622 0 15.362366 -6.937744 15.362366 -15.857361l0 -201.19385l-85.23456 -7.9277344l-7.4327393 -84.73956z" fill-rule="evenodd"/><path fill="#000000" d="m645.955 705.1033l0 77.30682c0 8.919678 6.440796 15.857361 15.360474 15.857361l77.30682 0l-92.6673 -93.164185z" fill-rule="evenodd"/><path fill="#fafafa" d="m645.955 699.1575l0 77.30493c0 8.424622 6.440796 15.362366 15.360474 15.362366l77.30682 0l-92.6673 -92.6673z" fill-rule="evenodd"/><path fill="#d74c4c" d="m565.1793 890.93475l0 49.554016l12.388489 0l0 -27.253967l12.390442 19.82129l12.388489 -19.82129l0 27.253967l12.38855 0l0 -49.554016l-12.38855 0l-12.388489 19.821228l-12.390442 -19.821228zm74.33295 0l0 24.777039l-12.388489 0l12.388489 24.776978l12.38855 0l12.388489 -24.776978l-12.388489 0l0 -24.777039zm37.16559 -12.388489l0 74.33295l-123.887024 0l0 -74.33295zm-123.887024 -12.38855c-6.937744 0 -12.38855 6.442749 -12.38855 12.38855l0 74.33295c0 6.440796 5.4508057 12.388489 12.38855 12.388489l123.887024 0c6.937683 0 12.388489 -5.947693 12.388489 -12.388489l0 -74.33295c0 -5.945801 -5.4508057 -12.38855 -12.388489 -12.38855z" fill-rule="evenodd"/><path fill="#ffffff" d="m506.2087 699.1575c-8.42276 0 -15.360474 6.442688 -15.360474 15.362366l0 5.945801c0 -8.424622 6.9377136 -15.362366 15.360474 -15.362366l139.7463 0l0 -5.945801z" fill-rule="evenodd"/><g filter="url(#shadowFilter-p.11)"><use xlink:href="#p.11" transform="matrix(1.0 0.0 0.0 1.0 0.0 2.0)"/></g><defs><filter id="shadowFilter-p.11" filterUnits="userSpaceOnUse"><feGaussianBlur in="SourceAlpha" stdDeviation="2.0" result="blur"/><feComponentTransfer in="blur" color-interpolation-filters="sRGB"><feFuncR type="linear" slope="0" intercept="0.0"/><feFuncG type="linear" slope="0" intercept="0.0"/><feFuncB type="linear" slope="0" intercept="0.0"/><feFuncA type="linear" slope="0.5" intercept="0"/></feComponentTransfer></filter></defs><g id="p.11"><path fill="#fce5cd" d="m490.4604 682.5594l0 -43.68506l0 0c0 -24.126587 55.636536 -43.684998 124.2677 -43.684998c68.631165 0 124.26776 19.55841 124.26776 43.684998l0 43.68506z" fill-rule="evenodd"/><path stroke="#000000" stroke-width="1.0" stroke-linejoin="round" stroke-linecap="butt" d="m490.4604 682.5594l0 -43.68506l0 0c0 -24.126587 55.636536 -43.684998 124.2677 -43.684998c68.631165 0 124.26776 19.55841 124.26776 43.684998l0 43.68506z" fill-rule="evenodd"/></g><g filter="url(#shadowFilter-p.12)"><use xlink:href="#p.12" transform="matrix(1.0 0.0 0.0 1.0 0.0 2.0)"/></g><defs><filter id="shadowFilter-p.12" filterUnits="userSpaceOnUse"><feGaussianBlur in="SourceAlpha" stdDeviation="2.0" result="blur"/><feComponentTransfer in="blur" color-interpolation-filters="sRGB"><feFuncR type="linear" slope="0" intercept="0.0"/><feFuncG type="linear" slope="0" intercept="0.0"/><feFuncB type="linear" slope="0" intercept="0.0"/><feFuncA type="linear" slope="0.5" intercept="0"/></feComponentTransfer></filter></defs><g id="p.12"><path fill="#fce5cd" d="m738.9884 1025.4644l0 43.68506l0 0c0 24.126587 -55.636536 43.68506 -124.2677 43.68506c-68.631165 0 -124.2677 -19.558472 -124.2677 -43.68506l0 -43.68506z" fill-rule="evenodd"/><path stroke="#000000" stroke-width="1.0" stroke-linejoin="round" stroke-linecap="butt" d="m738.9884 1025.4644l0 43.68506l0 0c0 24.126587 -55.636536 43.68506 -124.2677 43.68506c-68.631165 0 -124.2677 -19.558472 -124.2677 -43.68506l0 -43.68506z" fill-rule="evenodd"/></g><path fill="#000000" d="m519.7024 712.65106c-8.422791 0 -15.360504 6.442749 -15.360504 15.362366l0 278.49878c0 8.919678 6.9377136 15.857361 15.360504 15.857361l217.05121 0c8.424622 0 15.362366 -6.937683 15.362366 -15.857361l0 -201.19385l-85.23456 -7.9277344l-7.4327393 -84.73956z" fill-rule="evenodd"/><path fill="#e4e4e4" d="m519.7024 712.65106c-8.422791 0 -15.360504 6.442749 -15.360504 15.362366l0 278.49878c0 8.919678 6.9377136 15.857361 15.360504 15.857361l217.05121 0c8.424622 0 15.362366 -6.937683 15.362366 -15.857361l0 -201.19385l-85.23456 -7.9277344l-7.4327393 -84.73956z" fill-rule="evenodd"/><path fill="#000000" d="m659.44867 718.59686l0 77.30682c0 8.919678 6.440796 15.857361 15.360474 15.857361l77.30682 0l-92.6673 -93.164185z" fill-rule="evenodd"/><path fill="#fafafa" d="m659.44867 712.65106l0 77.30493c0 8.424622 6.440796 15.362366 15.360474 15.362366l77.30682 0l-92.6673 -92.6673z" fill-rule="evenodd"/><path fill="#d74c4c" d="m578.673 904.42834l0 49.554077l12.388489 0l0 -27.253967l12.390442 19.821228l12.388489 -19.821228l0 27.253967l12.38855 0l0 -49.554077l-12.38855 0l-12.388489 19.821228l-12.390442 -19.821228zm74.33295 0l0 24.777039l-12.388489 0l12.388489 24.777039l12.38855 0l12.388489 -24.777039l-12.388489 0l0 -24.777039zm37.16559 -12.388489l0 74.33295l-123.887024 0l0 -74.33295zm-123.887024 -12.38855c-6.937744 0 -12.38855 6.442749 -12.38855 12.38855l0 74.33295c0 6.440796 5.4508057 12.38855 12.38855 12.38855l123.887024 0c6.937683 0 12.388489 -5.947754 12.388489 -12.38855l0 -74.33295c0 -5.945801 -5.4508057 -12.38855 -12.388489 -12.38855z" fill-rule="evenodd"/><path fill="#ffffff" d="m519.7024 712.65106c-8.422791 0 -15.360504 6.442749 -15.360504 15.362366l0 5.945801c0 -8.424622 6.9377136 -15.362366 15.360504 -15.362366l139.74628 0l0 -5.945801z" fill-rule="evenodd"/><g filter="url(#shadowFilter-p.13)"><use xlink:href="#p.13" transform="matrix(1.0 0.0 0.0 1.0 0.0 2.0)"/></g><defs><filter id="shadowFilter-p.13" filterUnits="userSpaceOnUse"><feGaussianBlur in="SourceAlpha" stdDeviation="2.0" result="blur"/><feComponentTransfer in="blur" color-interpolation-filters="sRGB"><feFuncR type="linear" slope="0" intercept="0.0"/><feFuncG type="linear" slope="0" intercept="0.0"/><feFuncB type="linear" slope="0" intercept="0.0"/><feFuncA type="linear" slope="0.5" intercept="0"/></feComponentTransfer></filter></defs><g id="p.13"><path fill="#fce5cd" d="m503.95404 696.053l0 -43.684998l0 0c0 -24.126587 55.636536 -43.68506 124.2677 -43.68506c68.631165 0 124.26776 19.558472 124.26776 43.68506l0 43.684998z" fill-rule="evenodd"/><path stroke="#000000" stroke-width="1.0" stroke-linejoin="round" stroke-linecap="butt" d="m503.95404 696.053l0 -43.684998l0 0c0 -24.126587 55.636536 -43.68506 124.2677 -43.68506c68.631165 0 124.26776 19.558472 124.26776 43.68506l0 43.684998z" fill-rule="evenodd"/></g><g filter="url(#shadowFilter-p.14)"><use xlink:href="#p.14" transform="matrix(1.0 0.0 0.0 1.0 0.0 2.0)"/></g><defs><filter id="shadowFilter-p.14" filterUnits="userSpaceOnUse"><feGaussianBlur in="SourceAlpha" stdDeviation="2.0" result="blur"/><feComponentTransfer in="blur" color-interpolation-filters="sRGB"><feFuncR type="linear" slope="0" intercept="0.0"/><feFuncG type="linear" slope="0" intercept="0.0"/><feFuncB type="linear" slope="0" intercept="0.0"/><feFuncA type="linear" slope="0.5" intercept="0"/></feComponentTransfer></filter></defs><g id="p.14"><path fill="#fce5cd" d="m752.4821 1038.958l0 43.68506l0 0c0 24.126587 -55.636597 43.68506 -124.26776 43.68506c-68.631165 0 -124.2677 -19.558472 -124.2677 -43.68506l0 -43.68506z" fill-rule="evenodd"/><path stroke="#000000" stroke-width="1.0" stroke-linejoin="round" stroke-linecap="butt" d="m752.4821 1038.958l0 43.68506l0 0c0 24.126587 -55.636597 43.68506 -124.26776 43.68506c-68.631165 0 -124.2677 -19.558472 -124.2677 -43.68506l0 -43.68506z" fill-rule="evenodd"/></g><path fill="#000000" d="m533.19604 726.1447c-8.422791 0 -15.360474 6.442688 -15.360474 15.362305l0 278.49878c0 8.919617 6.937683 15.857361 15.360474 15.857361l217.05121 0c8.424622 0 15.362366 -6.937744 15.362366 -15.857361l0 -201.19385l-85.23456 -7.9277344l-7.4327393 -84.7395z" fill-rule="evenodd"/><path fill="#e4e4e4" d="m533.19604 726.1447c-8.422791 0 -15.360474 6.442688 -15.360474 15.362305l0 278.49878c0 8.919617 6.937683 15.857361 15.360474 15.857361l217.05121 0c8.424622 0 15.362366 -6.937744 15.362366 -15.857361l0 -201.19385l-85.23456 -7.9277344l-7.4327393 -84.7395z" fill-rule="evenodd"/><path fill="#000000" d="m672.9423 732.0905l0 77.30682c0 8.919617 6.440796 15.857361 15.360474 15.857361l77.30682 0l-92.6673 -93.164185z" fill-rule="evenodd"/><path fill="#fafafa" d="m672.9423 726.1447l0 77.30487c0 8.424683 6.440796 15.362366 15.360474 15.362366l77.30682 0l-92.6673 -92.66724z" fill-rule="evenodd"/><path fill="#d74c4c" d="m592.1666 917.92194l0 49.554077l12.388489 0l0 -27.253967l12.390442 19.821228l12.388489 -19.821228l0 27.253967l12.38855 0l0 -49.554077l-12.38855 0l-12.388489 19.82129l-12.390442 -19.82129zm74.33295 0l0 24.777039l-12.388489 0l12.388489 24.777039l12.38855 0l12.388489 -24.777039l-12.388489 0l0 -24.777039zm37.16559 -12.388489l0 74.33301l-123.887024 0l0 -74.33301zm-123.887024 -12.388489c-6.937744 0 -12.38855 6.442688 -12.38855 12.388489l0 74.33301c0 6.440796 5.4508057 12.388489 12.38855 12.388489l123.887024 0c6.937683 0 12.388489 -5.947693 12.388489 -12.388489l0 -74.33301c0 -5.945801 -5.4508057 -12.388489 -12.388489 -12.388489z" fill-rule="evenodd"/><path fill="#ffffff" d="m533.19604 726.1447c-8.422791 0 -15.360474 6.442688 -15.360474 15.362305l0 5.945862c0 -8.424683 6.937683 -15.362366 15.360474 -15.362366l139.74628 0l0 -5.945801z" fill-rule="evenodd"/><g filter="url(#shadowFilter-p.15)"><use xlink:href="#p.15" transform="matrix(1.0 0.0 0.0 1.0 0.0 2.0)"/></g><defs><filter id="shadowFilter-p.15" filterUnits="userSpaceOnUse"><feGaussianBlur in="SourceAlpha" stdDeviation="2.0" result="blur"/><feComponentTransfer in="blur" color-interpolation-filters="sRGB"><feFuncR type="linear" slope="0" intercept="0.0"/><feFuncG type="linear" slope="0" intercept="0.0"/><feFuncB type="linear" slope="0" intercept="0.0"/><feFuncA type="linear" slope="0.5" intercept="0"/></feComponentTransfer></filter></defs><g id="p.15"><path fill="#fce5cd" d="m517.4477 709.54663l0 -43.68506l0 0c0 -24.126587 55.636536 -43.68506 124.2677 -43.68506c68.631165 0 124.26776 19.558472 124.26776 43.68506l0 43.68506z" fill-rule="evenodd"/><path stroke="#000000" stroke-width="1.0" stroke-linejoin="round" stroke-linecap="butt" d="m517.4477 709.54663l0 -43.68506l0 0c0 -24.126587 55.636536 -43.68506 124.2677 -43.68506c68.631165 0 124.26776 19.558472 124.26776 43.68506l0 43.68506z" fill-rule="evenodd"/></g><g filter="url(#shadowFilter-p.16)"><use xlink:href="#p.16" transform="matrix(1.0 0.0 0.0 1.0 0.0 2.0)"/></g><defs><filter id="shadowFilter-p.16" filterUnits="userSpaceOnUse"><feGaussianBlur in="SourceAlpha" stdDeviation="2.0" result="blur"/><feComponentTransfer in="blur" color-interpolation-filters="sRGB"><feFuncR type="linear" slope="0" intercept="0.0"/><feFuncG type="linear" slope="0" intercept="0.0"/><feFuncB type="linear" slope="0" intercept="0.0"/><feFuncA type="linear" slope="0.5" intercept="0"/></feComponentTransfer></filter></defs><g id="p.16"><path fill="#fce5cd" d="m765.97577 1052.4517l0 43.684937l0 0c0 24.126587 -55.636597 43.68506 -124.26776 43.68506c-68.631165 0 -124.2677 -19.558472 -124.2677 -43.68506l0 -43.684937z" fill-rule="evenodd"/><path stroke="#000000" stroke-width="1.0" stroke-linejoin="round" stroke-linecap="butt" d="m765.97577 1052.4517l0 43.684937l0 0c0 24.126587 -55.636597 43.68506 -124.26776 43.68506c-68.631165 0 -124.2677 -19.558472 -124.2677 -43.68506l0 -43.684937z" fill-rule="evenodd"/></g><path fill="#000000" d="m546.6897 739.6383c-8.422791 0 -15.360474 6.442688 -15.360474 15.362366l0 278.49872c0 8.919678 6.937683 15.857422 15.360474 15.857422l217.05121 0c8.424622 0 15.362366 -6.937744 15.362366 -15.857422l0 -201.19379l-85.23456 -7.9277344l-7.4327393 -84.73956z" fill-rule="evenodd"/><path fill="#e4e4e4" d="m546.6897 739.6383c-8.422791 0 -15.360474 6.442688 -15.360474 15.362366l0 278.49872c0 8.919678 6.937683 15.857422 15.360474 15.857422l217.05121 0c8.424622 0 15.362366 -6.937744 15.362366 -15.857422l0 -201.19379l-85.23456 -7.9277344l-7.4327393 -84.73956z" fill-rule="evenodd"/><path fill="#000000" d="m686.436 745.5841l0 77.30682c0 8.919617 6.440796 15.857361 15.360474 15.857361l77.30682 0l-92.6673 -93.164185z" fill-rule="evenodd"/><path fill="#fafafa" d="m686.436 739.6383l0 77.30493c0 8.424622 6.440796 15.362366 15.360474 15.362366l77.30682 0l-92.6673 -92.6673z" fill-rule="evenodd"/><path fill="#d74c4c" d="m605.6603 931.4156l0 49.554016l12.388489 0l0 -27.253967l12.390442 19.82129l12.388489 -19.82129l0 27.253967l12.38855 0l0 -49.554016l-12.38855 0l-12.388489 19.821228l-12.390442 -19.821228zm74.33295 0l0 24.777039l-12.388489 0l12.388489 24.776978l12.38855 0l12.388489 -24.776978l-12.388489 0l0 -24.777039zm37.16559 -12.38855l0 74.33301l-123.887024 0l0 -74.33301zm-123.887024 -12.388489c-6.937744 0 -12.38855 6.442688 -12.38855 12.388489l0 74.33301c0 6.440796 5.4508057 12.388489 12.38855 12.388489l123.887024 0c6.937683 0 12.388489 -5.947693 12.388489 -12.388489l0 -74.33301c0 -5.945801 -5.4508057 -12.388489 -12.388489 -12.388489z" fill-rule="evenodd"/><path fill="#ffffff" d="m546.6897 739.6383c-8.422791 0 -15.360474 6.442688 -15.360474 15.362366l0 5.945801c0 -8.424683 6.937683 -15.362366 15.360474 -15.362366l139.74628 0l0 -5.945801z" fill-rule="evenodd"/><g filter="url(#shadowFilter-p.17)"><use xlink:href="#p.17" transform="matrix(1.0 0.0 0.0 1.0 0.0 2.0)"/></g><defs><filter id="shadowFilter-p.17" filterUnits="userSpaceOnUse"><feGaussianBlur in="SourceAlpha" stdDeviation="2.0" result="blur"/><feComponentTransfer in="blur" color-interpolation-filters="sRGB"><feFuncR type="linear" slope="0" intercept="0.0"/><feFuncG type="linear" slope="0" intercept="0.0"/><feFuncB type="linear" slope="0" intercept="0.0"/><feFuncA type="linear" slope="0.5" intercept="0"/></feComponentTransfer></filter></defs><g id="p.17"><path fill="#fce5cd" d="m530.94135 723.0402l0 -43.68506l0 0c0 -24.126587 55.636536 -43.68506 124.2677 -43.68506c68.631165 0 124.26776 19.558472 124.26776 43.68506l0 43.68506z" fill-rule="evenodd"/><path stroke="#000000" stroke-width="1.0" stroke-linejoin="round" stroke-linecap="butt" d="m530.94135 723.0402l0 -43.68506l0 0c0 -24.126587 55.636536 -43.68506 124.2677 -43.68506c68.631165 0 124.26776 19.558472 124.26776 43.68506l0 43.68506z" fill-rule="evenodd"/></g><g filter="url(#shadowFilter-p.18)"><use xlink:href="#p.18" transform="matrix(1.0 0.0 0.0 1.0 0.0 2.0)"/></g><defs><filter id="shadowFilter-p.18" filterUnits="userSpaceOnUse"><feGaussianBlur in="SourceAlpha" stdDeviation="2.0" result="blur"/><feComponentTransfer in="blur" color-interpolation-filters="sRGB"><feFuncR type="linear" slope="0" intercept="0.0"/><feFuncG type="linear" slope="0" intercept="0.0"/><feFuncB type="linear" slope="0" intercept="0.0"/><feFuncA type="linear" slope="0.5" intercept="0"/></feComponentTransfer></filter></defs><g id="p.18"><path fill="#fce5cd" d="m779.4694 1065.9452l0 43.68506l0 0c0 24.126587 -55.636597 43.68506 -124.26776 43.68506c-68.631165 0 -124.2677 -19.558472 -124.2677 -43.68506l0 -43.68506z" fill-rule="evenodd"/><path stroke="#000000" stroke-width="1.0" stroke-linejoin="round" stroke-linecap="butt" d="m779.4694 1065.9452l0 43.68506l0 0c0 24.126587 -55.636597 43.68506 -124.26776 43.68506c-68.631165 0 -124.2677 -19.558472 -124.2677 -43.68506l0 -43.68506z" fill-rule="evenodd"/></g><path fill="#000000" d="m560.18335 753.1319c-8.422791 0 -15.360474 6.442688 -15.360474 15.362366l0 278.49878c0 8.919678 6.937683 15.8573 15.360474 15.8573l217.05121 0c8.424622 0 15.362366 -6.937622 15.362366 -15.8573l0 -201.19385l-85.23456 -7.9277344l-7.4327393 -84.73956z" fill-rule="evenodd"/><path fill="#e4e4e4" d="m560.18335 753.1319c-8.422791 0 -15.360474 6.442688 -15.360474 15.362366l0 278.49878c0 8.919678 6.937683 15.8573 15.360474 15.8573l217.05121 0c8.424622 0 15.362366 -6.937622 15.362366 -15.8573l0 -201.19385l-85.23456 -7.9277344l-7.4327393 -84.73956z" fill-rule="evenodd"/><path fill="#000000" d="m699.9296 759.0777l0 77.30682c0 8.919678 6.440796 15.857361 15.360474 15.857361l77.30682 0l-92.6673 -93.164185z" fill-rule="evenodd"/><path fill="#fafafa" d="m699.9296 753.1319l0 77.30493c0 8.424622 6.440796 15.362366 15.360474 15.362366l77.30682 0l-92.6673 -92.6673z" fill-rule="evenodd"/><path fill="#d74c4c" d="m619.15393 944.9092l0 49.554077l12.388489 0l0 -27.253967l12.390442 19.821228l12.388489 -19.821228l0 27.253967l12.38855 0l0 -49.554077l-12.38855 0l-12.388489 19.821228l-12.390442 -19.821228zm74.33295 0l0 24.777039l-12.388489 0l12.388489 24.777039l12.38855 0l12.388489 -24.777039l-12.388489 0l0 -24.777039zm37.16559 -12.388489l0 74.33295l-123.887024 0l0 -74.33295zm-123.887024 -12.38855c-6.937744 0 -12.38855 6.442749 -12.38855 12.38855l0 74.33295c0 6.440796 5.4508057 12.388489 12.38855 12.388489l123.887024 0c6.937683 0 12.388489 -5.947693 12.388489 -12.388489l0 -74.33295c0 -5.945801 -5.4508057 -12.38855 -12.388489 -12.38855z" fill-rule="evenodd"/><path fill="#ffffff" d="m560.18335 753.1319c-8.422791 0 -15.360474 6.442688 -15.360474 15.362366l0 5.945801c0 -8.424622 6.937683 -15.362366 15.360474 -15.362366l139.74628 0l0 -5.945801z" fill-rule="evenodd"/><g filter="url(#shadowFilter-p.19)"><use xlink:href="#p.19" transform="matrix(1.0 0.0 0.0 1.0 0.0 2.0)"/></g><defs><filter id="shadowFilter-p.19" filterUnits="userSpaceOnUse"><feGaussianBlur in="SourceAlpha" stdDeviation="2.0" result="blur"/><feComponentTransfer in="blur" color-interpolation-filters="sRGB"><feFuncR type="linear" slope="0" intercept="0.0"/><feFuncG type="linear" slope="0" intercept="0.0"/><feFuncB type="linear" slope="0" intercept="0.0"/><feFuncA type="linear" slope="0.5" intercept="0"/></feComponentTransfer></filter></defs><g id="p.19"><path fill="#fce5cd" d="m544.435 736.5338l0 -43.68506l0 0c0 -24.126526 55.636536 -43.684998 124.2677 -43.684998c68.631165 0 124.26776 19.558472 124.26776 43.684998l0 43.68506z" fill-rule="evenodd"/><path stroke="#000000" stroke-width="1.0" stroke-linejoin="round" stroke-linecap="butt" d="m544.435 736.5338l0 -43.68506l0 0c0 -24.126526 55.636536 -43.684998 124.2677 -43.684998c68.631165 0 124.26776 19.558472 124.26776 43.684998l0 43.68506z" fill-rule="evenodd"/></g><g filter="url(#shadowFilter-p.20)"><use xlink:href="#p.20" transform="matrix(1.0 0.0 0.0 1.0 0.0 2.0)"/></g><defs><filter id="shadowFilter-p.20" filterUnits="userSpaceOnUse"><feGaussianBlur in="SourceAlpha" stdDeviation="2.0" result="blur"/><feComponentTransfer in="blur" color-interpolation-filters="sRGB"><feFuncR type="linear" slope="0" intercept="0.0"/><feFuncG type="linear" slope="0" intercept="0.0"/><feFuncB type="linear" slope="0" intercept="0.0"/><feFuncA type="linear" slope="0.5" intercept="0"/></feComponentTransfer></filter></defs><g id="p.20"><path fill="#fce5cd" d="m792.9631 1079.4388l0 43.68506l0 0c0 24.126587 -55.636597 43.68506 -124.26776 43.68506c-68.631165 0 -124.2677 -19.558472 -124.2677 -43.68506l0 -43.68506z" fill-rule="evenodd"/><path stroke="#000000" stroke-width="1.0" stroke-linejoin="round" stroke-linecap="butt" d="m792.9631 1079.4388l0 43.68506l0 0c0 24.126587 -55.636597 43.68506 -124.26776 43.68506c-68.631165 0 -124.2677 -19.558472 -124.2677 -43.68506l0 -43.68506z" fill-rule="evenodd"/></g><path fill="#000000" d="m573.677 766.6255c-8.422791 0 -15.360474 6.442749 -15.360474 15.362366l0 278.49884c0 8.919556 6.937683 15.8573 15.360474 15.8573l217.05121 0c8.424622 0 15.362366 -6.937744 15.362366 -15.8573l0 -201.19391l-85.23456 -7.9277344l-7.4327393 -84.73956z" fill-rule="evenodd"/><path fill="#e4e4e4" d="m573.677 766.6255c-8.422791 0 -15.360474 6.442749 -15.360474 15.362366l0 278.49884c0 8.919556 6.937683 15.8573 15.360474 15.8573l217.05121 0c8.424622 0 15.362366 -6.937744 15.362366 -15.8573l0 -201.19391l-85.23456 -7.9277344l-7.4327393 -84.73956z" fill-rule="evenodd"/><path fill="#000000" d="m713.4233 772.5713l0 77.30682c0 8.919678 6.440796 15.857422 15.360474 15.857422l77.30682 0l-92.6673 -93.164246z" fill-rule="evenodd"/><path fill="#fafafa" d="m713.4233 766.6255l0 77.30493c0 8.424683 6.440796 15.362366 15.360474 15.362366l77.30682 0l-92.6673 -92.6673z" fill-rule="evenodd"/><path fill="#d74c4c" d="m632.6476 958.4028l0 49.554077l12.388489 0l0 -27.253967l12.390442 19.821228l12.388489 -19.821228l0 27.253967l12.38855 0l0 -49.554077l-12.38855 0l-12.388489 19.82129l-12.390442 -19.82129zm74.33295 0l0 24.777039l-12.388489 0l12.388489 24.777039l12.38855 0l12.388489 -24.777039l-12.388489 0l0 -24.777039zm37.16559 -12.388489l0 74.33295l-123.887024 0l0 -74.33295zm-123.887024 -12.388489c-6.937744 0 -12.38855 6.442688 -12.38855 12.388489l0 74.33295c0 6.440857 5.4508057 12.388489 12.38855 12.388489l123.887024 0c6.937683 0 12.388489 -5.947632 12.388489 -12.388489l0 -74.33295c0 -5.945801 -5.4508057 -12.388489 -12.388489 -12.388489z" fill-rule="evenodd"/><path fill="#ffffff" d="m573.677 766.6255c-8.422791 0 -15.360474 6.442749 -15.360474 15.362366l0 5.945801c0 -8.424622 6.937683 -15.362366 15.360474 -15.362366l139.74628 0l0 -5.945801z" fill-rule="evenodd"/><g filter="url(#shadowFilter-p.21)"><use xlink:href="#p.21" transform="matrix(1.0 0.0 0.0 1.0 0.0 2.0)"/></g><defs><filter id="shadowFilter-p.21" filterUnits="userSpaceOnUse"><feGaussianBlur in="SourceAlpha" stdDeviation="2.0" result="blur"/><feComponentTransfer in="blur" color-interpolation-filters="sRGB"><feFuncR type="linear" slope="0" intercept="0.0"/><feFuncG type="linear" slope="0" intercept="0.0"/><feFuncB type="linear" slope="0" intercept="0.0"/><feFuncA type="linear" slope="0.5" intercept="0"/></feComponentTransfer></filter></defs><g id="p.21"><path fill="#fce5cd" d="m557.92865 750.0274l0 -43.684998l0 0c0 -24.126587 55.636597 -43.68506 124.26776 -43.68506c68.631165 0 124.2677 19.558472 124.2677 43.68506l0 43.684998z" fill-rule="evenodd"/><path stroke="#000000" stroke-width="1.0" stroke-linejoin="round" stroke-linecap="butt" d="m557.92865 750.0274l0 -43.684998l0 0c0 -24.126587 55.636597 -43.68506 124.26776 -43.68506c68.631165 0 124.2677 19.558472 124.2677 43.68506l0 43.684998z" fill-rule="evenodd"/></g><g filter="url(#shadowFilter-p.22)"><use xlink:href="#p.22" transform="matrix(1.0 0.0 0.0 1.0 0.0 2.0)"/></g><defs><filter id="shadowFilter-p.22" filterUnits="userSpaceOnUse"><feGaussianBlur in="SourceAlpha" stdDeviation="2.0" result="blur"/><feComponentTransfer in="blur" color-interpolation-filters="sRGB"><feFuncR type="linear" slope="0" intercept="0.0"/><feFuncG type="linear" slope="0" intercept="0.0"/><feFuncB type="linear" slope="0" intercept="0.0"/><feFuncA type="linear" slope="0.5" intercept="0"/></feComponentTransfer></filter></defs><g id="p.22"><path fill="#fce5cd" d="m806.4567 1092.9324l0 43.68506l0 0c0 24.126587 -55.636597 43.68506 -124.26776 43.68506c-68.631165 0 -124.2677 -19.558472 -124.2677 -43.68506l0 -43.68506z" fill-rule="evenodd"/><path stroke="#000000" stroke-width="1.0" stroke-linejoin="round" stroke-linecap="butt" d="m806.4567 1092.9324l0 43.68506l0 0c0 24.126587 -55.636597 43.68506 -124.26776 43.68506c-68.631165 0 -124.2677 -19.558472 -124.2677 -43.68506l0 -43.68506z" fill-rule="evenodd"/></g><path fill="#000000" d="m454.53918 12.668114c-11.3845825 0 -20.761932 8.708267 -20.761932 20.764488l0 376.43195c0 12.056244 9.37735 21.433563 20.761932 21.433563l293.3766 0c11.387146 0 20.764465 -9.377319 20.764465 -21.433563l0 -271.943l-115.20697 -10.7155l-10.046448 -114.53794z" fill-rule="evenodd"/><path fill="#e4e4e4" d="m454.53918 12.668114c-11.3845825 0 -20.761932 8.708267 -20.761932 20.764488l0 376.43195c0 12.056244 9.37735 21.433563 20.761932 21.433563l293.3766 0c11.387146 0 20.764465 -9.377319 20.764465 -21.433563l0 -271.943l-115.20697 -10.7155l-10.046448 -114.53794z" fill-rule="evenodd"/><path fill="#000000" d="m643.4268 20.70474l0 104.491516c0 12.056213 8.705688 21.433563 20.761902 21.433563l104.491516 0l-125.25342 -125.92508z" fill-rule="evenodd"/><path fill="#fafafa" d="m643.4268 12.668114l0 104.48895c0 11.387138 8.705688 20.764488 20.761902 20.764488l104.491516 0l-125.25342 -125.25344z" fill-rule="evenodd"/><path fill="#ffffff" d="m454.53918 12.668114c-11.3845825 0 -20.761932 8.708267 -20.761932 20.764488l0 8.036625c0 -11.387142 9.37735 -20.764486 20.761932 -20.764486l188.88763 0l0 -8.036627z" fill-rule="evenodd"/><path fill="#000000" fill-opacity="0.0" d="m435.10104 24.091864l207.11813 0l0 147.52756l-207.11813 0z" fill-rule="evenodd"/><path fill="#000000" d="m493.0698 94.53187l-18.40625 0l0 -2.21875q0.75 -0.0625 2.171875 -0.1875q1.421875 -0.125 1.953125 -0.375q0.9375 -0.375 1.375 -1.140625q0.4375 -0.765625 0.4375 -1.984375l0 -15.78125l-20.84375 0l0 15.4375q0 1.09375 0.359375 1.84375q0.359375 0.75 1.421875 1.3125q0.53125 0.28125 1.890625 0.5625q1.359375 0.28125 2.140625 0.3125l0 2.21875l-18.40625 0l0 -2.21875q0.75 -0.0625 2.171875 -0.1875q1.421875 -0.125 1.953125 -0.375q0.9375 -0.375 1.375 -1.140625q0.4375 -0.765625 0.4375 -1.984375l0 -32.000004q0 -1.0 -0.40625 -1.828125q-0.40625 -0.828125 -1.40625 -1.296875q-0.84375 -0.40625 -2.046875 -0.71875q-1.203125 -0.3125 -2.078125 -0.375l0 -2.21875l18.40625 0l0 2.21875q-0.875 0.03125 -2.140625 0.28125q-1.265625 0.25 -1.890625 0.46875q-1.0625 0.375 -1.421875 1.25q-0.359375 0.875 -0.359375 1.90625l0 13.750004l20.84375 0l0 -13.437504q0 -1.0 -0.40625 -1.828125q-0.40625 -0.828125 -1.40625 -1.296875q-0.84375 -0.40625 -2.046875 -0.71875q-1.203125 -0.3125 -2.078125 -0.375l0 -2.21875l18.40625 0l0 2.21875q-0.875 0.03125 -2.140625 0.28125q-1.265625 0.25 -1.890625 0.46875q-1.0625 0.375 -1.421875 1.25q-0.359375 0.875 -0.359375 1.90625l0 31.968754q0 1.09375 0.359375 1.84375q0.359375 0.75 1.421875 1.3125q0.53125 0.28125 1.890625 0.5625q1.359375 0.28125 2.140625 0.3125l0 2.21875zm35.46878 -15.71875q0 3.25 -1.03125 6.390625q-1.03125 3.140625 -2.9375 5.328125q-2.15625 2.5 -5.0 3.71875q-2.84375 1.21875 -6.375 1.21875q-2.9375305 0 -5.5937805 -1.109375q-2.65625 -1.109375 -4.71875 -3.234375q-2.03125 -2.09375 -3.234375 -5.109375q-1.203125 -3.015625 -1.203125 -6.765625q0 -7.21875 4.203125 -11.8125q4.203125 -4.593754 11.0156555 -4.593754q6.46875 0 10.671875 4.359379q4.203125 4.359375 4.203125 11.609375zm-6.46875 0.0625q0 -2.34375 -0.46875 -4.953125q-0.46875 -2.609375 -1.40625 -4.421875q-1.0 -1.9375 -2.625 -3.109375q-1.625 -1.171875 -3.96875 -1.171875q-2.4062805 0 -4.1094055 1.1875q-1.703125 1.1875 -2.765625 3.25q-1.0 1.90625 -1.40625 4.34375q-0.40625 2.4375 -0.40625 4.71875q0 3.0 0.484375 5.546875q0.484375 2.546875 1.546875 4.546875q1.0625 2.0 2.671875 3.140625q1.609375 1.140625 3.9844055 1.140625q3.90625 0 6.1875 -3.78125q2.28125 -3.78125 2.28125 -10.4375zm63.71875 15.65625l-15.03125 0l0 -2.0625q0.71875 -0.0625 1.453125 -0.125q0.734375 -0.0625 1.296875 -0.25q0.875 -0.28125 1.296875 -0.984375q0.421875 -0.703125 0.421875 -1.828125l0 -15.90625q0 -3.25 -1.484375 -5.015625q-1.484375 -1.765625 -3.703125 -1.765625q-1.53125 0 -2.875 0.46875q-1.34375 0.46875 -2.46875 1.3125q-0.90625 0.6875 -1.515625 1.484375q-0.609375 0.796875 -0.921875 1.328125l0 17.78125q0 1.09375 0.375 1.796875q0.375 0.703125 1.28125 1.078125q0.71875 0.28125 1.296875 0.421875q0.578125 0.140625 1.515625 0.203125l0 2.0625l-14.71875 0l0 -2.0625q0.71875 -0.0625 1.390625 -0.125q0.671875 -0.0625 1.234375 -0.25q0.875 -0.28125 1.296875 -0.984375q0.421875 -0.703125 0.421875 -1.828125l0 -15.90625q0 -3.25 -1.484375 -5.015625q-1.484375 -1.765625 -3.703125 -1.765625q-1.53125 0 -2.875 0.484375q-1.34375 0.484375 -2.46875 1.328125q-0.90625 0.6875 -1.53125 1.546875q-0.625 0.859375 -0.9375 1.296875l0 17.65625q0 1.0625 0.4375 1.78125q0.4375 0.71875 1.3125 1.09375q0.65625 0.3125 1.34375 0.46875q0.6875 0.15625 1.53125 0.21875l0 2.0625l-14.96875 0l0 -2.0625q0.71875 -0.0625 1.484375 -0.125q0.765625 -0.0625 1.328125 -0.25q0.875 -0.28125 1.296875 -0.984375q0.421875 -0.703125 0.421875 -1.828125l0 -19.15625q0 -1.0 -0.453125 -1.796875q-0.453125 -0.796875 -1.265625 -1.359375q-0.59375 -0.375 -1.46875 -0.609375q-0.875 -0.234375 -1.8125 -0.296875l0 -2.03125l10.3125 -0.6875038l0.4375 0.4375l0 4.406254l0.21875 0q0.78125 -0.78125 1.90625 -1.84375q1.125 -1.0625 2.09375 -1.71875q1.09375 -0.7500038 2.734375 -1.2500038q1.640625 -0.5 3.546875 -0.5q3.0 0 5.15625 1.6093788q2.15625 1.609375 3.09375 3.890625q1.125 -1.09375 1.984375 -1.921875q0.859375 -0.828125 2.265625 -1.765625q1.1875 -0.8125038 2.796875 -1.3125038q1.609375 -0.5 3.578125 -0.5q3.90625 0 6.1875 2.5625038q2.28125 2.5625 2.28125 7.875l0 15.65625q0 1.09375 0.375 1.796875q0.375 0.703125 1.28125 1.078125q0.71875 0.28125 1.421875 0.421875q0.703125 0.140625 1.578125 0.203125l0 2.0625zm30.96875 -7.25q-1.9375 3.6875 -5.1875 5.875q-3.25 2.1875 -7.46875 2.1875q-3.71875 0 -6.515625 -1.3125q-2.796875 -1.3125 -4.609375 -3.5625q-1.8125 -2.25 -2.703125 -5.25q-0.890625 -3.0 -0.890625 -6.34375q0 -3.0 0.953125 -5.890625q0.953125 -2.890625 2.796875 -5.203125q1.78125 -2.21875 4.421875 -3.578125q2.640625 -1.3593788 5.921875 -1.3593788q3.375 0 5.78125 1.0625q2.40625 1.0625038 3.90625 2.9062538q1.4375 1.75 2.140625 4.125q0.703125 2.375 0.703125 5.15625l0 2.0625l-20.40625 0q0 3.03125 0.578125 5.5q0.578125 2.46875 1.828125 4.34375q1.21875 1.8125 3.1875 2.859375q1.96875 1.046875 4.6875 1.046875q2.78125 0 4.796875 -1.296875q2.015625 -1.296875 3.890625 -4.671875l2.1875 1.34375zm-6.90625 -11.75q0 -1.75 -0.296875 -3.75q-0.296875 -2.0 -0.953125 -3.34375q-0.71875 -1.4375 -1.96875 -2.34375q-1.25 -0.90625 -3.21875 -0.90625q-3.28125 0 -5.453125 2.734375q-2.171875 2.734375 -2.359375 7.609375l14.25 0z" fill-rule="nonzero"/><path fill="#dedede" d="m686.3798 407.75742l-145.40033 0c-4.253113 0 -7.876465 -3.6233215 -7.876465 -7.8764343l0 -206.99411c0 -4.411194 3.623352 -7.8764343 7.876465 -7.8764343l145.40033 0c4.409973 0 7.876465 3.4652405 7.876465 7.8764343l0 206.99411c0 4.253113 -3.4664917 7.8764343 -7.876465 7.8764343z" fill-rule="evenodd"/><path fill="#424242" d="m686.3798 190.52322l0 0.15805054c1.2596436 0 2.2044067 0.94473267 2.2044067 2.205597l0 206.99411c0 1.2596436 -0.9447632 2.2043762 -2.2044067 2.2043762l-145.40033 0c-1.2596436 0 -2.2056274 -1.1027832 -2.2056274 -2.2043762l0 -206.99411c0 -1.2608643 0.9459839 -2.3636475 2.2056274 -2.3636475zm-145.40033 -5.512787c-4.253113 0 -7.876465 3.4652405 -7.876465 7.8764343l0 206.99411c0 4.253113 3.623352 7.8764343 7.876465 7.8764343l145.40033 0c4.409973 0 7.876465 -3.6233215 7.876465 -7.8764343l0 -206.99411c0 -4.411194 -3.4664917 -7.8764343 -7.876465 -7.8764343z" fill-rule="evenodd"/><path fill="#efefef" d="m652.3536 347.42328l68.99725 0l0 24.102295l-68.99725 0z" fill-rule="evenodd"/><path fill="#4480f7" d="m688.9003 347.42328l0 24.102295l32.4505 0l0 -24.102295z" fill-rule="evenodd"/><path fill="#757575" d="m716.93964 351.67642l0 15.594818l-60.332947 0l0 -15.594818zm-64.58606 -4.2531433l0 24.102295l68.99725 0l0 -24.102295z" fill-rule="evenodd"/><path fill="#efefef" d="m652.3536 234.00166l68.99725 0l0 24.10228l-68.99725 0z" fill-rule="evenodd"/><path fill="#fbbe00" d="m688.9003 234.00166l0 24.10228l32.4505 0l0 -24.10228z" fill-rule="evenodd"/><path fill="#757575" d="m716.93964 238.25479l0 15.596024l-60.332947 0l0 -15.596024zm-64.58606 -4.253128l0 24.10228l68.99725 0l0 -24.10228z" fill-rule="evenodd"/><path fill="#dedede" d="m664.9549 388.5381l-153.27554 0c-4.2531433 0 -7.8764343 -3.623291 -7.8764343 -7.8764343l0 -201.1652c0 -4.4111786 3.623291 -7.8764343 7.8764343 -7.8764343l153.27554 0c4.2543335 0 7.876465 3.4652557 7.876465 7.8764343l0 201.1652c0 4.2531433 -3.6221313 7.8764343 -7.876465 7.8764343z" fill-rule="evenodd"/><path fill="#424242" d="m664.9549 177.29085c1.2608643 0 2.2056274 0.94595337 2.2056274 2.205597l0 201.1652c0 1.1027832 -0.9447632 2.205597 -2.2056274 2.205597l-153.27554 0c-1.1028137 0 -2.205597 -1.1028137 -2.205597 -2.205597l0 -201.1652c0 -1.2596436 0.94473267 -2.205597 2.205597 -2.205597zm-153.27554 -5.6708374c-4.2531433 0 -7.8764343 3.4652557 -7.8764343 7.8764343l0 201.1652c0 4.2531433 3.623291 7.8764343 7.8764343 7.8764343l153.27554 0c4.2543335 0 7.876465 -3.623291 7.876465 -7.8764343l0 -201.1652c0 -4.4111786 -3.6221313 -7.8764343 -7.876465 -7.8764343z" fill-rule="evenodd"/><path fill="#000000" fill-opacity="0.0" d="m527.58905 223.76279l121.456116 0" fill-rule="evenodd"/><path stroke="#757575" stroke-width="16.10498687664042" stroke-linejoin="round" stroke-linecap="round" d="m527.58905 223.76279l121.456116 0" fill-rule="evenodd"/><path fill="#000000" fill-opacity="0.0" d="m527.58905 250.85733l121.456116 0" fill-rule="evenodd"/><path stroke="#757575" stroke-width="16.10498687664042" stroke-linejoin="round" stroke-linecap="round" d="m527.58905 250.85733l121.456116 0" fill-rule="evenodd"/><path fill="#000000" fill-opacity="0.0" d="m527.58905 277.9531l121.456116 0" fill-rule="evenodd"/><path stroke="#757575" stroke-width="16.10498687664042" stroke-linejoin="round" stroke-linecap="round" d="m527.58905 277.9531l121.456116 0" fill-rule="evenodd"/><path fill="#000000" fill-opacity="0.0" d="m527.58905 305.2057l121.456116 0" fill-rule="evenodd"/><path stroke="#757575" stroke-width="16.10498687664042" stroke-linejoin="round" stroke-linecap="round" d="m527.58905 305.2057l121.456116 0" fill-rule="evenodd"/><path fill="#000000" fill-opacity="0.0" d="m527.58905 332.30023l51.98474 0" fill-rule="evenodd"/><path stroke="#757575" stroke-width="16.10498687664042" stroke-linejoin="round" stroke-linecap="round" d="m527.58905 332.30023l51.98474 0" fill-rule="evenodd"/><path fill="#efefef" d="m640.066 190.99619l68.99719 0l0 24.10228l-68.99719 0z" fill-rule="evenodd"/><path fill="#ec4431" d="m676.61273 190.99619l0 24.10228l32.45044 0l0 -24.10228z" fill-rule="evenodd"/><path fill="#757575" d="m704.81006 195.40738l0 15.437958l-60.490967 0l0 -15.437958zm-64.74408 -4.411194l0 24.10228l68.99719 0l0 -24.10228z" fill-rule="evenodd"/><path fill="#efefef" d="m640.066 295.12366l68.99719 0l0 24.259125l-68.99719 0z" fill-rule="evenodd"/><path fill="#2ca94f" d="m676.61273 295.12366l0 24.259125l32.45044 0l0 -24.259125z" fill-rule="evenodd"/><path fill="#757575" d="m704.81006 299.53366l0 15.437958l-60.490967 0l0 -15.437958zm-64.74408 -4.4100037l0 24.259125l68.99719 0l0 -24.259125z" fill-rule="evenodd"/><g filter="url(#shadowFilter-p.23)"><use xlink:href="#p.23" transform="matrix(1.0 0.0 0.0 1.0 0.0 2.0)"/></g><defs><filter id="shadowFilter-p.23" filterUnits="userSpaceOnUse"><feGaussianBlur in="SourceAlpha" stdDeviation="2.0" result="blur"/><feComponentTransfer in="blur" color-interpolation-filters="sRGB"><feFuncR type="linear" slope="0" intercept="0.0"/><feFuncG type="linear" slope="0" intercept="0.0"/><feFuncB type="linear" slope="0" intercept="0.0"/><feFuncA type="linear" slope="0.5" intercept="0"/></feComponentTransfer></filter></defs><g id="p.23"><path fill="#b6d7a8" d="m323.4908 420.97638l0 -73.62991c0 -37.04657 30.032166 -67.078735 67.078735 -67.078735l47.91339 0l0 -19.165375l38.33072 38.33072l-38.33072 38.33072l0 -19.165375l-47.91339 0l0 0c-15.877106 0 -28.748016 12.870941 -28.748016 28.748047l0 73.62991z" fill-rule="evenodd"/><path stroke="#000000" stroke-width="1.0" stroke-linejoin="round" stroke-linecap="butt" d="m323.4908 420.97638l0 -73.62991c0 -37.04657 30.032166 -67.078735 67.078735 -67.078735l47.91339 0l0 -19.165375l38.33072 38.33072l-38.33072 38.33072l0 -19.165375l-47.91339 0l0 0c-15.877106 0 -28.748016 12.870941 -28.748016 28.748047l0 73.62991z" fill-rule="evenodd"/></g><g filter="url(#shadowFilter-p.24)"><use xlink:href="#p.24" transform="matrix(1.0 0.0 0.0 1.0 0.0 2.0)"/></g><defs><filter id="shadowFilter-p.24" filterUnits="userSpaceOnUse"><feGaussianBlur in="SourceAlpha" stdDeviation="2.0" result="blur"/><feComponentTransfer in="blur" color-interpolation-filters="sRGB"><feFuncR type="linear" slope="0" intercept="0.0"/><feFuncG type="linear" slope="0" intercept="0.0"/><feFuncB type="linear" slope="0" intercept="0.0"/><feFuncA type="linear" slope="0.5" intercept="0"/></feComponentTransfer></filter></defs><g id="p.24"><path fill="#b6d7a8" d="m323.4908 808.4711l0 73.629944c0 37.04657 30.032166 67.078735 67.078735 67.078735l47.91339 0l0 19.165344l38.33072 -38.33069l-38.33072 -38.33075l0 19.165344l-47.91339 0l0 0c-15.877106 0 -28.748016 -12.870911 -28.748016 -28.747986l0 -73.629944z" fill-rule="evenodd"/><path stroke="#000000" stroke-width="1.0" stroke-linejoin="round" stroke-linecap="butt" d="m323.4908 808.4711l0 73.629944c0 37.04657 30.032166 67.078735 67.078735 67.078735l47.91339 0l0 19.165344l38.33072 -38.33069l-38.33072 -38.33075l0 19.165344l-47.91339 0l0 0c-15.877106 0 -28.748016 -12.870911 -28.748016 -28.747986l0 -73.629944z" fill-rule="evenodd"/></g></g></svg>