<?xml version="1.0" encoding="UTF-8" standalone="no"?>
<svg
   xmlns:osb="http://www.openswatchbook.org/uri/2009/osb"
   xmlns:dc="http://purl.org/dc/elements/1.1/"
   xmlns:cc="http://creativecommons.org/ns#"
   xmlns:rdf="http://www.w3.org/1999/02/22-rdf-syntax-ns#"
   xmlns:svg="http://www.w3.org/2000/svg"
   xmlns="http://www.w3.org/2000/svg"
   xmlns:xlink="http://www.w3.org/1999/xlink"
   xmlns:sodipodi="http://sodipodi.sourceforge.net/DTD/sodipodi-0.dtd"
   xmlns:inkscape="http://www.inkscape.org/namespaces/inkscape"
   inkscape:version="1.0 (4035a4f, 2020-05-01)"
   height="569.66986"
   width="359.91705"
   inkscape:export-ydpi="96"
   inkscape:export-xdpi="96"
   inkscape:export-filename="/Users/Tim/website2/content/blog/2020-06-24-intro-hugo-blogdown-chef/hugo-chef2.svg.png"
   sodipodi:docname="hugo-chef.svg"
   id="svg237"
   version="1.1"
   viewBox="0 0 359.91705 569.66986"
   aria-label="Logo"
   stroke-width="27"
   fill-rule="evenodd">
  <metadata
     id="metadata243">
    <rdf:RDF>
      <cc:Work
         rdf:about="">
        <dc:format>image/svg+xml</dc:format>
        <dc:type
           rdf:resource="http://purl.org/dc/dcmitype/StillImage" />
        <dc:title></dc:title>
      </cc:Work>
    </rdf:RDF>
  </metadata>
  <defs
     id="defs241">
    <linearGradient
       osb:paint="solid"
       id="linearGradient1084">
      <stop
         id="stop1082"
         offset="0"
         style="stop-color:#000000;stop-opacity:1;" />
    </linearGradient>
    <linearGradient
       osb:paint="solid"
       id="linearGradient1078">
      <stop
         id="stop1076"
         offset="0"
         style="stop-color:#e9ddaf;stop-opacity:1;" />
    </linearGradient>
    <clipPath
       id="clipPath1088"
       clipPathUnits="userSpaceOnUse">
      <rect
         y="-13.069972"
         x="-16.103321"
         height="429.66092"
         width="377.02386"
         id="rect1090"
         style="fill:none;fill-opacity:1;stroke:url(#linearGradient1092);stroke-width:12.7697;stroke-miterlimit:4;stroke-dasharray:none" />
    </clipPath>
    <linearGradient
       y2="-608.38904"
       x2="438.1662"
       y1="-608.38904"
       x1="-75.654594"
       gradientTransform="matrix(0.73376529,0,0,0.98769461,39.409399,802.66305)"
       gradientUnits="userSpaceOnUse"
       id="linearGradient1092"
       xlink:href="#linearGradient1084"
       inkscape:collect="always" />
    <clipPath
       id="clipPath1094"
       clipPathUnits="userSpaceOnUse">
      <rect
         y="-13.069972"
         x="-16.103321"
         height="429.66092"
         width="377.02386"
         id="rect1096"
         style="fill:none;fill-opacity:1;stroke:url(#linearGradient1098);stroke-width:12.7697;stroke-miterlimit:4;stroke-dasharray:none" />
    </clipPath>
    <linearGradient
       y2="-608.38904"
       x2="438.1662"
       y1="-608.38904"
       x1="-75.654594"
       gradientTransform="matrix(0.73376529,0,0,0.98769461,39.409399,802.66305)"
       gradientUnits="userSpaceOnUse"
       id="linearGradient1098"
       xlink:href="#linearGradient1084"
       inkscape:collect="always" />
  </defs>
  <sodipodi:namedview
     fit-margin-bottom="0"
     fit-margin-right="0"
     fit-margin-left="0"
     fit-margin-top="0"
     inkscape:current-layer="svg237"
     inkscape:window-maximized="0"
     inkscape:window-y="219"
     inkscape:window-x="90"
     inkscape:cy="538.31264"
     inkscape:cx="40.594281"
     inkscape:zoom="0.39560599"
     showgrid="false"
     id="namedview239"
     inkscape:window-height="978"
     inkscape:window-width="1306"
     inkscape:pageshadow="2"
     inkscape:pageopacity="0"
     guidetolerance="10"
     gridtolerance="10"
     objecttolerance="10"
     borderopacity="1"
     bordercolor="#666666"
     pagecolor="#ffffff" />
  <path
     transform="translate(-1.0035,178.98962)"
     clip-path="url(#clipPath1094)"
     style="stroke-width:26.973;stroke-miterlimit:4;stroke-dasharray:none"
     id="path233"
     d="m 195.81,24.13 114.41,66.54 a 44,44 0 0 1 21.88,38.04 v 136.43 a 48,48 0 0 1 -24.45,41.82 L 194.1,370.9 a 49,49 0 0 1 -48.48,-0.23 L 41.05,310.48 A 53,53 0 0 1 14.49,264.55 V 135.08 a 55,55 0 0 1 26.1,-46.8 l 102.8,-63.46 a 51,51 0 0 1 52.42,-0.69 z"
     stroke="#c9177e"
     fill="#ff4088" />
  <path
     transform="translate(-1.0035,178.98962)"
     clip-path="url(#clipPath1088)"
     style="stroke-width:26.973;stroke-miterlimit:4;stroke-dasharray:none"
     id="path235"
     d="m 1320.72,89.15 c 58.79,0 106.52,47.73 106.52,106.51 0,58.8 -47.73,106.52 -106.52,106.52 -58.78,0 -106.52,-47.73 -106.52,-106.52 0,-58.78 47.74,-106.51 106.52,-106.51 z m 0,39.57 c 36.95,0 66.94,30 66.94,66.94 a 66.97,66.97 0 0 1 -66.94,66.94 c -36.95,0 -66.94,-29.99 -66.94,-66.94 a 66.97,66.97 0 0 1 66.93,-66.94 z m -283.8,65.31 c 0,47.18 -8.94,60.93 -26.81,80.58 -17.87,19.65 -41.57,27.57 -71.1,27.57 -27,0 -48.75,-9.58 -67.61,-26.23 -20.88,-18.45 -36.08,-47.04 -36.08,-78.95 0,-31.37 11.72,-58.48 32.49,-78.67 18.22,-17.67 45.34,-29.18 73.3,-29.18 33.77,0 68.83,15.98 90.44,47.53 L 999.82,163.5 C 986.37,138.47 966.88,130.04 939,129.24 c -30.83,-0.88 -64.77,28.53 -62.25,67.75 1.4,21.94 11.65,59.65 60.96,66.57 25.9,3.63 55.36,-24.02 55.36,-39.04 H 944.4 v -37.5 h 92.5 V 194 Z M 474.32,99.38 h 42.29 v 112.17 c 0,17.8 0.49,29.33 1.47,34.61 1.69,8.48 4.81,14.37 11.17,19.5 6.37,5.13 13.8,6.59 24.84,6.59 11.2,0 14.96,-1.74 20.66,-6.6 5.69,-4.85 9.12,-9.46 10.28,-16.53 1.15,-7.07 3.07,-18.8 3.07,-35.18 V 99.38 h 42.28 v 108.78 c 0,24.86 -1.07,42.43 -3.21,52.69 -2.14,10.27 -6.08,18.93 -11.82,26 -5.74,7.06 -13.42,12.69 -23.03,16.88 -9.62,4.19 -22.16,6.28 -37.65,6.28 -18.7,0 -32.87,-2.28 -42.52,-6.85 -9.66,-4.57 -17.3,-10.5 -22.9,-17.8 -5.61,-7.3 -9.3,-14.95 -11.08,-22.96 -2.58,-11.86 -3.88,-29.38 -3.88,-52.55 V 99.38 Z M 93.91,299.92 V 92.7 h 43.35 v 75.48 h 71.92 V 92.7 h 43.48 v 207.22 h -43.48 v -90.61 h -71.92 v 90.61 z"
     fill="#ffffff" />
  <path
     id="path3862-1-2"
     style="color:#000000;text-indent:0;text-transform:none;fill:#ffffff;fill-opacity:1"
     d="m 126.16308,116.88792 a 2.719,4.0004 0 0 0 -2.5986,3.9688 c -0.0733,0.0597 -0.0945,0.13298 -0.44337,0.21875 -1.4418,0.35455 -4.1811,-1.2345 -4.7785,-2.3438 -0.006,-0.0109 -0.0375,-0.0396 -0.0493,-0.0625 a 2.719,4.0004 0 0 0 -2.3523,-1.625 2.719,4.0004 0 0 0 -0.48031,0.0937 c -0.0167,-0.002 -0.0326,10e-4 -0.0493,0 -1.0341,-0.0576 -2.0364,0.97047 -2.7095,2.7812 -0.67306,1.8108 -0.88656,4.3819 -0.936,7 -0.409,27.091 3.5216,47.032 -0.13547,86.906 0.10776,2.5198 0.42686,5.3087 1.0222,7.5938 0.59534,2.2851 1.5401,4.0382 2.5617,4.75 1.0216,0.71177 2.1064,0.37223 2.9558,-0.90625 0.84937,-1.2785 1.4584,-3.4802 1.638,-6 1.154,-16.238 1.5416,-29.494 1.5395,-40.906 -0.33319,-0.36397 -0.64077,-0.86108 -0.89905,-1.4688 -0.60904,-1.4329 -0.97477,-3.259 -1.1823,-5.2188 -0.24733,-2.3354 -0.28742,-4.6647 -0.14779,-6.875 -0.0729,-0.46918 -0.13285,-0.94756 -0.18474,-1.4375 -0.29756,-2.8097 -0.32627,-5.6661 -0.0616,-8.25 -3.9e-4,-0.008 4e-4,-0.024 0,-0.0312 -0.0145,-0.21953 -0.0212,-0.39215 -0.0246,-0.53125 -0.009,-0.35361 0.006,-0.47579 0.0123,-0.65625 -0.0267,-0.12821 -0.0998,-0.3942 -0.28326,-0.875 -1.9315,-5.061 -2.2767,-11.562 -2.1306,-16.937 0.0867,-3.1901 0.33431,-6.1458 0.57884,-8.75 2.0886,1.671 4.574,2.2547 7.0077,1.6562 1.332,-0.32752 2.5484,-1.0689 3.5223,-2.4688 0.97389,-1.3998 1.5734,-3.5921 1.4409,-5.6562 a 2.719,4.0004 0 0 0 -2.8326,-3.9688 z" />
  <g
     style="fill:#ffffff;fill-opacity:1"
     id="g3899"
     transform="translate(55.35608,-216.80208)">
    <path
       id="path3862"
       style="fill:#ffffff;fill-opacity:1;stroke:#aaaaaa;stroke-width:8;stroke-linecap:round;stroke-linejoin:round"
       d="m 172.67,312.2 c 0.0139,0.20872 0.0218,0.41764 0.0218,0.6266 0,14.188 -33.772,23.378 -75.431,20.527 -29.659,-2.03 -55.323,-9.62 -67.644,-18.94" />
    <path
       id="path3896"
       style="fill:#ffffff;fill-opacity:1;stroke:#aaaaaa;stroke-width:8;stroke-linecap:round;stroke-linejoin:round"
       d="m 60.073,333.41 c 16.615,5.0576 24.066,10.287 72.897,1.2088" />
  </g>
  <path
     id="path3862-1"
     style="fill:#ffffff;fill-opacity:1;stroke:#aaaaaa;stroke-width:8;stroke-linecap:round;stroke-linejoin:round"
     d="m 243.99608,101.65792 c 0.021,0.0164 0.042,0.0329 0.063,0.0494 1.4722,1.1166 4.7572,1.8117 7.3372,1.5526 1.8371,-0.1845 2.8214,-0.80304 2.7046,-1.5471" />
  <path
     id="rect3784"
     style="fill:#ffffff;fill-opacity:1;stroke:#000000;stroke-width:3;stroke-linecap:round;stroke-linejoin:round"
     d="m 259.09608,97.19192 c -9.3773,47.667 -9.0119,95.335 5.2628,143 -62,-5.19 -124,-8.46 -186,0.01 8.299,-47.67 12.302,-95.34 4.636,-143" />
  <path
     id="path3889"
     style="fill:#ffffff;fill-opacity:1;stroke:#dfdfdf;stroke-width:8;stroke-linecap:round;stroke-linejoin:round"
     d="m 43.04978,61.19492 c 9.0248,11.9 13.057,29.589 37.162,24" />
  <path
     id="path3894"
     style="fill:#ffffff;fill-opacity:1;stroke:#dfdfdf;stroke-width:8;stroke-linecap:round;stroke-linejoin:round"
     d="m 293.52608,56.39092 c -4.2004,15.284 -9.7455,32.375 -49.296,35.629" />
  <path
     id="path3780"
     style="display:inline;fill:#ffffff;fill-opacity:1;stroke:#000000;stroke-width:3;stroke-linecap:round;stroke-linejoin:round"
     d="m 226.02608,92.32492 c 0.014,0.20909 0.022,0.41822 0.022,0.62718 0,14.188 -34.716,22.465 -77.54,18.488 -30.486,-2.83 -56.867,-11.11 -69.533,-20.766 m 5.0984,4.5094 c -0.40398,0.009 -0.80931,0.0135 -1.2159,0.0135 -24.577,0 -44.5,-16.565 -44.5,-37 0,-20.435 19.923,-37 44.5,-37 9.1645,0 17.682,2.3034 24.761,6.252 m -9.622,17.366 c -0.0134,-0.34199 -0.0211,-0.68499 -0.0211,-1.029 10e-4,-23.354 32.592,-42.286 72.793,-42.286 28.626,0 53.393,9.5982 65.284,23.557 m -15.614,2.061 c 7.2091,-2.5102 15.329,-3.9211 23.917,-3.9211 29.823,0 54,17.013 54,38 0,20.678 -23.47,37.498 -52.686,37.989" />
  <path
     id="path3903"
     style="color:#000000;text-indent:0;text-transform:none;fill:#ffffff;fill-opacity:1"
     d="m 93.31608,113.46792 c -2.095,0.0327 -4.0028,1.9681 -4.0046,4.0625 3.5782,24.667 4.178,48.6 0.97905,73.266 0.17615,4.8728 -2.0354,9.9155 -1.9657,14.958 0.0697,5.0424 -0.23708,10.071 -1.2307,11.995 -1.4057,2.7215 -1.2296,4.8997 -1.487,6.7812 -0.25735,1.8815 -0.80088,3.0346 -0.92711,3.1562 -1.5609,1.4614 -1.6482,4.204 -0.18182,5.7119 1.4664,1.5078 4.2094,1.4961 5.7129,-0.0244 0.31467,-0.3032 0.60528,-0.62079 0.85923,-0.9375 1.0272,0.70803 2.4065,0.88419 3.5968,0.45941 1.1903,-0.42478 2.1617,-1.4398 2.533,-2.6469 0.0468,-0.13555 0.11339,-0.25639 0.16296,-0.40625 3.2783,-9.8974 5.1368,-29.145 4.741,-44.875 -0.14089,-5.6002 -0.55602,-9.9225 -1.2833,-13.125 -0.36362,-1.6012 -0.73236,-2.9168 -1.5861,-4.25 -0.42685,-0.6666 -1.0144,-1.3965 -2.0925,-1.9688 -0.18867,-0.10014 -0.40153,-0.17892 -0.62087,-0.25 l 0.28588,-17.312 c -3.3233,-6.2184 -2.54,-15.182 -1.5735,-23.938 0.38513,-3.4886 -0.81992,-6.7305 0.62201,-9.2812 0.0625,-0.11061 0.1273,-0.20583 0.19266,-0.3125 -0.7278,-0.68312 -1.7259,-1.0712 -2.7324,-1.0625 z" />
  <path
     id="path4068"
     style="color:#000000;text-indent:0;text-transform:none;fill:#ffffff;fill-opacity:1"
     d="m 249.01608,111.27792 a 4.0004,4.0004 0 0 0 -2.41,0.97 3.9459,4.0557 2.4134e-4 0 1 -0.031,2.125 c -3.9036,12.215 -2.6134,25.49 -2.25,37.438 a 2.3003,4.0004 0 0 0 -1.47,1.52 c -0.016,0.0342 -0.041,0.075 -0.062,0.125 -0.8174,1.8743 -1.2023,3.8679 -1.3438,5.9375 a 3.9479,4.0578 2.4134e-4 0 1 -0.3125,0.0625 c -0.2781,22.421 2.1712,44.859 7.625,67.281 a 4.002,4.002 0 1 0 7.7812,-1.875 c -8.82,-36.27 -9.61,-72.52 -3.4,-108.86 a 4.0004,4.0004 0 0 0 -4.125,-4.7188 z" />
  <path
     id="path1145"
     d="m 231.18035,235.00764 c -13.20759,-1.25801 -49.22678,-1.95418 -80.04264,-1.54704 -47.82089,0.63182 -55.59818,0.22134 -53.08905,-2.80198 3.77812,-4.55235 5.70384,-59.84556 2.23316,-64.12047 -2.51038,-3.09209 -4.38131,-27.24652 -3.52098,-45.45723 0.45281,-9.58468 3.34523,-11.56729 10.38035,-7.1152 2.91832,1.84683 3.71347,12.57492 4.135,55.78914 0.30833,31.60948 1.55759,54.53832 3.05295,56.03368 7.17166,7.17166 9.77295,-21.23645 5.71943,-62.46064 -1.72161,-17.50876 -2.47583,-32.48849 -1.67604,-33.28828 0.79979,-0.79979 16.01077,-2.33744 33.80217,-3.417 17.7914,-1.07956 35.16788,-3.09949 38.61439,-4.48875 3.44652,-1.38925 11.66006,-3.90374 18.25231,-5.58775 19.13954,-4.88925 32.39092,-21.66153 20.66832,-26.15991 -5.47761,-2.10195 -5.35844,-2.16376 -6.85393,3.55501 -2.70033,10.32604 -17.59464,13.88286 -57.3974,13.70672 -33.75238,-0.14937 -38.35278,-0.74942 -58.13866,-7.5833 -17.61735,-6.0849 -21.63146,-8.44516 -22.29377,-13.10858 -0.67949,-4.78435 -2.36828,-5.68748 -10.63525,-5.68748 -8.32584,0 -10.90614,-1.40615 -16.88662,-9.20249 C 53.62157,67.00472 48.39616,60.69031 45.89207,58.03407 43.16165,55.13774 41.94526,51.29494 42.85329,48.43398 45.26209,40.84453 60.839,28.64446 71.93525,25.65655 c 12.92536,-3.48044 28.69427,-0.9167 26.6781,4.33738 -3.46293,9.02423 -4.15337,15.45101 -1.81519,16.89608 1.38979,0.85894 3.29546,-1.93756 4.23482,-6.21445 0.93936,-4.27689 3.19483,-8.34674 5.01214,-9.0441 1.81731,-0.69737 3.83784,-3.30857 4.49006,-5.80266 0.65221,-2.4941 7.87365,-7.81852 16.04763,-11.83204 13.76747,-6.76 17.00225,-7.29732 43.93111,-7.29732 26.9959,0 30.15112,0.52759 44.23594,7.39683 12.23005,5.96466 14.0654,7.58933 9.47912,8.39105 -3.12811,0.54682 -5.68747,2.64303 -5.68747,4.65823 0,2.75976 1.71552,3.20808 6.95136,1.81662 21.93448,-5.82925 49.91068,0.39686 62.0375,13.80646 4.36966,4.83188 4.31372,5.49319 -1.57278,18.5953 -7.01255,15.60841 -12.66268,19.80936 -31.95969,23.76246 -13.3497,2.73476 -13.85021,3.13514 -14.2665,11.41251 -0.23728,4.71807 0.95836,9.75297 2.65699,11.18866 2.32269,1.96315 2.54946,8.5642 0.91464,26.62414 -2.82568,31.21551 -2.34357,57.9194 1.41474,78.3608 2.63038,14.3066 3.72492,16.407 8.46738,16.2488 3.24466,-0.10824 5.93336,1.68008 6.6508,4.4236 0.67581,2.58431 -0.0784,4.45272 -1.71875,4.25766 -1.60769,-0.19119 -13.72927,-1.3769 -26.93685,-2.63492 z"
     style="fill:#ffffff;fill-opacity:1;stroke-width:37.9165;stroke-miterlimit:4;stroke-dasharray:none" />
  <path
     id="path1147"
     d="m 231.18035,235.00764 c -13.20759,-1.25801 -49.22678,-1.95418 -80.04264,-1.54704 -47.82089,0.63182 -55.59818,0.22134 -53.08905,-2.80198 3.77812,-4.55235 5.70384,-59.84556 2.23316,-64.12047 -2.51038,-3.09209 -4.38131,-27.24652 -3.52098,-45.45723 0.45281,-9.58468 3.34523,-11.56729 10.38035,-7.1152 2.91832,1.84683 3.71347,12.57492 4.135,55.78914 0.30833,31.60948 1.55759,54.53832 3.05295,56.03368 7.17166,7.17166 9.77295,-21.23645 5.71943,-62.46064 -1.72161,-17.50876 -2.47583,-32.48849 -1.67604,-33.28828 0.79979,-0.79979 16.01077,-2.33744 33.80217,-3.417 17.7914,-1.07956 35.16788,-3.09949 38.61439,-4.48875 3.44652,-1.38925 11.66006,-3.90374 18.25231,-5.58775 19.13954,-4.88925 32.39092,-21.66153 20.66832,-26.15991 -5.47761,-2.10195 -5.35844,-2.16376 -6.85393,3.55501 -2.70033,10.32604 -17.59464,13.88286 -57.3974,13.70672 -33.75238,-0.14937 -38.35278,-0.74942 -58.13866,-7.5833 -17.61735,-6.0849 -21.63146,-8.44516 -22.29377,-13.10858 -0.67949,-4.78435 -2.36828,-5.68748 -10.63525,-5.68748 -8.32584,0 -10.90614,-1.40615 -16.88662,-9.20249 C 53.62157,67.00472 48.39616,60.69031 45.89207,58.03407 43.16165,55.13774 41.94526,51.29494 42.85329,48.43398 45.26209,40.84453 60.839,28.64446 71.93525,25.65655 c 12.92536,-3.48044 28.69427,-0.9167 26.6781,4.33738 -3.46293,9.02423 -4.15337,15.45101 -1.81519,16.89608 1.38979,0.85894 3.29546,-1.93756 4.23482,-6.21445 0.93936,-4.27689 3.19483,-8.34674 5.01214,-9.0441 1.81731,-0.69737 3.83784,-3.30857 4.49006,-5.80266 0.65221,-2.4941 7.87365,-7.81852 16.04763,-11.83204 13.76747,-6.76 17.00225,-7.29732 43.93111,-7.29732 26.9959,0 30.15112,0.52759 44.23594,7.39683 12.23005,5.96466 14.0654,7.58933 9.47912,8.39105 -3.12811,0.54682 -5.68747,2.64303 -5.68747,4.65823 0,2.75976 1.71552,3.20808 6.95136,1.81662 21.93448,-5.82925 49.91068,0.39686 62.0375,13.80646 4.36966,4.83188 4.31372,5.49319 -1.57278,18.5953 -7.01255,15.60841 -12.66268,19.80936 -31.95969,23.76246 -13.3497,2.73476 -13.85021,3.13514 -14.2665,11.41251 -0.23728,4.71807 0.95836,9.75297 2.65699,11.18866 2.32269,1.96315 2.54946,8.5642 0.91464,26.62414 -2.82568,31.21551 -2.34357,57.9194 1.41474,78.3608 2.63038,14.3066 3.72492,16.407 8.46738,16.2488 3.24466,-0.10824 5.93336,1.68008 6.6508,4.4236 0.67581,2.58431 -0.0784,4.45272 -1.71875,4.25766 -1.60769,-0.19119 -13.72927,-1.3769 -26.93685,-2.63492 z"
     style="fill:#ffffff;fill-opacity:1;stroke-width:37.9165;stroke-miterlimit:4;stroke-dasharray:none" />
  <path
     id="path1149"
     d="m 231.18035,235.00764 c -13.20759,-1.25801 -49.22677,-1.95418 -80.04264,-1.54704 -47.82089,0.63182 -55.59818,0.22134 -53.08904,-2.80199 3.77811,-4.55235 5.70384,-59.84556 2.23315,-64.12047 -2.51038,-3.09208 -4.38131,-27.24652 -3.52098,-45.45722 0.45281,-9.58469 3.34524,-11.5673 10.38035,-7.1152 2.91833,1.84683 3.71347,12.57492 4.135,55.78914 0.30833,31.60948 1.55759,54.53832 3.05295,56.03368 7.17166,7.17166 9.77295,-21.23645 5.71943,-62.46064 -1.72161,-17.50877 -2.47583,-32.48849 -1.67604,-33.28829 0.79979,-0.79979 16.01077,-2.33743 33.80217,-3.41699 17.7914,-1.07956 35.16788,-3.0995 38.61439,-4.48875 3.44652,-1.38926 11.66006,-3.90374 18.25231,-5.58775 19.13954,-4.88925 32.39092,-21.66153 20.66833,-26.15991 -5.47761,-2.10196 -5.35845,-2.16377 -6.85394,3.55501 -2.70032,10.32604 -17.59464,13.88286 -57.3974,13.70672 -33.75238,-0.14937 -38.35278,-0.74942 -58.13865,-7.58331 C 89.70238,93.97974 85.68827,91.61947 85.02596,86.95606 84.34647,82.17171 82.65768,81.26858 74.39071,81.26858 c -8.32584,0 -10.90614,-1.40616 -16.88662,-9.20249 C 53.62157,67.00472 48.39616,60.69031 45.89207,58.03406 43.16165,55.13774 41.94526,51.29493 42.85329,48.43398 45.26209,40.84453 60.839,28.64445 71.93525,25.65654 c 12.92536,-3.48043 28.69428,-0.91669 26.6781,4.33739 -3.46292,9.02423 -4.15337,15.451 -1.81519,16.89608 1.38979,0.85894 3.29546,-1.93757 4.23483,-6.21445 0.93936,-4.27689 3.19482,-8.34674 5.01213,-9.04411 1.81731,-0.69736 3.83784,-3.30856 4.49006,-5.80266 0.65222,-2.49409 7.87366,-7.81851 16.04764,-11.83204 13.76746,-6.75999 17.00224,-7.29732 43.93111,-7.29732 26.9959,0 30.15111,0.5276 44.23593,7.39684 12.23006,5.96466 14.0654,7.58933 9.47913,8.39105 -3.12811,0.54682 -5.68748,2.64302 -5.68748,4.65822 0,2.75977 1.71553,3.20809 6.95136,1.81663 21.93448,-5.82925 49.91069,0.39686 62.0375,13.80646 4.36966,4.83188 4.31372,5.49319 -1.57278,18.59529 -7.01254,15.60842 -12.66268,19.80937 -31.95968,23.76247 -13.34971,2.73476 -13.85021,3.13514 -14.26651,11.4125 -0.23728,4.71808 0.95836,9.75298 2.65699,11.18867 2.32269,1.96315 2.54947,8.56419 0.91464,26.62414 -2.82568,31.21551 -2.34356,57.9194 1.41475,78.36079 2.63038,14.30661 3.72491,16.40701 8.46737,16.24881 3.24466,-0.10824 5.93336,1.68008 6.65081,4.42359 0.67581,2.58431 -0.0784,4.45273 -1.71876,4.25766 -1.60768,-0.19119 -13.72927,-1.3769 -26.93685,-2.63491 z"
     style="fill:#ffffff;fill-opacity:1;stroke-width:37.9165;stroke-miterlimit:4;stroke-dasharray:none" />
  <path
     id="path1151"
     d="m 231.18035,235.00764 c -13.20759,-1.25801 -49.22677,-1.95418 -80.04264,-1.54704 -47.82089,0.63182 -55.59818,0.22134 -53.08904,-2.80199 3.77811,-4.55235 5.70384,-59.84556 2.23315,-64.12047 -2.51038,-3.09208 -4.38131,-27.24652 -3.52098,-45.45722 0.45281,-9.58469 3.34524,-11.5673 10.38035,-7.1152 2.91833,1.84683 3.71347,12.57492 4.135,55.78914 0.30833,31.60948 1.55759,54.53832 3.05295,56.03368 7.17166,7.17166 9.77295,-21.23645 5.71943,-62.46064 -1.72161,-17.50877 -2.47583,-32.48849 -1.67604,-33.28829 0.79979,-0.79979 16.01077,-2.33743 33.80217,-3.41699 17.7914,-1.07956 35.16788,-3.0995 38.61439,-4.48875 3.44652,-1.38926 11.66006,-3.90374 18.25231,-5.58775 19.13954,-4.88925 32.39092,-21.66153 20.66833,-26.15991 -5.47761,-2.10196 -5.35845,-2.16377 -6.85394,3.55501 -2.70032,10.32604 -17.59464,13.88286 -57.3974,13.70672 -33.75238,-0.14937 -38.35278,-0.74942 -58.13865,-7.58331 C 89.70238,93.97974 85.68827,91.61947 85.02596,86.95606 84.34647,82.17171 82.65768,81.26858 74.39071,81.26858 c -8.32584,0 -10.90614,-1.40616 -16.88662,-9.20249 C 53.62157,67.00472 48.39616,60.69031 45.89207,58.03406 43.16165,55.13774 41.94526,51.29493 42.85329,48.43398 45.26209,40.84453 60.839,28.64445 71.93525,25.65654 c 12.92536,-3.48043 28.69428,-0.91669 26.6781,4.33739 -3.46292,9.02423 -4.15337,15.451 -1.81519,16.89608 1.38979,0.85894 3.29546,-1.93757 4.23483,-6.21445 0.93936,-4.27689 3.19482,-8.34674 5.01213,-9.04411 1.81731,-0.69736 3.83784,-3.30856 4.49006,-5.80266 0.65222,-2.49409 7.87366,-7.81851 16.04764,-11.83204 13.76746,-6.75999 17.00224,-7.29732 43.93111,-7.29732 26.9959,0 30.15111,0.5276 44.23593,7.39684 12.23006,5.96466 14.0654,7.58933 9.47913,8.39105 -3.12811,0.54682 -5.68748,2.64302 -5.68748,4.65822 0,2.75977 1.71553,3.20809 6.95136,1.81663 21.93448,-5.82925 49.91069,0.39686 62.0375,13.80646 4.36966,4.83188 4.31372,5.49319 -1.57278,18.59529 -7.01254,15.60842 -12.66268,19.80937 -31.95968,23.76247 -13.34971,2.73476 -13.85021,3.13514 -14.26651,11.4125 -0.23728,4.71808 0.95836,9.75298 2.65699,11.18867 2.32269,1.96315 2.54947,8.56419 0.91464,26.62414 -2.82568,31.21551 -2.34356,57.9194 1.41475,78.36079 2.63038,14.30661 3.72491,16.40701 8.46737,16.24881 3.24466,-0.10824 5.93336,1.68008 6.65081,4.42359 0.67581,2.58431 -0.0784,4.45273 -1.71876,4.25766 -1.60768,-0.19119 -13.72927,-1.3769 -26.93685,-2.63491 z"
     style="fill:#ffffff;fill-opacity:1;stroke-width:37.9165;stroke-miterlimit:4;stroke-dasharray:none" />
  <path
     id="path1153"
     d="m 231.18035,235.00764 c -13.20759,-1.25801 -49.22677,-1.95418 -80.04264,-1.54704 -47.82089,0.63182 -55.59818,0.22134 -53.08904,-2.80199 3.77811,-4.55235 5.70384,-59.84556 2.23315,-64.12047 -2.51038,-3.09208 -4.38131,-27.24652 -3.52098,-45.45722 0.45281,-9.58469 3.34524,-11.5673 10.38035,-7.1152 2.91833,1.84683 3.71347,12.57492 4.135,55.78914 0.30833,31.60948 1.55759,54.53832 3.05295,56.03368 7.17166,7.17166 9.77295,-21.23645 5.71943,-62.46064 -1.72161,-17.50877 -2.47583,-32.48849 -1.67604,-33.28829 0.79979,-0.79979 16.01077,-2.33743 33.80217,-3.41699 17.7914,-1.07956 35.16788,-3.0995 38.61439,-4.48875 3.44652,-1.38926 11.66006,-3.90374 18.25231,-5.58775 19.13954,-4.88925 32.39092,-21.66153 20.66833,-26.15991 -5.47761,-2.10196 -5.35845,-2.16377 -6.85394,3.55501 -2.70032,10.32604 -17.59464,13.88286 -57.3974,13.70672 -33.75238,-0.14937 -38.35278,-0.74942 -58.13865,-7.58331 C 89.70238,93.97974 85.68827,91.61947 85.02596,86.95606 84.34647,82.17171 82.65768,81.26858 74.39071,81.26858 c -8.32584,0 -10.90614,-1.40616 -16.88662,-9.20249 C 53.62157,67.00472 48.39616,60.69031 45.89207,58.03406 43.16165,55.13774 41.94526,51.29493 42.85329,48.43398 45.26209,40.84453 60.839,28.64445 71.93525,25.65654 c 12.92536,-3.48043 28.69428,-0.91669 26.6781,4.33739 -3.46292,9.02423 -4.15337,15.451 -1.81519,16.89608 1.38979,0.85894 3.29546,-1.93757 4.23483,-6.21445 0.93936,-4.27689 3.19482,-8.34674 5.01213,-9.04411 1.81731,-0.69736 3.83784,-3.30856 4.49006,-5.80266 0.65222,-2.49409 7.87366,-7.81851 16.04764,-11.83204 13.76746,-6.75999 17.00224,-7.29732 43.93111,-7.29732 26.9959,0 30.15111,0.5276 44.23593,7.39684 12.23006,5.96466 14.0654,7.58933 9.47913,8.39105 -3.12811,0.54682 -5.68748,2.64302 -5.68748,4.65822 0,2.75977 1.71553,3.20809 6.95136,1.81663 21.93448,-5.82925 49.91069,0.39686 62.0375,13.80646 4.36966,4.83188 4.31372,5.49319 -1.57278,18.59529 -7.01254,15.60842 -12.66268,19.80937 -31.95968,23.76247 -13.34971,2.73476 -13.85021,3.13514 -14.26651,11.4125 -0.23728,4.71808 0.95836,9.75298 2.65699,11.18867 2.32269,1.96315 2.54947,8.56419 0.91464,26.62414 -2.82568,31.21551 -2.34356,57.9194 1.41475,78.36079 2.63038,14.30661 3.72491,16.40701 8.46737,16.24881 3.24466,-0.10824 5.93336,1.68008 6.65081,4.42359 0.67581,2.58431 -0.0784,4.45273 -1.71876,4.25766 -1.60768,-0.19119 -13.72927,-1.3769 -26.93685,-2.63491 z"
     style="fill:#ffffff;fill-opacity:1;stroke-width:37.9165;stroke-miterlimit:4;stroke-dasharray:none" />
  <path
     id="path1155"
     d="m 231.18035,235.00764 c -13.20759,-1.25801 -49.22677,-1.95418 -80.04264,-1.54704 -47.82089,0.63182 -55.59818,0.22134 -53.08904,-2.80199 3.77811,-4.55235 5.70384,-59.84556 2.23315,-64.12047 -2.51038,-3.09208 -4.38131,-27.24652 -3.52098,-45.45722 0.45281,-9.58469 3.34524,-11.5673 10.38035,-7.1152 2.91833,1.84683 3.71347,12.57492 4.135,55.78914 0.30833,31.60948 1.55759,54.53832 3.05295,56.03368 7.17166,7.17166 9.77295,-21.23645 5.71943,-62.46064 -1.72161,-17.50877 -2.47583,-32.48849 -1.67604,-33.28829 0.79979,-0.79979 16.01077,-2.33743 33.80217,-3.41699 17.7914,-1.07956 35.16788,-3.0995 38.61439,-4.48875 3.44652,-1.38926 11.66006,-3.90374 18.25231,-5.58775 19.13954,-4.88925 32.39092,-21.66153 20.66833,-26.15991 -5.47761,-2.10196 -5.35845,-2.16377 -6.85394,3.55501 -2.70032,10.32604 -17.59464,13.88286 -57.3974,13.70672 -33.75238,-0.14937 -38.35278,-0.74942 -58.13865,-7.58331 C 89.70238,93.97974 85.68827,91.61947 85.02596,86.95606 84.34647,82.17171 82.65768,81.26858 74.39071,81.26858 c -8.32584,0 -10.90614,-1.40616 -16.88662,-9.20249 C 53.62157,67.00472 48.39616,60.69031 45.89207,58.03406 43.16165,55.13774 41.94526,51.29493 42.85329,48.43398 45.26209,40.84453 60.839,28.64445 71.93525,25.65654 c 12.92536,-3.48043 28.69428,-0.91669 26.6781,4.33739 -3.46292,9.02423 -4.15337,15.451 -1.81519,16.89608 1.38979,0.85894 3.29546,-1.93757 4.23483,-6.21445 0.93936,-4.27689 3.19482,-8.34674 5.01213,-9.04411 1.81731,-0.69736 3.83784,-3.30856 4.49006,-5.80266 0.65222,-2.49409 7.87366,-7.81851 16.04764,-11.83204 13.76746,-6.75999 17.00224,-7.29732 43.93111,-7.29732 26.9959,0 30.15111,0.5276 44.23593,7.39684 12.23006,5.96466 14.0654,7.58933 9.47913,8.39105 -3.12811,0.54682 -5.68748,2.64302 -5.68748,4.65822 0,2.75977 1.71553,3.20809 6.95136,1.81663 21.93448,-5.82925 49.91069,0.39686 62.0375,13.80646 4.36966,4.83188 4.31372,5.49319 -1.57278,18.59529 -7.01254,15.60842 -12.66268,19.80937 -31.95968,23.76247 -13.34971,2.73476 -13.85021,3.13514 -14.26651,11.4125 -0.23728,4.71808 0.95836,9.75298 2.65699,11.18867 2.32269,1.96315 2.54947,8.56419 0.91464,26.62414 -2.82568,31.21551 -2.34356,57.9194 1.41475,78.36079 2.63038,14.30661 3.72491,16.40701 8.46737,16.24881 3.24466,-0.10824 5.93336,1.68008 6.65081,4.42359 0.67581,2.58431 -0.0784,4.45273 -1.71876,4.25766 -1.60768,-0.19119 -13.72927,-1.3769 -26.93685,-2.63491 z"
     style="fill:#ffffff;fill-opacity:1;stroke-width:37.9165;stroke-miterlimit:4;stroke-dasharray:none" />
  <path
     id="path1157"
     d="m 231.18035,235.00764 c -13.20759,-1.25801 -49.22677,-1.95418 -80.04264,-1.54704 -47.82089,0.63182 -55.59818,0.22134 -53.08904,-2.80199 3.77811,-4.55235 5.70384,-59.84556 2.23315,-64.12047 -2.51038,-3.09208 -4.38131,-27.24652 -3.52098,-45.45722 0.45281,-9.58469 3.34524,-11.5673 10.38035,-7.1152 2.91833,1.84683 3.71347,12.57492 4.135,55.78914 0.30833,31.60948 1.55759,54.53832 3.05295,56.03368 7.17166,7.17166 9.77295,-21.23645 5.71943,-62.46064 -1.72161,-17.50877 -2.47583,-32.48849 -1.67604,-33.28829 0.79979,-0.79979 16.01077,-2.33743 33.80217,-3.41699 17.7914,-1.07956 35.16788,-3.0995 38.61439,-4.48875 3.44652,-1.38926 11.66006,-3.90374 18.25231,-5.58775 19.13954,-4.88925 32.39092,-21.66153 20.66833,-26.15991 -5.47761,-2.10196 -5.35845,-2.16377 -6.85394,3.55501 -2.70032,10.32604 -17.59464,13.88286 -57.3974,13.70672 -33.75238,-0.14937 -38.35278,-0.74942 -58.13865,-7.58331 C 89.70238,93.97974 85.68827,91.61947 85.02596,86.95606 84.34647,82.17171 82.65768,81.26858 74.39071,81.26858 c -8.32584,0 -10.90614,-1.40616 -16.88662,-9.20249 C 53.62157,67.00472 48.39616,60.69031 45.89207,58.03406 43.16165,55.13774 41.94526,51.29493 42.85329,48.43398 45.26209,40.84453 60.839,28.64445 71.93525,25.65654 c 12.92536,-3.48043 28.69428,-0.91669 26.6781,4.33739 -3.46292,9.02423 -4.15337,15.451 -1.81519,16.89608 1.38979,0.85894 3.29546,-1.93757 4.23483,-6.21445 0.93936,-4.27689 3.19482,-8.34674 5.01213,-9.04411 1.81731,-0.69736 3.83784,-3.30856 4.49006,-5.80266 0.65222,-2.49409 7.87366,-7.81851 16.04764,-11.83204 13.76746,-6.75999 17.00224,-7.29732 43.93111,-7.29732 26.9959,0 30.15111,0.5276 44.23593,7.39684 12.23006,5.96466 14.0654,7.58933 9.47913,8.39105 -3.12811,0.54682 -5.68748,2.64302 -5.68748,4.65822 0,2.75977 1.71553,3.20809 6.95136,1.81663 21.93448,-5.82925 49.91069,0.39686 62.0375,13.80646 4.36966,4.83188 4.31372,5.49319 -1.57278,18.59529 -7.01254,15.60842 -12.66268,19.80937 -31.95968,23.76247 -13.34971,2.73476 -13.85021,3.13514 -14.26651,11.4125 -0.23728,4.71808 0.95836,9.75298 2.65699,11.18867 2.32269,1.96315 2.54947,8.56419 0.91464,26.62414 -2.82568,31.21551 -2.34356,57.9194 1.41475,78.36079 2.63038,14.30661 3.72491,16.40701 8.46737,16.24881 3.24466,-0.10824 5.93336,1.68008 6.65081,4.42359 0.67581,2.58431 -0.0784,4.45273 -1.71876,4.25766 -1.60768,-0.19119 -13.72927,-1.3769 -26.93685,-2.63491 z"
     style="fill:#ffd8d8;fill-opacity:1;stroke-width:37.9165;stroke-miterlimit:4;stroke-dasharray:none" />
</svg>
